%TF.GenerationSoftware,KiCad,Pcbnew,8.0.1*%
%TF.CreationDate,2024-03-23T20:17:51-05:00*%
%TF.ProjectId,TTWR Keypad,54545752-204b-4657-9970-61642e6b6963,V01*%
%TF.SameCoordinates,Original*%
%TF.FileFunction,Copper,L1,Top*%
%TF.FilePolarity,Positive*%
%FSLAX46Y46*%
G04 Gerber Fmt 4.6, Leading zero omitted, Abs format (unit mm)*
G04 Created by KiCad (PCBNEW 8.0.1) date 2024-03-23 20:17:51*
%MOMM*%
%LPD*%
G01*
G04 APERTURE LIST*
G04 Aperture macros list*
%AMRoundRect*
0 Rectangle with rounded corners*
0 $1 Rounding radius*
0 $2 $3 $4 $5 $6 $7 $8 $9 X,Y pos of 4 corners*
0 Add a 4 corners polygon primitive as box body*
4,1,4,$2,$3,$4,$5,$6,$7,$8,$9,$2,$3,0*
0 Add four circle primitives for the rounded corners*
1,1,$1+$1,$2,$3*
1,1,$1+$1,$4,$5*
1,1,$1+$1,$6,$7*
1,1,$1+$1,$8,$9*
0 Add four rect primitives between the rounded corners*
20,1,$1+$1,$2,$3,$4,$5,0*
20,1,$1+$1,$4,$5,$6,$7,0*
20,1,$1+$1,$6,$7,$8,$9,0*
20,1,$1+$1,$8,$9,$2,$3,0*%
G04 Aperture macros list end*
%TA.AperFunction,SMDPad,CuDef*%
%ADD10R,0.558800X0.952500*%
%TD*%
%TA.AperFunction,SMDPad,CuDef*%
%ADD11RoundRect,0.160000X-0.197500X-0.160000X0.197500X-0.160000X0.197500X0.160000X-0.197500X0.160000X0*%
%TD*%
%TA.AperFunction,ComponentPad*%
%ADD12R,0.850000X0.850000*%
%TD*%
%TA.AperFunction,ComponentPad*%
%ADD13O,0.850000X0.850000*%
%TD*%
%TA.AperFunction,SMDPad,CuDef*%
%ADD14R,0.850000X0.280000*%
%TD*%
%TA.AperFunction,SMDPad,CuDef*%
%ADD15R,0.280000X0.850000*%
%TD*%
%TA.AperFunction,SMDPad,CuDef*%
%ADD16R,1.600000X1.600000*%
%TD*%
%TA.AperFunction,ViaPad*%
%ADD17C,0.800000*%
%TD*%
%TA.AperFunction,Conductor*%
%ADD18C,0.250000*%
%TD*%
G04 APERTURE END LIST*
D10*
%TO.P,U3,1,1*%
%TO.N,COL_0*%
X163354200Y-66818650D03*
%TO.P,U3,2,2*%
X163354200Y-73181350D03*
%TO.P,U3,3,3*%
%TO.N,Net-(D3-A)*%
X159645800Y-66818650D03*
%TO.P,U3,4,4*%
X159645800Y-73181350D03*
%TD*%
%TO.P,U12,1,1*%
%TO.N,COL_2*%
X169604200Y-86818650D03*
%TO.P,U12,2,2*%
X169604200Y-93181350D03*
%TO.P,U12,3,3*%
%TO.N,Net-(D12-A)*%
X165895800Y-86818650D03*
%TO.P,U12,4,4*%
X165895800Y-93181350D03*
%TD*%
D11*
%TO.P,R1,1*%
%TO.N,+3.3V*%
X178305000Y-72500000D03*
%TO.P,R1,2*%
%TO.N,/IO Expander/SDA*%
X179500000Y-72500000D03*
%TD*%
D10*
%TO.P,U8,1,1*%
%TO.N,COL_1*%
X163354200Y-86818650D03*
%TO.P,U8,2,2*%
X163354200Y-93181350D03*
%TO.P,U8,3,3*%
%TO.N,Net-(D8-A)*%
X159645800Y-86818650D03*
%TO.P,U8,4,4*%
X159645800Y-93181350D03*
%TD*%
%TO.P,U1,1,1*%
%TO.N,COL_0*%
X156854200Y-43167300D03*
%TO.P,U1,2,2*%
X156854200Y-49530000D03*
%TO.P,U1,3,3*%
%TO.N,Net-(D1-A)*%
X153145800Y-43167300D03*
%TO.P,U1,4,4*%
X153145800Y-49530000D03*
%TD*%
%TO.P,U14,1,1*%
%TO.N,COL_3*%
X175854200Y-66818650D03*
%TO.P,U14,2,2*%
X175854200Y-73181350D03*
%TO.P,U14,3,3*%
%TO.N,Net-(D14-A)*%
X172145800Y-66818650D03*
%TO.P,U14,4,4*%
X172145800Y-73181350D03*
%TD*%
%TO.P,U13,1,1*%
%TO.N,COL_3*%
X182354200Y-43167300D03*
%TO.P,U13,2,2*%
X182354200Y-49530000D03*
%TO.P,U13,3,3*%
%TO.N,Net-(D13-A)*%
X178645800Y-43167300D03*
%TO.P,U13,4,4*%
X178645800Y-49530000D03*
%TD*%
%TO.P,U6,1,1*%
%TO.N,COL_1*%
X169604200Y-56818650D03*
%TO.P,U6,2,2*%
X169604200Y-63181350D03*
%TO.P,U6,3,3*%
%TO.N,Net-(D6-A)*%
X165895800Y-56818650D03*
%TO.P,U6,4,4*%
X165895800Y-63181350D03*
%TD*%
D12*
%TO.P,J2,1,Pin_1*%
%TO.N,Net-(J2-Pin_1)*%
X151000000Y-93000000D03*
D13*
%TO.P,J2,2,Pin_2*%
%TO.N,unconnected-(J2-Pin_2-Pad2)*%
X151000000Y-92000000D03*
%TO.P,J2,3,Pin_3*%
%TO.N,unconnected-(J2-Pin_3-Pad3)*%
X151000000Y-91000000D03*
%TO.P,J2,4,Pin_4*%
%TO.N,unconnected-(J2-Pin_4-Pad4)*%
X151000000Y-90000000D03*
%TO.P,J2,5,Pin_5*%
%TO.N,unconnected-(J2-Pin_5-Pad5)*%
X151000000Y-89000000D03*
%TO.P,J2,6,Pin_6*%
%TO.N,unconnected-(J2-Pin_6-Pad6)*%
X151000000Y-88000000D03*
%TO.P,J2,7,Pin_7*%
%TO.N,unconnected-(J2-Pin_7-Pad7)*%
X151000000Y-87000000D03*
%TO.P,J2,8,Pin_8*%
%TO.N,unconnected-(J2-Pin_8-Pad8)*%
X151000000Y-86000000D03*
%TO.P,J2,9,Pin_9*%
%TO.N,unconnected-(J2-Pin_9-Pad9)*%
X151000000Y-85000000D03*
%TO.P,J2,10,Pin_10*%
%TO.N,unconnected-(J2-Pin_10-Pad10)*%
X151000000Y-84000000D03*
%TO.P,J2,11,Pin_11*%
%TO.N,unconnected-(J2-Pin_11-Pad11)*%
X151000000Y-83000000D03*
%TO.P,J2,12,Pin_12*%
%TO.N,unconnected-(J2-Pin_12-Pad12)*%
X151000000Y-82000000D03*
%TO.P,J2,13,Pin_13*%
%TO.N,GND*%
X151000000Y-81000000D03*
%TO.P,J2,14,Pin_14*%
%TO.N,unconnected-(J2-Pin_14-Pad14)*%
X151000000Y-80000000D03*
%TO.P,J2,15,Pin_15*%
%TO.N,GND*%
X151000000Y-79000000D03*
%TD*%
D12*
%TO.P,J1,1,Pin_1*%
%TO.N,GND*%
X184500000Y-93000000D03*
D13*
%TO.P,J1,2,Pin_2*%
%TO.N,unconnected-(J1-Pin_2-Pad2)*%
X184500000Y-92000000D03*
%TO.P,J1,3,Pin_3*%
%TO.N,unconnected-(J1-Pin_3-Pad3)*%
X184500000Y-91000000D03*
%TO.P,J1,4,Pin_4*%
%TO.N,unconnected-(J1-Pin_4-Pad4)*%
X184500000Y-90000000D03*
%TO.P,J1,5,Pin_5*%
%TO.N,/IO Expander/SDA*%
X184500000Y-89000000D03*
%TO.P,J1,6,Pin_6*%
%TO.N,/IO Expander/SCL*%
X184500000Y-88000000D03*
%TO.P,J1,7,Pin_7*%
%TO.N,GND*%
X184500000Y-87000000D03*
%TO.P,J1,8,Pin_8*%
%TO.N,+3.3V*%
X184500000Y-86000000D03*
%TO.P,J1,9,Pin_9*%
%TO.N,unconnected-(J1-Pin_9-Pad9)*%
X184500000Y-85000000D03*
%TO.P,J1,10,Pin_10*%
%TO.N,unconnected-(J1-Pin_10-Pad10)*%
X184500000Y-84000000D03*
%TO.P,J1,11,Pin_11*%
%TO.N,unconnected-(J1-Pin_11-Pad11)*%
X184500000Y-83000000D03*
%TO.P,J1,12,Pin_12*%
%TO.N,unconnected-(J1-Pin_12-Pad12)*%
X184500000Y-82000000D03*
%TO.P,J1,13,Pin_13*%
%TO.N,unconnected-(J1-Pin_13-Pad13)*%
X184500000Y-81000000D03*
%TO.P,J1,14,Pin_14*%
%TO.N,unconnected-(J1-Pin_14-Pad14)*%
X184500000Y-80000000D03*
%TO.P,J1,15,Pin_15*%
%TO.N,unconnected-(J1-Pin_15-Pad15)*%
X184500000Y-79000000D03*
%TD*%
D10*
%TO.P,U4,1,1*%
%TO.N,COL_0*%
X163354200Y-76818650D03*
%TO.P,U4,2,2*%
X163354200Y-83181350D03*
%TO.P,U4,3,3*%
%TO.N,Net-(D4-A)*%
X159645800Y-76818650D03*
%TO.P,U4,4,4*%
X159645800Y-83181350D03*
%TD*%
%TO.P,U15,1,1*%
%TO.N,COL_3*%
X175854200Y-76818650D03*
%TO.P,U15,2,2*%
X175854200Y-83181350D03*
%TO.P,U15,3,3*%
%TO.N,Net-(D15-A)*%
X172145800Y-76818650D03*
%TO.P,U15,4,4*%
X172145800Y-83181350D03*
%TD*%
%TO.P,U7,1,1*%
%TO.N,COL_1*%
X169604200Y-66818650D03*
%TO.P,U7,2,2*%
X169604200Y-73181350D03*
%TO.P,U7,3,3*%
%TO.N,Net-(D7-A)*%
X165895800Y-66818650D03*
%TO.P,U7,4,4*%
X165895800Y-73181350D03*
%TD*%
D11*
%TO.P,R2,1*%
%TO.N,+3.3V*%
X178305000Y-70200000D03*
%TO.P,R2,2*%
%TO.N,/IO Expander/SCL*%
X179500000Y-70200000D03*
%TD*%
D10*
%TO.P,U5,1,1*%
%TO.N,COL_1*%
X165354200Y-43167300D03*
%TO.P,U5,2,2*%
X165354200Y-49530000D03*
%TO.P,U5,3,3*%
%TO.N,Net-(D5-A)*%
X161645800Y-43167300D03*
%TO.P,U5,4,4*%
X161645800Y-49530000D03*
%TD*%
%TO.P,U9,1,1*%
%TO.N,COL_2*%
X173854200Y-43167300D03*
%TO.P,U9,2,2*%
X173854200Y-49530000D03*
%TO.P,U9,3,3*%
%TO.N,Net-(D9-A)*%
X170145800Y-43167300D03*
%TO.P,U9,4,4*%
X170145800Y-49530000D03*
%TD*%
%TO.P,U2,1,1*%
%TO.N,COL_0*%
X163354200Y-56818650D03*
%TO.P,U2,2,2*%
X163354200Y-63181350D03*
%TO.P,U2,3,3*%
%TO.N,Net-(D2-A)*%
X159645800Y-56818650D03*
%TO.P,U2,4,4*%
X159645800Y-63181350D03*
%TD*%
%TO.P,U16,1,1*%
%TO.N,COL_3*%
X175854200Y-86818650D03*
%TO.P,U16,2,2*%
X175854200Y-93181350D03*
%TO.P,U16,3,3*%
%TO.N,Net-(D16-A)*%
X172145800Y-86818650D03*
%TO.P,U16,4,4*%
X172145800Y-93181350D03*
%TD*%
%TO.P,U10,1,1*%
%TO.N,COL_2*%
X175854200Y-56818650D03*
%TO.P,U10,2,2*%
X175854200Y-63181350D03*
%TO.P,U10,3,3*%
%TO.N,Net-(D10-A)*%
X172145800Y-56818650D03*
%TO.P,U10,4,4*%
X172145800Y-63181350D03*
%TD*%
D14*
%TO.P,U17,1,A0*%
%TO.N,/IO Expander/A0*%
X182475001Y-60500002D03*
%TO.P,U17,2,A1*%
%TO.N,/IO Expander/A1*%
X182475001Y-60000001D03*
%TO.P,U17,3,A2*%
%TO.N,/IO Expander/A2*%
X182475001Y-59500001D03*
%TO.P,U17,4,P0*%
%TO.N,COL_0*%
X182475001Y-59000000D03*
D15*
%TO.P,U17,5,P1*%
%TO.N,COL_1*%
X181750189Y-58275000D03*
%TO.P,U17,6,P2*%
%TO.N,COL_2*%
X181250063Y-58275000D03*
%TO.P,U17,7,P3*%
%TO.N,COL_3*%
X180749937Y-58275000D03*
%TO.P,U17,8,GND*%
%TO.N,GND*%
X180249811Y-58275000D03*
D14*
%TO.P,U17,9,P4*%
%TO.N,ROW_0*%
X179524999Y-59000000D03*
%TO.P,U17,10,P5*%
%TO.N,ROW_1*%
X179524999Y-59500001D03*
%TO.P,U17,11,P6*%
%TO.N,ROW_2*%
X179524999Y-60000001D03*
%TO.P,U17,12,P7*%
%TO.N,ROW_3*%
X179524999Y-60500002D03*
D15*
%TO.P,U17,13,\u002AINT*%
%TO.N,/IO Expander/INT*%
X180249811Y-61225002D03*
%TO.P,U17,14,SCL*%
%TO.N,/IO Expander/SCL*%
X180749937Y-61225002D03*
%TO.P,U17,15,SDA*%
%TO.N,/IO Expander/SDA*%
X181250063Y-61225002D03*
%TO.P,U17,16,VCC*%
%TO.N,+3.3V*%
X181750189Y-61225002D03*
D16*
%TO.P,U17,17*%
%TO.N,N/C*%
X181000000Y-59750001D03*
%TD*%
D10*
%TO.P,U11,1,1*%
%TO.N,COL_2*%
X169604200Y-76818650D03*
%TO.P,U11,2,2*%
X169604200Y-83181350D03*
%TO.P,U11,3,3*%
%TO.N,Net-(D11-A)*%
X165895800Y-76818650D03*
%TO.P,U11,4,4*%
X165895800Y-83181350D03*
%TD*%
D17*
%TO.N,Net-(D1-A)*%
X155000000Y-43000000D03*
%TO.N,Net-(D2-A)*%
X161500000Y-57000000D03*
%TO.N,Net-(D3-A)*%
X161500000Y-67000000D03*
%TO.N,Net-(D4-A)*%
X161500000Y-77000000D03*
%TO.N,Net-(D8-A)*%
X161500000Y-93000000D03*
%TO.N,Net-(D9-A)*%
X172000000Y-43000000D03*
%TO.N,Net-(D10-A)*%
X174000000Y-57000000D03*
%TO.N,Net-(D11-A)*%
X167750000Y-83000000D03*
%TO.N,Net-(D12-A)*%
X167750000Y-93000000D03*
%TO.N,Net-(D13-A)*%
X180500000Y-43000000D03*
%TO.N,Net-(D14-A)*%
X174000000Y-73000000D03*
%TO.N,Net-(D15-A)*%
X174000000Y-83000000D03*
%TO.N,Net-(D16-A)*%
X174000000Y-93000000D03*
%TO.N,Net-(D5-A)*%
X163500000Y-43000000D03*
%TO.N,Net-(D6-A)*%
X167750000Y-57000000D03*
%TO.N,Net-(D7-A)*%
X167750000Y-67000000D03*
%TO.N,+3.3V*%
X157100000Y-55000000D03*
X178300000Y-67300000D03*
X151700000Y-58300000D03*
X182975001Y-63000000D03*
X154400000Y-58300000D03*
X157100000Y-58300000D03*
%TO.N,GND*%
X157000000Y-93000000D03*
X157000000Y-95000000D03*
X179475001Y-56500000D03*
%TO.N,ROW_1*%
X177975001Y-59000000D03*
%TO.N,ROW_2*%
X177975001Y-60500000D03*
%TO.N,ROW_3*%
X177975001Y-62000000D03*
%TO.N,/IO Expander/SDA*%
X182000000Y-73400000D03*
X179500000Y-73500000D03*
X182000000Y-85500000D03*
X182000000Y-89000000D03*
%TO.N,/IO Expander/A0*%
X154000000Y-54000000D03*
X183975001Y-61500000D03*
X156000000Y-54000000D03*
%TO.N,/IO Expander/A1*%
X154000000Y-53000000D03*
X183987654Y-60487347D03*
X156000000Y-53000000D03*
%TO.N,/IO Expander/A2*%
X183987654Y-59000000D03*
X156000000Y-52000000D03*
X154000000Y-52000000D03*
%TO.N,/IO Expander/INT*%
X179475001Y-63000000D03*
%TO.N,ROW_0*%
X177975001Y-57500000D03*
%TD*%
D18*
%TO.N,Net-(D1-A)*%
X153313100Y-43000000D02*
X153145800Y-43167300D01*
X153145800Y-49530000D02*
X153145800Y-43167300D01*
X155000000Y-43000000D02*
X153313100Y-43000000D01*
%TO.N,Net-(D2-A)*%
X159645800Y-56818650D02*
X159645800Y-63181350D01*
X159645800Y-56818650D02*
X161318650Y-56818650D01*
X161318650Y-56818650D02*
X161500000Y-57000000D01*
%TO.N,Net-(D3-A)*%
X159645800Y-66818650D02*
X159645800Y-73181350D01*
X161318650Y-66818650D02*
X161500000Y-67000000D01*
X159645800Y-66818650D02*
X161318650Y-66818650D01*
%TO.N,Net-(D4-A)*%
X159645800Y-76818650D02*
X161318650Y-76818650D01*
X159645800Y-76818650D02*
X159645800Y-83181350D01*
X161318650Y-76818650D02*
X161500000Y-77000000D01*
%TO.N,Net-(D8-A)*%
X159645800Y-86818650D02*
X159645800Y-93181350D01*
X159645800Y-93181350D02*
X161318650Y-93181350D01*
X161318650Y-93181350D02*
X161500000Y-93000000D01*
%TO.N,Net-(D9-A)*%
X170145800Y-49530000D02*
X170145800Y-43167300D01*
X172000000Y-43000000D02*
X170313100Y-43000000D01*
X170313100Y-43000000D02*
X170145800Y-43167300D01*
%TO.N,Net-(D10-A)*%
X172145800Y-56818650D02*
X173818650Y-56818650D01*
X173818650Y-56818650D02*
X174000000Y-57000000D01*
X172145800Y-56818650D02*
X172145800Y-63181350D01*
%TO.N,Net-(D11-A)*%
X165895800Y-76818650D02*
X165895800Y-83181350D01*
X165895800Y-83181350D02*
X167568650Y-83181350D01*
X167568650Y-83181350D02*
X167750000Y-83000000D01*
%TO.N,Net-(D12-A)*%
X167568650Y-93181350D02*
X167750000Y-93000000D01*
X165895800Y-86818650D02*
X165895800Y-93181350D01*
X165895800Y-93181350D02*
X167568650Y-93181350D01*
%TO.N,Net-(D13-A)*%
X178813100Y-43000000D02*
X178645800Y-43167300D01*
X180500000Y-43000000D02*
X178813100Y-43000000D01*
X178645800Y-49530000D02*
X178645800Y-43167300D01*
%TO.N,Net-(D14-A)*%
X172145800Y-66818650D02*
X172145800Y-73181350D01*
X172145800Y-73181350D02*
X173818650Y-73181350D01*
X173818650Y-73181350D02*
X174000000Y-73000000D01*
%TO.N,Net-(D15-A)*%
X173818650Y-83181350D02*
X174000000Y-83000000D01*
X172145800Y-76818650D02*
X172145800Y-83181350D01*
X172145800Y-83181350D02*
X173818650Y-83181350D01*
%TO.N,Net-(D16-A)*%
X172145800Y-93181350D02*
X173818650Y-93181350D01*
X172145800Y-86818650D02*
X172145800Y-93181350D01*
X173818650Y-93181350D02*
X174000000Y-93000000D01*
%TO.N,Net-(D5-A)*%
X163500000Y-43000000D02*
X161813100Y-43000000D01*
X161813100Y-43000000D02*
X161645800Y-43167300D01*
X161645800Y-49530000D02*
X161645800Y-43167300D01*
%TO.N,Net-(D6-A)*%
X167568650Y-56818650D02*
X167750000Y-57000000D01*
X165895800Y-56818650D02*
X165895800Y-63181350D01*
X165895800Y-56818650D02*
X167568650Y-56818650D01*
%TO.N,Net-(D7-A)*%
X165895800Y-66818650D02*
X167568650Y-66818650D01*
X167568650Y-66818650D02*
X167750000Y-67000000D01*
X165895800Y-66818650D02*
X165895800Y-73181350D01*
%TO.N,unconnected-(J1-Pin_9-Pad9)*%
X184400000Y-85000000D02*
X184500000Y-85000000D01*
%TO.N,+3.3V*%
X182975001Y-85275001D02*
X182975001Y-63000000D01*
X178300000Y-67300000D02*
X178502500Y-67097500D01*
X157100000Y-58300000D02*
X157100000Y-55000000D01*
X178305000Y-70200000D02*
X178305000Y-72500000D01*
X157100000Y-58300000D02*
X154400000Y-58300000D01*
X182975001Y-62449814D02*
X181750189Y-61225002D01*
X184500000Y-86000000D02*
X183700000Y-86000000D01*
X178305000Y-70200000D02*
X178305000Y-67305000D01*
X178305000Y-67305000D02*
X178300000Y-67300000D01*
X154400000Y-58300000D02*
X151700000Y-58300000D01*
X182975001Y-63000000D02*
X182975001Y-62449814D01*
X183700000Y-86000000D02*
X182975001Y-85275001D01*
%TO.N,GND*%
X180249811Y-58275000D02*
X180249811Y-57274810D01*
X157000000Y-95000000D02*
X157000000Y-93000000D01*
X180249811Y-57274810D02*
X179475001Y-56500000D01*
%TO.N,ROW_1*%
X179524999Y-59500001D02*
X178475002Y-59500001D01*
X178475002Y-59500001D02*
X177975001Y-59000000D01*
%TO.N,ROW_2*%
X179524999Y-60000001D02*
X178475000Y-60000001D01*
X178475000Y-60000001D02*
X177975001Y-60500000D01*
%TO.N,ROW_3*%
X179474999Y-60500002D02*
X177975001Y-62000000D01*
X179524999Y-60500002D02*
X179474999Y-60500002D01*
%TO.N,/IO Expander/SDA*%
X181975001Y-63000000D02*
X181975001Y-73375001D01*
X182000000Y-89000000D02*
X184500000Y-89000000D01*
X179500000Y-72500000D02*
X179500000Y-73500000D01*
X182000000Y-85500000D02*
X182000000Y-73400000D01*
X181975001Y-73375001D02*
X182000000Y-73400000D01*
X181250063Y-62275062D02*
X181250063Y-61225002D01*
X181975001Y-63000000D02*
X181250063Y-62275062D01*
%TO.N,/IO Expander/SCL*%
X184500000Y-88000000D02*
X182049937Y-88000000D01*
X180749937Y-70200000D02*
X180749937Y-86700000D01*
X179500000Y-70200000D02*
X180749937Y-70200000D01*
X180749937Y-61225002D02*
X180749937Y-70200000D01*
X182049937Y-88000000D02*
X180749937Y-86700000D01*
%TO.N,/IO Expander/A0*%
X156000000Y-54000000D02*
X154000000Y-54000000D01*
X182975003Y-60500002D02*
X182475001Y-60500002D01*
X183975001Y-61500000D02*
X182975003Y-60500002D01*
%TO.N,/IO Expander/A1*%
X183987654Y-60487347D02*
X183500308Y-60000001D01*
X183500308Y-60000001D02*
X182475001Y-60000001D01*
X156000000Y-53000000D02*
X154000000Y-53000000D01*
%TO.N,/IO Expander/A2*%
X183487653Y-59500001D02*
X182475001Y-59500001D01*
X156000000Y-52000000D02*
X154000000Y-52000000D01*
X183987654Y-59000000D02*
X183487653Y-59500001D01*
%TO.N,/IO Expander/INT*%
X180249811Y-61225002D02*
X180249811Y-62225190D01*
X180249811Y-62225190D02*
X179475001Y-63000000D01*
%TO.N,COL_0*%
X184000000Y-57475001D02*
X184000000Y-42000000D01*
X163354200Y-56818650D02*
X163354200Y-63181350D01*
X163354200Y-66818650D02*
X163354200Y-73181350D01*
X183000000Y-41000000D02*
X158500000Y-41000000D01*
X163354200Y-63181350D02*
X163354200Y-66818650D01*
X157500000Y-50964450D02*
X156854200Y-50318650D01*
X163354200Y-73181350D02*
X163354200Y-76818650D01*
X163354200Y-76818650D02*
X163354200Y-83181350D01*
X156854200Y-43167300D02*
X156854200Y-49530000D01*
X184000000Y-42000000D02*
X183000000Y-41000000D01*
X158500000Y-41000000D02*
X156854200Y-42645800D01*
X156854200Y-50318650D02*
X156854200Y-49530000D01*
X157500000Y-51000000D02*
X157535550Y-51000000D01*
X157535550Y-51000000D02*
X163354200Y-56818650D01*
X182475001Y-59000000D02*
X184000000Y-57475001D01*
X157500000Y-51000000D02*
X157500000Y-50964450D01*
X156854200Y-42645800D02*
X156854200Y-43167300D01*
%TO.N,COL_1*%
X181750189Y-57724812D02*
X183468198Y-56006803D01*
X169604200Y-56818650D02*
X169604200Y-63181350D01*
X169604200Y-66818650D02*
X169604200Y-73181350D01*
X165354200Y-51000000D02*
X165354200Y-52568650D01*
X166000000Y-75000000D02*
X165000000Y-76000000D01*
X169000000Y-75000000D02*
X166000000Y-75000000D01*
X169604200Y-63181350D02*
X169604200Y-66818650D01*
X183468198Y-56006803D02*
X183468198Y-42395406D01*
X165354200Y-51000000D02*
X165354200Y-49530000D01*
X165354200Y-43145800D02*
X165354200Y-43167300D01*
X165354200Y-43167300D02*
X165354200Y-49530000D01*
X163354200Y-86818650D02*
X163354200Y-93181350D01*
X165000000Y-85172850D02*
X163354200Y-86818650D01*
X182636396Y-41500000D02*
X167000000Y-41500000D01*
X169604200Y-73181350D02*
X169604200Y-74395800D01*
X183500000Y-42363604D02*
X182636396Y-41500000D01*
X181750189Y-58275000D02*
X181750189Y-57724812D01*
X169604200Y-74395800D02*
X169000000Y-75000000D01*
X165354200Y-52568650D02*
X169604200Y-56818650D01*
X167000000Y-41500000D02*
X165354200Y-43145800D01*
X183468198Y-42395406D02*
X183500000Y-42363604D01*
X165000000Y-76000000D02*
X165000000Y-85172850D01*
%TO.N,COL_2*%
X171000000Y-66000000D02*
X171000000Y-75500000D01*
X169604200Y-83181350D02*
X169604200Y-86818650D01*
X169604200Y-76818650D02*
X169604200Y-83181350D01*
X181250063Y-57313480D02*
X183018198Y-55545345D01*
X175854200Y-64145800D02*
X175000000Y-65000000D01*
X175854200Y-63181350D02*
X175854200Y-64145800D01*
X173854200Y-51000000D02*
X173854200Y-49530000D01*
X183018198Y-42518198D02*
X182500000Y-42000000D01*
X175854200Y-56818650D02*
X175854200Y-63181350D01*
X175000000Y-42000000D02*
X173854200Y-43145800D01*
X173854200Y-54818650D02*
X175854200Y-56818650D01*
X173854200Y-51000000D02*
X173854200Y-54818650D01*
X175000000Y-65000000D02*
X172000000Y-65000000D01*
X183018198Y-55545345D02*
X183018198Y-42518198D01*
X173854200Y-43167300D02*
X173854200Y-49530000D01*
X171000000Y-75500000D02*
X169681350Y-76818650D01*
X181250063Y-58275000D02*
X181250063Y-57313480D01*
X169681350Y-76818650D02*
X169604200Y-76818650D01*
X172000000Y-65000000D02*
X171000000Y-66000000D01*
X169604200Y-86818650D02*
X169604200Y-93181350D01*
X182500000Y-42000000D02*
X175000000Y-42000000D01*
X173854200Y-43145800D02*
X173854200Y-43167300D01*
%TO.N,COL_3*%
X176700000Y-65972850D02*
X175854200Y-66818650D01*
X182354200Y-43167300D02*
X182354200Y-49530000D01*
X175854200Y-76818650D02*
X175854200Y-83181350D01*
X180749937Y-56725064D02*
X180749937Y-58275000D01*
X175854200Y-83181350D02*
X175854200Y-86818650D01*
X181800000Y-50600000D02*
X177200000Y-50600000D01*
X176700000Y-55500000D02*
X179524873Y-55500000D01*
X175854200Y-66818650D02*
X175854200Y-73181350D01*
X176700000Y-55500000D02*
X176700000Y-65972850D01*
X177200000Y-50600000D02*
X176700000Y-51100000D01*
X182354200Y-50045800D02*
X181800000Y-50600000D01*
X179524873Y-55500000D02*
X180749937Y-56725064D01*
X176700000Y-51100000D02*
X176700000Y-55500000D01*
X182354200Y-49530000D02*
X182354200Y-50045800D01*
X175854200Y-86818650D02*
X175854200Y-93181350D01*
X175854200Y-73181350D02*
X175854200Y-76818650D01*
%TO.N,ROW_0*%
X179524999Y-59000000D02*
X179475001Y-59000000D01*
X179475001Y-59000000D02*
X177975001Y-57500000D01*
%TD*%
M02*
