%TF.GenerationSoftware,KiCad,Pcbnew,8.0.1*%
%TF.CreationDate,2024-03-23T20:17:52-05:00*%
%TF.ProjectId,TTWR Keypad,54545752-204b-4657-9970-61642e6b6963,V01*%
%TF.SameCoordinates,Original*%
%TF.FileFunction,Legend,Bot*%
%TF.FilePolarity,Positive*%
%FSLAX46Y46*%
G04 Gerber Fmt 4.6, Leading zero omitted, Abs format (unit mm)*
G04 Created by KiCad (PCBNEW 8.0.1) date 2024-03-23 20:17:52*
%MOMM*%
%LPD*%
G01*
G04 APERTURE LIST*
%ADD10C,0.150000*%
%ADD11C,0.100000*%
%ADD12C,0.120000*%
G04 APERTURE END LIST*
D10*
X154283333Y-90654819D02*
X154283333Y-91369104D01*
X154283333Y-91369104D02*
X154330952Y-91511961D01*
X154330952Y-91511961D02*
X154426190Y-91607200D01*
X154426190Y-91607200D02*
X154569047Y-91654819D01*
X154569047Y-91654819D02*
X154664285Y-91654819D01*
X153807142Y-91654819D02*
X153807142Y-90654819D01*
X153807142Y-90654819D02*
X153426190Y-90654819D01*
X153426190Y-90654819D02*
X153330952Y-90702438D01*
X153330952Y-90702438D02*
X153283333Y-90750057D01*
X153283333Y-90750057D02*
X153235714Y-90845295D01*
X153235714Y-90845295D02*
X153235714Y-90988152D01*
X153235714Y-90988152D02*
X153283333Y-91083390D01*
X153283333Y-91083390D02*
X153330952Y-91131009D01*
X153330952Y-91131009D02*
X153426190Y-91178628D01*
X153426190Y-91178628D02*
X153807142Y-91178628D01*
X152378571Y-90988152D02*
X152378571Y-91654819D01*
X152616666Y-90607200D02*
X152854761Y-91321485D01*
X152854761Y-91321485D02*
X152235714Y-91321485D01*
D11*
X182278490Y-64116666D02*
X182302300Y-64092857D01*
X182302300Y-64092857D02*
X182326109Y-64021428D01*
X182326109Y-64021428D02*
X182326109Y-63973809D01*
X182326109Y-63973809D02*
X182302300Y-63902381D01*
X182302300Y-63902381D02*
X182254680Y-63854762D01*
X182254680Y-63854762D02*
X182207061Y-63830952D01*
X182207061Y-63830952D02*
X182111823Y-63807143D01*
X182111823Y-63807143D02*
X182040395Y-63807143D01*
X182040395Y-63807143D02*
X181945157Y-63830952D01*
X181945157Y-63830952D02*
X181897538Y-63854762D01*
X181897538Y-63854762D02*
X181849919Y-63902381D01*
X181849919Y-63902381D02*
X181826109Y-63973809D01*
X181826109Y-63973809D02*
X181826109Y-64021428D01*
X181826109Y-64021428D02*
X181849919Y-64092857D01*
X181849919Y-64092857D02*
X181873728Y-64116666D01*
X182326109Y-64592857D02*
X182326109Y-64307143D01*
X182326109Y-64450000D02*
X181826109Y-64450000D01*
X181826109Y-64450000D02*
X181897538Y-64402381D01*
X181897538Y-64402381D02*
X181945157Y-64354762D01*
X181945157Y-64354762D02*
X181968966Y-64307143D01*
D10*
X163954819Y-59261905D02*
X162954819Y-59261905D01*
X162954819Y-59261905D02*
X162954819Y-59500000D01*
X162954819Y-59500000D02*
X163002438Y-59642857D01*
X163002438Y-59642857D02*
X163097676Y-59738095D01*
X163097676Y-59738095D02*
X163192914Y-59785714D01*
X163192914Y-59785714D02*
X163383390Y-59833333D01*
X163383390Y-59833333D02*
X163526247Y-59833333D01*
X163526247Y-59833333D02*
X163716723Y-59785714D01*
X163716723Y-59785714D02*
X163811961Y-59738095D01*
X163811961Y-59738095D02*
X163907200Y-59642857D01*
X163907200Y-59642857D02*
X163954819Y-59500000D01*
X163954819Y-59500000D02*
X163954819Y-59261905D01*
X163050057Y-60214286D02*
X163002438Y-60261905D01*
X163002438Y-60261905D02*
X162954819Y-60357143D01*
X162954819Y-60357143D02*
X162954819Y-60595238D01*
X162954819Y-60595238D02*
X163002438Y-60690476D01*
X163002438Y-60690476D02*
X163050057Y-60738095D01*
X163050057Y-60738095D02*
X163145295Y-60785714D01*
X163145295Y-60785714D02*
X163240533Y-60785714D01*
X163240533Y-60785714D02*
X163383390Y-60738095D01*
X163383390Y-60738095D02*
X163954819Y-60166667D01*
X163954819Y-60166667D02*
X163954819Y-60785714D01*
X170204819Y-69261905D02*
X169204819Y-69261905D01*
X169204819Y-69261905D02*
X169204819Y-69500000D01*
X169204819Y-69500000D02*
X169252438Y-69642857D01*
X169252438Y-69642857D02*
X169347676Y-69738095D01*
X169347676Y-69738095D02*
X169442914Y-69785714D01*
X169442914Y-69785714D02*
X169633390Y-69833333D01*
X169633390Y-69833333D02*
X169776247Y-69833333D01*
X169776247Y-69833333D02*
X169966723Y-69785714D01*
X169966723Y-69785714D02*
X170061961Y-69738095D01*
X170061961Y-69738095D02*
X170157200Y-69642857D01*
X170157200Y-69642857D02*
X170204819Y-69500000D01*
X170204819Y-69500000D02*
X170204819Y-69261905D01*
X169204819Y-70166667D02*
X169204819Y-70833333D01*
X169204819Y-70833333D02*
X170204819Y-70404762D01*
X152533333Y-57054819D02*
X152533333Y-57769104D01*
X152533333Y-57769104D02*
X152580952Y-57911961D01*
X152580952Y-57911961D02*
X152676190Y-58007200D01*
X152676190Y-58007200D02*
X152819047Y-58054819D01*
X152819047Y-58054819D02*
X152914285Y-58054819D01*
X152057142Y-58054819D02*
X152057142Y-57054819D01*
X152057142Y-57054819D02*
X151676190Y-57054819D01*
X151676190Y-57054819D02*
X151580952Y-57102438D01*
X151580952Y-57102438D02*
X151533333Y-57150057D01*
X151533333Y-57150057D02*
X151485714Y-57245295D01*
X151485714Y-57245295D02*
X151485714Y-57388152D01*
X151485714Y-57388152D02*
X151533333Y-57483390D01*
X151533333Y-57483390D02*
X151580952Y-57531009D01*
X151580952Y-57531009D02*
X151676190Y-57578628D01*
X151676190Y-57578628D02*
X152057142Y-57578628D01*
X151152380Y-57054819D02*
X150533333Y-57054819D01*
X150533333Y-57054819D02*
X150866666Y-57435771D01*
X150866666Y-57435771D02*
X150723809Y-57435771D01*
X150723809Y-57435771D02*
X150628571Y-57483390D01*
X150628571Y-57483390D02*
X150580952Y-57531009D01*
X150580952Y-57531009D02*
X150533333Y-57626247D01*
X150533333Y-57626247D02*
X150533333Y-57864342D01*
X150533333Y-57864342D02*
X150580952Y-57959580D01*
X150580952Y-57959580D02*
X150628571Y-58007200D01*
X150628571Y-58007200D02*
X150723809Y-58054819D01*
X150723809Y-58054819D02*
X151009523Y-58054819D01*
X151009523Y-58054819D02*
X151104761Y-58007200D01*
X151104761Y-58007200D02*
X151152380Y-57959580D01*
X172454819Y-78785714D02*
X171454819Y-78785714D01*
X171454819Y-78785714D02*
X171454819Y-79023809D01*
X171454819Y-79023809D02*
X171502438Y-79166666D01*
X171502438Y-79166666D02*
X171597676Y-79261904D01*
X171597676Y-79261904D02*
X171692914Y-79309523D01*
X171692914Y-79309523D02*
X171883390Y-79357142D01*
X171883390Y-79357142D02*
X172026247Y-79357142D01*
X172026247Y-79357142D02*
X172216723Y-79309523D01*
X172216723Y-79309523D02*
X172311961Y-79261904D01*
X172311961Y-79261904D02*
X172407200Y-79166666D01*
X172407200Y-79166666D02*
X172454819Y-79023809D01*
X172454819Y-79023809D02*
X172454819Y-78785714D01*
X172454819Y-80309523D02*
X172454819Y-79738095D01*
X172454819Y-80023809D02*
X171454819Y-80023809D01*
X171454819Y-80023809D02*
X171597676Y-79928571D01*
X171597676Y-79928571D02*
X171692914Y-79833333D01*
X171692914Y-79833333D02*
X171740533Y-79738095D01*
X171454819Y-81214285D02*
X171454819Y-80738095D01*
X171454819Y-80738095D02*
X171931009Y-80690476D01*
X171931009Y-80690476D02*
X171883390Y-80738095D01*
X171883390Y-80738095D02*
X171835771Y-80833333D01*
X171835771Y-80833333D02*
X171835771Y-81071428D01*
X171835771Y-81071428D02*
X171883390Y-81166666D01*
X171883390Y-81166666D02*
X171931009Y-81214285D01*
X171931009Y-81214285D02*
X172026247Y-81261904D01*
X172026247Y-81261904D02*
X172264342Y-81261904D01*
X172264342Y-81261904D02*
X172359580Y-81214285D01*
X172359580Y-81214285D02*
X172407200Y-81166666D01*
X172407200Y-81166666D02*
X172454819Y-81071428D01*
X172454819Y-81071428D02*
X172454819Y-80833333D01*
X172454819Y-80833333D02*
X172407200Y-80738095D01*
X172407200Y-80738095D02*
X172359580Y-80690476D01*
X170204819Y-59261905D02*
X169204819Y-59261905D01*
X169204819Y-59261905D02*
X169204819Y-59500000D01*
X169204819Y-59500000D02*
X169252438Y-59642857D01*
X169252438Y-59642857D02*
X169347676Y-59738095D01*
X169347676Y-59738095D02*
X169442914Y-59785714D01*
X169442914Y-59785714D02*
X169633390Y-59833333D01*
X169633390Y-59833333D02*
X169776247Y-59833333D01*
X169776247Y-59833333D02*
X169966723Y-59785714D01*
X169966723Y-59785714D02*
X170061961Y-59738095D01*
X170061961Y-59738095D02*
X170157200Y-59642857D01*
X170157200Y-59642857D02*
X170204819Y-59500000D01*
X170204819Y-59500000D02*
X170204819Y-59261905D01*
X169204819Y-60690476D02*
X169204819Y-60500000D01*
X169204819Y-60500000D02*
X169252438Y-60404762D01*
X169252438Y-60404762D02*
X169300057Y-60357143D01*
X169300057Y-60357143D02*
X169442914Y-60261905D01*
X169442914Y-60261905D02*
X169633390Y-60214286D01*
X169633390Y-60214286D02*
X170014342Y-60214286D01*
X170014342Y-60214286D02*
X170109580Y-60261905D01*
X170109580Y-60261905D02*
X170157200Y-60309524D01*
X170157200Y-60309524D02*
X170204819Y-60404762D01*
X170204819Y-60404762D02*
X170204819Y-60595238D01*
X170204819Y-60595238D02*
X170157200Y-60690476D01*
X170157200Y-60690476D02*
X170109580Y-60738095D01*
X170109580Y-60738095D02*
X170014342Y-60785714D01*
X170014342Y-60785714D02*
X169776247Y-60785714D01*
X169776247Y-60785714D02*
X169681009Y-60738095D01*
X169681009Y-60738095D02*
X169633390Y-60690476D01*
X169633390Y-60690476D02*
X169585771Y-60595238D01*
X169585771Y-60595238D02*
X169585771Y-60404762D01*
X169585771Y-60404762D02*
X169633390Y-60309524D01*
X169633390Y-60309524D02*
X169681009Y-60261905D01*
X169681009Y-60261905D02*
X169776247Y-60214286D01*
X157933333Y-57054819D02*
X157933333Y-57769104D01*
X157933333Y-57769104D02*
X157980952Y-57911961D01*
X157980952Y-57911961D02*
X158076190Y-58007200D01*
X158076190Y-58007200D02*
X158219047Y-58054819D01*
X158219047Y-58054819D02*
X158314285Y-58054819D01*
X157457142Y-58054819D02*
X157457142Y-57054819D01*
X157457142Y-57054819D02*
X157076190Y-57054819D01*
X157076190Y-57054819D02*
X156980952Y-57102438D01*
X156980952Y-57102438D02*
X156933333Y-57150057D01*
X156933333Y-57150057D02*
X156885714Y-57245295D01*
X156885714Y-57245295D02*
X156885714Y-57388152D01*
X156885714Y-57388152D02*
X156933333Y-57483390D01*
X156933333Y-57483390D02*
X156980952Y-57531009D01*
X156980952Y-57531009D02*
X157076190Y-57578628D01*
X157076190Y-57578628D02*
X157457142Y-57578628D01*
X155933333Y-58054819D02*
X156504761Y-58054819D01*
X156219047Y-58054819D02*
X156219047Y-57054819D01*
X156219047Y-57054819D02*
X156314285Y-57197676D01*
X156314285Y-57197676D02*
X156409523Y-57292914D01*
X156409523Y-57292914D02*
X156504761Y-57340533D01*
D11*
X182278490Y-65116666D02*
X182302300Y-65092857D01*
X182302300Y-65092857D02*
X182326109Y-65021428D01*
X182326109Y-65021428D02*
X182326109Y-64973809D01*
X182326109Y-64973809D02*
X182302300Y-64902381D01*
X182302300Y-64902381D02*
X182254680Y-64854762D01*
X182254680Y-64854762D02*
X182207061Y-64830952D01*
X182207061Y-64830952D02*
X182111823Y-64807143D01*
X182111823Y-64807143D02*
X182040395Y-64807143D01*
X182040395Y-64807143D02*
X181945157Y-64830952D01*
X181945157Y-64830952D02*
X181897538Y-64854762D01*
X181897538Y-64854762D02*
X181849919Y-64902381D01*
X181849919Y-64902381D02*
X181826109Y-64973809D01*
X181826109Y-64973809D02*
X181826109Y-65021428D01*
X181826109Y-65021428D02*
X181849919Y-65092857D01*
X181849919Y-65092857D02*
X181873728Y-65116666D01*
X181873728Y-65307143D02*
X181849919Y-65330952D01*
X181849919Y-65330952D02*
X181826109Y-65378571D01*
X181826109Y-65378571D02*
X181826109Y-65497619D01*
X181826109Y-65497619D02*
X181849919Y-65545238D01*
X181849919Y-65545238D02*
X181873728Y-65569047D01*
X181873728Y-65569047D02*
X181921347Y-65592857D01*
X181921347Y-65592857D02*
X181968966Y-65592857D01*
X181968966Y-65592857D02*
X182040395Y-65569047D01*
X182040395Y-65569047D02*
X182326109Y-65283333D01*
X182326109Y-65283333D02*
X182326109Y-65592857D01*
D10*
X172454819Y-88785714D02*
X171454819Y-88785714D01*
X171454819Y-88785714D02*
X171454819Y-89023809D01*
X171454819Y-89023809D02*
X171502438Y-89166666D01*
X171502438Y-89166666D02*
X171597676Y-89261904D01*
X171597676Y-89261904D02*
X171692914Y-89309523D01*
X171692914Y-89309523D02*
X171883390Y-89357142D01*
X171883390Y-89357142D02*
X172026247Y-89357142D01*
X172026247Y-89357142D02*
X172216723Y-89309523D01*
X172216723Y-89309523D02*
X172311961Y-89261904D01*
X172311961Y-89261904D02*
X172407200Y-89166666D01*
X172407200Y-89166666D02*
X172454819Y-89023809D01*
X172454819Y-89023809D02*
X172454819Y-88785714D01*
X172454819Y-90309523D02*
X172454819Y-89738095D01*
X172454819Y-90023809D02*
X171454819Y-90023809D01*
X171454819Y-90023809D02*
X171597676Y-89928571D01*
X171597676Y-89928571D02*
X171692914Y-89833333D01*
X171692914Y-89833333D02*
X171740533Y-89738095D01*
X171454819Y-91166666D02*
X171454819Y-90976190D01*
X171454819Y-90976190D02*
X171502438Y-90880952D01*
X171502438Y-90880952D02*
X171550057Y-90833333D01*
X171550057Y-90833333D02*
X171692914Y-90738095D01*
X171692914Y-90738095D02*
X171883390Y-90690476D01*
X171883390Y-90690476D02*
X172264342Y-90690476D01*
X172264342Y-90690476D02*
X172359580Y-90738095D01*
X172359580Y-90738095D02*
X172407200Y-90785714D01*
X172407200Y-90785714D02*
X172454819Y-90880952D01*
X172454819Y-90880952D02*
X172454819Y-91071428D01*
X172454819Y-91071428D02*
X172407200Y-91166666D01*
X172407200Y-91166666D02*
X172359580Y-91214285D01*
X172359580Y-91214285D02*
X172264342Y-91261904D01*
X172264342Y-91261904D02*
X172026247Y-91261904D01*
X172026247Y-91261904D02*
X171931009Y-91214285D01*
X171931009Y-91214285D02*
X171883390Y-91166666D01*
X171883390Y-91166666D02*
X171835771Y-91071428D01*
X171835771Y-91071428D02*
X171835771Y-90880952D01*
X171835771Y-90880952D02*
X171883390Y-90785714D01*
X171883390Y-90785714D02*
X171931009Y-90738095D01*
X171931009Y-90738095D02*
X172026247Y-90690476D01*
D11*
X154483333Y-62203609D02*
X154649999Y-61965514D01*
X154769047Y-62203609D02*
X154769047Y-61703609D01*
X154769047Y-61703609D02*
X154578571Y-61703609D01*
X154578571Y-61703609D02*
X154530952Y-61727419D01*
X154530952Y-61727419D02*
X154507142Y-61751228D01*
X154507142Y-61751228D02*
X154483333Y-61798847D01*
X154483333Y-61798847D02*
X154483333Y-61870276D01*
X154483333Y-61870276D02*
X154507142Y-61917895D01*
X154507142Y-61917895D02*
X154530952Y-61941704D01*
X154530952Y-61941704D02*
X154578571Y-61965514D01*
X154578571Y-61965514D02*
X154769047Y-61965514D01*
X154054761Y-61870276D02*
X154054761Y-62203609D01*
X154173809Y-61679800D02*
X154292856Y-62036942D01*
X154292856Y-62036942D02*
X153983333Y-62036942D01*
X151783333Y-62228609D02*
X151949999Y-61990514D01*
X152069047Y-62228609D02*
X152069047Y-61728609D01*
X152069047Y-61728609D02*
X151878571Y-61728609D01*
X151878571Y-61728609D02*
X151830952Y-61752419D01*
X151830952Y-61752419D02*
X151807142Y-61776228D01*
X151807142Y-61776228D02*
X151783333Y-61823847D01*
X151783333Y-61823847D02*
X151783333Y-61895276D01*
X151783333Y-61895276D02*
X151807142Y-61942895D01*
X151807142Y-61942895D02*
X151830952Y-61966704D01*
X151830952Y-61966704D02*
X151878571Y-61990514D01*
X151878571Y-61990514D02*
X152069047Y-61990514D01*
X151330952Y-61728609D02*
X151569047Y-61728609D01*
X151569047Y-61728609D02*
X151592856Y-61966704D01*
X151592856Y-61966704D02*
X151569047Y-61942895D01*
X151569047Y-61942895D02*
X151521428Y-61919085D01*
X151521428Y-61919085D02*
X151402380Y-61919085D01*
X151402380Y-61919085D02*
X151354761Y-61942895D01*
X151354761Y-61942895D02*
X151330952Y-61966704D01*
X151330952Y-61966704D02*
X151307142Y-62014323D01*
X151307142Y-62014323D02*
X151307142Y-62133371D01*
X151307142Y-62133371D02*
X151330952Y-62180990D01*
X151330952Y-62180990D02*
X151354761Y-62204800D01*
X151354761Y-62204800D02*
X151402380Y-62228609D01*
X151402380Y-62228609D02*
X151521428Y-62228609D01*
X151521428Y-62228609D02*
X151569047Y-62204800D01*
X151569047Y-62204800D02*
X151592856Y-62180990D01*
D10*
X176454819Y-58785714D02*
X175454819Y-58785714D01*
X175454819Y-58785714D02*
X175454819Y-59023809D01*
X175454819Y-59023809D02*
X175502438Y-59166666D01*
X175502438Y-59166666D02*
X175597676Y-59261904D01*
X175597676Y-59261904D02*
X175692914Y-59309523D01*
X175692914Y-59309523D02*
X175883390Y-59357142D01*
X175883390Y-59357142D02*
X176026247Y-59357142D01*
X176026247Y-59357142D02*
X176216723Y-59309523D01*
X176216723Y-59309523D02*
X176311961Y-59261904D01*
X176311961Y-59261904D02*
X176407200Y-59166666D01*
X176407200Y-59166666D02*
X176454819Y-59023809D01*
X176454819Y-59023809D02*
X176454819Y-58785714D01*
X176454819Y-60309523D02*
X176454819Y-59738095D01*
X176454819Y-60023809D02*
X175454819Y-60023809D01*
X175454819Y-60023809D02*
X175597676Y-59928571D01*
X175597676Y-59928571D02*
X175692914Y-59833333D01*
X175692914Y-59833333D02*
X175740533Y-59738095D01*
X175454819Y-60928571D02*
X175454819Y-61023809D01*
X175454819Y-61023809D02*
X175502438Y-61119047D01*
X175502438Y-61119047D02*
X175550057Y-61166666D01*
X175550057Y-61166666D02*
X175645295Y-61214285D01*
X175645295Y-61214285D02*
X175835771Y-61261904D01*
X175835771Y-61261904D02*
X176073866Y-61261904D01*
X176073866Y-61261904D02*
X176264342Y-61214285D01*
X176264342Y-61214285D02*
X176359580Y-61166666D01*
X176359580Y-61166666D02*
X176407200Y-61119047D01*
X176407200Y-61119047D02*
X176454819Y-61023809D01*
X176454819Y-61023809D02*
X176454819Y-60928571D01*
X176454819Y-60928571D02*
X176407200Y-60833333D01*
X176407200Y-60833333D02*
X176359580Y-60785714D01*
X176359580Y-60785714D02*
X176264342Y-60738095D01*
X176264342Y-60738095D02*
X176073866Y-60690476D01*
X176073866Y-60690476D02*
X175835771Y-60690476D01*
X175835771Y-60690476D02*
X175645295Y-60738095D01*
X175645295Y-60738095D02*
X175550057Y-60785714D01*
X175550057Y-60785714D02*
X175502438Y-60833333D01*
X175502438Y-60833333D02*
X175454819Y-60928571D01*
X174454819Y-45611905D02*
X173454819Y-45611905D01*
X173454819Y-45611905D02*
X173454819Y-45850000D01*
X173454819Y-45850000D02*
X173502438Y-45992857D01*
X173502438Y-45992857D02*
X173597676Y-46088095D01*
X173597676Y-46088095D02*
X173692914Y-46135714D01*
X173692914Y-46135714D02*
X173883390Y-46183333D01*
X173883390Y-46183333D02*
X174026247Y-46183333D01*
X174026247Y-46183333D02*
X174216723Y-46135714D01*
X174216723Y-46135714D02*
X174311961Y-46088095D01*
X174311961Y-46088095D02*
X174407200Y-45992857D01*
X174407200Y-45992857D02*
X174454819Y-45850000D01*
X174454819Y-45850000D02*
X174454819Y-45611905D01*
X174454819Y-46659524D02*
X174454819Y-46850000D01*
X174454819Y-46850000D02*
X174407200Y-46945238D01*
X174407200Y-46945238D02*
X174359580Y-46992857D01*
X174359580Y-46992857D02*
X174216723Y-47088095D01*
X174216723Y-47088095D02*
X174026247Y-47135714D01*
X174026247Y-47135714D02*
X173645295Y-47135714D01*
X173645295Y-47135714D02*
X173550057Y-47088095D01*
X173550057Y-47088095D02*
X173502438Y-47040476D01*
X173502438Y-47040476D02*
X173454819Y-46945238D01*
X173454819Y-46945238D02*
X173454819Y-46754762D01*
X173454819Y-46754762D02*
X173502438Y-46659524D01*
X173502438Y-46659524D02*
X173550057Y-46611905D01*
X173550057Y-46611905D02*
X173645295Y-46564286D01*
X173645295Y-46564286D02*
X173883390Y-46564286D01*
X173883390Y-46564286D02*
X173978628Y-46611905D01*
X173978628Y-46611905D02*
X174026247Y-46659524D01*
X174026247Y-46659524D02*
X174073866Y-46754762D01*
X174073866Y-46754762D02*
X174073866Y-46945238D01*
X174073866Y-46945238D02*
X174026247Y-47040476D01*
X174026247Y-47040476D02*
X173978628Y-47088095D01*
X173978628Y-47088095D02*
X173883390Y-47135714D01*
X182954819Y-45135714D02*
X181954819Y-45135714D01*
X181954819Y-45135714D02*
X181954819Y-45373809D01*
X181954819Y-45373809D02*
X182002438Y-45516666D01*
X182002438Y-45516666D02*
X182097676Y-45611904D01*
X182097676Y-45611904D02*
X182192914Y-45659523D01*
X182192914Y-45659523D02*
X182383390Y-45707142D01*
X182383390Y-45707142D02*
X182526247Y-45707142D01*
X182526247Y-45707142D02*
X182716723Y-45659523D01*
X182716723Y-45659523D02*
X182811961Y-45611904D01*
X182811961Y-45611904D02*
X182907200Y-45516666D01*
X182907200Y-45516666D02*
X182954819Y-45373809D01*
X182954819Y-45373809D02*
X182954819Y-45135714D01*
X182954819Y-46659523D02*
X182954819Y-46088095D01*
X182954819Y-46373809D02*
X181954819Y-46373809D01*
X181954819Y-46373809D02*
X182097676Y-46278571D01*
X182097676Y-46278571D02*
X182192914Y-46183333D01*
X182192914Y-46183333D02*
X182240533Y-46088095D01*
X181954819Y-46992857D02*
X181954819Y-47611904D01*
X181954819Y-47611904D02*
X182335771Y-47278571D01*
X182335771Y-47278571D02*
X182335771Y-47421428D01*
X182335771Y-47421428D02*
X182383390Y-47516666D01*
X182383390Y-47516666D02*
X182431009Y-47564285D01*
X182431009Y-47564285D02*
X182526247Y-47611904D01*
X182526247Y-47611904D02*
X182764342Y-47611904D01*
X182764342Y-47611904D02*
X182859580Y-47564285D01*
X182859580Y-47564285D02*
X182907200Y-47516666D01*
X182907200Y-47516666D02*
X182954819Y-47421428D01*
X182954819Y-47421428D02*
X182954819Y-47135714D01*
X182954819Y-47135714D02*
X182907200Y-47040476D01*
X182907200Y-47040476D02*
X182859580Y-46992857D01*
X157454819Y-45611905D02*
X156454819Y-45611905D01*
X156454819Y-45611905D02*
X156454819Y-45850000D01*
X156454819Y-45850000D02*
X156502438Y-45992857D01*
X156502438Y-45992857D02*
X156597676Y-46088095D01*
X156597676Y-46088095D02*
X156692914Y-46135714D01*
X156692914Y-46135714D02*
X156883390Y-46183333D01*
X156883390Y-46183333D02*
X157026247Y-46183333D01*
X157026247Y-46183333D02*
X157216723Y-46135714D01*
X157216723Y-46135714D02*
X157311961Y-46088095D01*
X157311961Y-46088095D02*
X157407200Y-45992857D01*
X157407200Y-45992857D02*
X157454819Y-45850000D01*
X157454819Y-45850000D02*
X157454819Y-45611905D01*
X157454819Y-47135714D02*
X157454819Y-46564286D01*
X157454819Y-46850000D02*
X156454819Y-46850000D01*
X156454819Y-46850000D02*
X156597676Y-46754762D01*
X156597676Y-46754762D02*
X156692914Y-46659524D01*
X156692914Y-46659524D02*
X156740533Y-46564286D01*
X163954819Y-79261905D02*
X162954819Y-79261905D01*
X162954819Y-79261905D02*
X162954819Y-79500000D01*
X162954819Y-79500000D02*
X163002438Y-79642857D01*
X163002438Y-79642857D02*
X163097676Y-79738095D01*
X163097676Y-79738095D02*
X163192914Y-79785714D01*
X163192914Y-79785714D02*
X163383390Y-79833333D01*
X163383390Y-79833333D02*
X163526247Y-79833333D01*
X163526247Y-79833333D02*
X163716723Y-79785714D01*
X163716723Y-79785714D02*
X163811961Y-79738095D01*
X163811961Y-79738095D02*
X163907200Y-79642857D01*
X163907200Y-79642857D02*
X163954819Y-79500000D01*
X163954819Y-79500000D02*
X163954819Y-79261905D01*
X163288152Y-80690476D02*
X163954819Y-80690476D01*
X162907200Y-80452381D02*
X163621485Y-80214286D01*
X163621485Y-80214286D02*
X163621485Y-80833333D01*
X163954819Y-69261905D02*
X162954819Y-69261905D01*
X162954819Y-69261905D02*
X162954819Y-69500000D01*
X162954819Y-69500000D02*
X163002438Y-69642857D01*
X163002438Y-69642857D02*
X163097676Y-69738095D01*
X163097676Y-69738095D02*
X163192914Y-69785714D01*
X163192914Y-69785714D02*
X163383390Y-69833333D01*
X163383390Y-69833333D02*
X163526247Y-69833333D01*
X163526247Y-69833333D02*
X163716723Y-69785714D01*
X163716723Y-69785714D02*
X163811961Y-69738095D01*
X163811961Y-69738095D02*
X163907200Y-69642857D01*
X163907200Y-69642857D02*
X163954819Y-69500000D01*
X163954819Y-69500000D02*
X163954819Y-69261905D01*
X162954819Y-70166667D02*
X162954819Y-70785714D01*
X162954819Y-70785714D02*
X163335771Y-70452381D01*
X163335771Y-70452381D02*
X163335771Y-70595238D01*
X163335771Y-70595238D02*
X163383390Y-70690476D01*
X163383390Y-70690476D02*
X163431009Y-70738095D01*
X163431009Y-70738095D02*
X163526247Y-70785714D01*
X163526247Y-70785714D02*
X163764342Y-70785714D01*
X163764342Y-70785714D02*
X163859580Y-70738095D01*
X163859580Y-70738095D02*
X163907200Y-70690476D01*
X163907200Y-70690476D02*
X163954819Y-70595238D01*
X163954819Y-70595238D02*
X163954819Y-70309524D01*
X163954819Y-70309524D02*
X163907200Y-70214286D01*
X163907200Y-70214286D02*
X163859580Y-70166667D01*
D11*
X157183333Y-62231109D02*
X157349999Y-61993014D01*
X157469047Y-62231109D02*
X157469047Y-61731109D01*
X157469047Y-61731109D02*
X157278571Y-61731109D01*
X157278571Y-61731109D02*
X157230952Y-61754919D01*
X157230952Y-61754919D02*
X157207142Y-61778728D01*
X157207142Y-61778728D02*
X157183333Y-61826347D01*
X157183333Y-61826347D02*
X157183333Y-61897776D01*
X157183333Y-61897776D02*
X157207142Y-61945395D01*
X157207142Y-61945395D02*
X157230952Y-61969204D01*
X157230952Y-61969204D02*
X157278571Y-61993014D01*
X157278571Y-61993014D02*
X157469047Y-61993014D01*
X157016666Y-61731109D02*
X156707142Y-61731109D01*
X156707142Y-61731109D02*
X156873809Y-61921585D01*
X156873809Y-61921585D02*
X156802380Y-61921585D01*
X156802380Y-61921585D02*
X156754761Y-61945395D01*
X156754761Y-61945395D02*
X156730952Y-61969204D01*
X156730952Y-61969204D02*
X156707142Y-62016823D01*
X156707142Y-62016823D02*
X156707142Y-62135871D01*
X156707142Y-62135871D02*
X156730952Y-62183490D01*
X156730952Y-62183490D02*
X156754761Y-62207300D01*
X156754761Y-62207300D02*
X156802380Y-62231109D01*
X156802380Y-62231109D02*
X156945237Y-62231109D01*
X156945237Y-62231109D02*
X156992856Y-62207300D01*
X156992856Y-62207300D02*
X157016666Y-62183490D01*
D10*
X166204819Y-88785714D02*
X165204819Y-88785714D01*
X165204819Y-88785714D02*
X165204819Y-89023809D01*
X165204819Y-89023809D02*
X165252438Y-89166666D01*
X165252438Y-89166666D02*
X165347676Y-89261904D01*
X165347676Y-89261904D02*
X165442914Y-89309523D01*
X165442914Y-89309523D02*
X165633390Y-89357142D01*
X165633390Y-89357142D02*
X165776247Y-89357142D01*
X165776247Y-89357142D02*
X165966723Y-89309523D01*
X165966723Y-89309523D02*
X166061961Y-89261904D01*
X166061961Y-89261904D02*
X166157200Y-89166666D01*
X166157200Y-89166666D02*
X166204819Y-89023809D01*
X166204819Y-89023809D02*
X166204819Y-88785714D01*
X166204819Y-90309523D02*
X166204819Y-89738095D01*
X166204819Y-90023809D02*
X165204819Y-90023809D01*
X165204819Y-90023809D02*
X165347676Y-89928571D01*
X165347676Y-89928571D02*
X165442914Y-89833333D01*
X165442914Y-89833333D02*
X165490533Y-89738095D01*
X165300057Y-90690476D02*
X165252438Y-90738095D01*
X165252438Y-90738095D02*
X165204819Y-90833333D01*
X165204819Y-90833333D02*
X165204819Y-91071428D01*
X165204819Y-91071428D02*
X165252438Y-91166666D01*
X165252438Y-91166666D02*
X165300057Y-91214285D01*
X165300057Y-91214285D02*
X165395295Y-91261904D01*
X165395295Y-91261904D02*
X165490533Y-91261904D01*
X165490533Y-91261904D02*
X165633390Y-91214285D01*
X165633390Y-91214285D02*
X166204819Y-90642857D01*
X166204819Y-90642857D02*
X166204819Y-91261904D01*
X155233333Y-57054819D02*
X155233333Y-57769104D01*
X155233333Y-57769104D02*
X155280952Y-57911961D01*
X155280952Y-57911961D02*
X155376190Y-58007200D01*
X155376190Y-58007200D02*
X155519047Y-58054819D01*
X155519047Y-58054819D02*
X155614285Y-58054819D01*
X154757142Y-58054819D02*
X154757142Y-57054819D01*
X154757142Y-57054819D02*
X154376190Y-57054819D01*
X154376190Y-57054819D02*
X154280952Y-57102438D01*
X154280952Y-57102438D02*
X154233333Y-57150057D01*
X154233333Y-57150057D02*
X154185714Y-57245295D01*
X154185714Y-57245295D02*
X154185714Y-57388152D01*
X154185714Y-57388152D02*
X154233333Y-57483390D01*
X154233333Y-57483390D02*
X154280952Y-57531009D01*
X154280952Y-57531009D02*
X154376190Y-57578628D01*
X154376190Y-57578628D02*
X154757142Y-57578628D01*
X153804761Y-57150057D02*
X153757142Y-57102438D01*
X153757142Y-57102438D02*
X153661904Y-57054819D01*
X153661904Y-57054819D02*
X153423809Y-57054819D01*
X153423809Y-57054819D02*
X153328571Y-57102438D01*
X153328571Y-57102438D02*
X153280952Y-57150057D01*
X153280952Y-57150057D02*
X153233333Y-57245295D01*
X153233333Y-57245295D02*
X153233333Y-57340533D01*
X153233333Y-57340533D02*
X153280952Y-57483390D01*
X153280952Y-57483390D02*
X153852380Y-58054819D01*
X153852380Y-58054819D02*
X153233333Y-58054819D01*
X165954819Y-45611905D02*
X164954819Y-45611905D01*
X164954819Y-45611905D02*
X164954819Y-45850000D01*
X164954819Y-45850000D02*
X165002438Y-45992857D01*
X165002438Y-45992857D02*
X165097676Y-46088095D01*
X165097676Y-46088095D02*
X165192914Y-46135714D01*
X165192914Y-46135714D02*
X165383390Y-46183333D01*
X165383390Y-46183333D02*
X165526247Y-46183333D01*
X165526247Y-46183333D02*
X165716723Y-46135714D01*
X165716723Y-46135714D02*
X165811961Y-46088095D01*
X165811961Y-46088095D02*
X165907200Y-45992857D01*
X165907200Y-45992857D02*
X165954819Y-45850000D01*
X165954819Y-45850000D02*
X165954819Y-45611905D01*
X164954819Y-47088095D02*
X164954819Y-46611905D01*
X164954819Y-46611905D02*
X165431009Y-46564286D01*
X165431009Y-46564286D02*
X165383390Y-46611905D01*
X165383390Y-46611905D02*
X165335771Y-46707143D01*
X165335771Y-46707143D02*
X165335771Y-46945238D01*
X165335771Y-46945238D02*
X165383390Y-47040476D01*
X165383390Y-47040476D02*
X165431009Y-47088095D01*
X165431009Y-47088095D02*
X165526247Y-47135714D01*
X165526247Y-47135714D02*
X165764342Y-47135714D01*
X165764342Y-47135714D02*
X165859580Y-47088095D01*
X165859580Y-47088095D02*
X165907200Y-47040476D01*
X165907200Y-47040476D02*
X165954819Y-46945238D01*
X165954819Y-46945238D02*
X165954819Y-46707143D01*
X165954819Y-46707143D02*
X165907200Y-46611905D01*
X165907200Y-46611905D02*
X165859580Y-46564286D01*
X166204819Y-78785714D02*
X165204819Y-78785714D01*
X165204819Y-78785714D02*
X165204819Y-79023809D01*
X165204819Y-79023809D02*
X165252438Y-79166666D01*
X165252438Y-79166666D02*
X165347676Y-79261904D01*
X165347676Y-79261904D02*
X165442914Y-79309523D01*
X165442914Y-79309523D02*
X165633390Y-79357142D01*
X165633390Y-79357142D02*
X165776247Y-79357142D01*
X165776247Y-79357142D02*
X165966723Y-79309523D01*
X165966723Y-79309523D02*
X166061961Y-79261904D01*
X166061961Y-79261904D02*
X166157200Y-79166666D01*
X166157200Y-79166666D02*
X166204819Y-79023809D01*
X166204819Y-79023809D02*
X166204819Y-78785714D01*
X166204819Y-80309523D02*
X166204819Y-79738095D01*
X166204819Y-80023809D02*
X165204819Y-80023809D01*
X165204819Y-80023809D02*
X165347676Y-79928571D01*
X165347676Y-79928571D02*
X165442914Y-79833333D01*
X165442914Y-79833333D02*
X165490533Y-79738095D01*
X166204819Y-81261904D02*
X166204819Y-80690476D01*
X166204819Y-80976190D02*
X165204819Y-80976190D01*
X165204819Y-80976190D02*
X165347676Y-80880952D01*
X165347676Y-80880952D02*
X165442914Y-80785714D01*
X165442914Y-80785714D02*
X165490533Y-80690476D01*
X159954819Y-89261905D02*
X158954819Y-89261905D01*
X158954819Y-89261905D02*
X158954819Y-89500000D01*
X158954819Y-89500000D02*
X159002438Y-89642857D01*
X159002438Y-89642857D02*
X159097676Y-89738095D01*
X159097676Y-89738095D02*
X159192914Y-89785714D01*
X159192914Y-89785714D02*
X159383390Y-89833333D01*
X159383390Y-89833333D02*
X159526247Y-89833333D01*
X159526247Y-89833333D02*
X159716723Y-89785714D01*
X159716723Y-89785714D02*
X159811961Y-89738095D01*
X159811961Y-89738095D02*
X159907200Y-89642857D01*
X159907200Y-89642857D02*
X159954819Y-89500000D01*
X159954819Y-89500000D02*
X159954819Y-89261905D01*
X159383390Y-90404762D02*
X159335771Y-90309524D01*
X159335771Y-90309524D02*
X159288152Y-90261905D01*
X159288152Y-90261905D02*
X159192914Y-90214286D01*
X159192914Y-90214286D02*
X159145295Y-90214286D01*
X159145295Y-90214286D02*
X159050057Y-90261905D01*
X159050057Y-90261905D02*
X159002438Y-90309524D01*
X159002438Y-90309524D02*
X158954819Y-90404762D01*
X158954819Y-90404762D02*
X158954819Y-90595238D01*
X158954819Y-90595238D02*
X159002438Y-90690476D01*
X159002438Y-90690476D02*
X159050057Y-90738095D01*
X159050057Y-90738095D02*
X159145295Y-90785714D01*
X159145295Y-90785714D02*
X159192914Y-90785714D01*
X159192914Y-90785714D02*
X159288152Y-90738095D01*
X159288152Y-90738095D02*
X159335771Y-90690476D01*
X159335771Y-90690476D02*
X159383390Y-90595238D01*
X159383390Y-90595238D02*
X159383390Y-90404762D01*
X159383390Y-90404762D02*
X159431009Y-90309524D01*
X159431009Y-90309524D02*
X159478628Y-90261905D01*
X159478628Y-90261905D02*
X159573866Y-90214286D01*
X159573866Y-90214286D02*
X159764342Y-90214286D01*
X159764342Y-90214286D02*
X159859580Y-90261905D01*
X159859580Y-90261905D02*
X159907200Y-90309524D01*
X159907200Y-90309524D02*
X159954819Y-90404762D01*
X159954819Y-90404762D02*
X159954819Y-90595238D01*
X159954819Y-90595238D02*
X159907200Y-90690476D01*
X159907200Y-90690476D02*
X159859580Y-90738095D01*
X159859580Y-90738095D02*
X159764342Y-90785714D01*
X159764342Y-90785714D02*
X159573866Y-90785714D01*
X159573866Y-90785714D02*
X159478628Y-90738095D01*
X159478628Y-90738095D02*
X159431009Y-90690476D01*
X159431009Y-90690476D02*
X159383390Y-90595238D01*
X172454819Y-68785714D02*
X171454819Y-68785714D01*
X171454819Y-68785714D02*
X171454819Y-69023809D01*
X171454819Y-69023809D02*
X171502438Y-69166666D01*
X171502438Y-69166666D02*
X171597676Y-69261904D01*
X171597676Y-69261904D02*
X171692914Y-69309523D01*
X171692914Y-69309523D02*
X171883390Y-69357142D01*
X171883390Y-69357142D02*
X172026247Y-69357142D01*
X172026247Y-69357142D02*
X172216723Y-69309523D01*
X172216723Y-69309523D02*
X172311961Y-69261904D01*
X172311961Y-69261904D02*
X172407200Y-69166666D01*
X172407200Y-69166666D02*
X172454819Y-69023809D01*
X172454819Y-69023809D02*
X172454819Y-68785714D01*
X172454819Y-70309523D02*
X172454819Y-69738095D01*
X172454819Y-70023809D02*
X171454819Y-70023809D01*
X171454819Y-70023809D02*
X171597676Y-69928571D01*
X171597676Y-69928571D02*
X171692914Y-69833333D01*
X171692914Y-69833333D02*
X171740533Y-69738095D01*
X171788152Y-71166666D02*
X172454819Y-71166666D01*
X171407200Y-70928571D02*
X172121485Y-70690476D01*
X172121485Y-70690476D02*
X172121485Y-71309523D01*
D12*
%TO.C,JP4*%
X152050000Y-92700000D02*
X152050000Y-93300000D01*
X152750000Y-94000000D02*
X154150000Y-94000000D01*
X154150000Y-92000000D02*
X152750000Y-92000000D01*
X154850000Y-93300000D02*
X154850000Y-92700000D01*
X152050000Y-92700000D02*
G75*
G02*
X152750000Y-92000000I700000J0D01*
G01*
X152750000Y-94000000D02*
G75*
G02*
X152050000Y-93300000I0J700000D01*
G01*
X154150000Y-92000000D02*
G75*
G02*
X154850000Y-92700000I1J-699999D01*
G01*
X154850000Y-93300000D02*
G75*
G02*
X154150000Y-94000000I-699999J-1D01*
G01*
%TO.C,C1*%
X183683335Y-63840000D02*
X183451665Y-63840000D01*
X183683335Y-64560000D02*
X183451665Y-64560000D01*
%TO.C,D2*%
X160500000Y-58350000D02*
X160500000Y-62360000D01*
X160500000Y-62360000D02*
X162500000Y-62360000D01*
X162500000Y-58350000D02*
X162500000Y-62360000D01*
%TO.C,D7*%
X166750000Y-68350000D02*
X166750000Y-72360000D01*
X166750000Y-72360000D02*
X168750000Y-72360000D01*
X168750000Y-68350000D02*
X168750000Y-72360000D01*
%TO.C,JP3*%
X150700000Y-59250000D02*
X150700000Y-60650000D01*
X151400000Y-61350000D02*
X152000000Y-61350000D01*
X152000000Y-58550000D02*
X151400000Y-58550000D01*
X152700000Y-60650000D02*
X152700000Y-59250000D01*
X150700000Y-59250000D02*
G75*
G02*
X151400000Y-58550000I699999J1D01*
G01*
X151400000Y-61350000D02*
G75*
G02*
X150700000Y-60650000I0J700000D01*
G01*
X152000000Y-58550000D02*
G75*
G02*
X152700000Y-59250000I1J-699999D01*
G01*
X152700000Y-60650000D02*
G75*
G02*
X152000000Y-61350000I-700000J0D01*
G01*
%TO.C,D15*%
X173000000Y-81650000D02*
X173000000Y-77640000D01*
X175000000Y-77640000D02*
X173000000Y-77640000D01*
X175000000Y-81650000D02*
X175000000Y-77640000D01*
%TO.C,D6*%
X166750000Y-58350000D02*
X166750000Y-62360000D01*
X166750000Y-62360000D02*
X168750000Y-62360000D01*
X168750000Y-58350000D02*
X168750000Y-62360000D01*
%TO.C,JP1*%
X156100000Y-59250000D02*
X156100000Y-60650000D01*
X156800000Y-61350000D02*
X157400000Y-61350000D01*
X157400000Y-58550000D02*
X156800000Y-58550000D01*
X158100000Y-60650000D02*
X158100000Y-59250000D01*
X156100000Y-59250000D02*
G75*
G02*
X156800000Y-58550000I699999J1D01*
G01*
X156800000Y-61350000D02*
G75*
G02*
X156100000Y-60650000I0J700000D01*
G01*
X157400000Y-58550000D02*
G75*
G02*
X158100000Y-59250000I1J-699999D01*
G01*
X158100000Y-60650000D02*
G75*
G02*
X157400000Y-61350000I-700000J0D01*
G01*
%TO.C,C2*%
X183683335Y-64840000D02*
X183451665Y-64840000D01*
X183683335Y-65560000D02*
X183451665Y-65560000D01*
%TO.C,D16*%
X173000000Y-91650000D02*
X173000000Y-87640000D01*
X175000000Y-87640000D02*
X173000000Y-87640000D01*
X175000000Y-91650000D02*
X175000000Y-87640000D01*
%TO.C,R4*%
X154020000Y-63670121D02*
X154020000Y-63334879D01*
X154780000Y-63670121D02*
X154780000Y-63334879D01*
%TO.C,R5*%
X151320000Y-63670121D02*
X151320000Y-63334879D01*
X152080000Y-63670121D02*
X152080000Y-63334879D01*
%TO.C,D10*%
X173000000Y-58350000D02*
X173000000Y-62360000D01*
X173000000Y-62360000D02*
X175000000Y-62360000D01*
X175000000Y-58350000D02*
X175000000Y-62360000D01*
%TO.C,D9*%
X171000000Y-44700000D02*
X171000000Y-48710000D01*
X171000000Y-48710000D02*
X173000000Y-48710000D01*
X173000000Y-44700000D02*
X173000000Y-48710000D01*
%TO.C,D13*%
X179500000Y-44700000D02*
X179500000Y-48710000D01*
X179500000Y-48710000D02*
X181500000Y-48710000D01*
X181500000Y-44700000D02*
X181500000Y-48710000D01*
%TO.C,D1*%
X154000000Y-44700000D02*
X154000000Y-48710000D01*
X154000000Y-48710000D02*
X156000000Y-48710000D01*
X156000000Y-44700000D02*
X156000000Y-48710000D01*
%TO.C,D4*%
X160500000Y-78350000D02*
X160500000Y-82360000D01*
X160500000Y-82360000D02*
X162500000Y-82360000D01*
X162500000Y-78350000D02*
X162500000Y-82360000D01*
%TO.C,D3*%
X160500000Y-68350000D02*
X160500000Y-72360000D01*
X160500000Y-72360000D02*
X162500000Y-72360000D01*
X162500000Y-68350000D02*
X162500000Y-72360000D01*
%TO.C,R3*%
X156720000Y-63670121D02*
X156720000Y-63334879D01*
X157480000Y-63670121D02*
X157480000Y-63334879D01*
%TO.C,D12*%
X166750000Y-91650000D02*
X166750000Y-87640000D01*
X168750000Y-87640000D02*
X166750000Y-87640000D01*
X168750000Y-91650000D02*
X168750000Y-87640000D01*
%TO.C,JP2*%
X153400000Y-59250000D02*
X153400000Y-60650000D01*
X154100000Y-61350000D02*
X154700000Y-61350000D01*
X154700000Y-58550000D02*
X154100000Y-58550000D01*
X155400000Y-60650000D02*
X155400000Y-59250000D01*
X153400000Y-59250000D02*
G75*
G02*
X154100000Y-58550000I699999J1D01*
G01*
X154100000Y-61350000D02*
G75*
G02*
X153400000Y-60650000I0J700000D01*
G01*
X154700000Y-58550000D02*
G75*
G02*
X155400000Y-59250000I1J-699999D01*
G01*
X155400000Y-60650000D02*
G75*
G02*
X154700000Y-61350000I-700000J0D01*
G01*
%TO.C,D5*%
X162500000Y-44700000D02*
X162500000Y-48710000D01*
X162500000Y-48710000D02*
X164500000Y-48710000D01*
X164500000Y-44700000D02*
X164500000Y-48710000D01*
%TO.C,D11*%
X166750000Y-81650000D02*
X166750000Y-77640000D01*
X168750000Y-77640000D02*
X166750000Y-77640000D01*
X168750000Y-81650000D02*
X168750000Y-77640000D01*
%TO.C,D8*%
X160500000Y-91650000D02*
X160500000Y-87640000D01*
X162500000Y-87640000D02*
X160500000Y-87640000D01*
X162500000Y-91650000D02*
X162500000Y-87640000D01*
%TO.C,D14*%
X173000000Y-71650000D02*
X173000000Y-67640000D01*
X175000000Y-67640000D02*
X173000000Y-67640000D01*
X175000000Y-71650000D02*
X175000000Y-67640000D01*
%TD*%
M02*
