%TF.GenerationSoftware,KiCad,Pcbnew,8.0.1*%
%TF.CreationDate,2024-03-24T18:55:33-05:00*%
%TF.ProjectId,TTWR Keypad,54545752-204b-4657-9970-61642e6b6963,V01*%
%TF.SameCoordinates,Original*%
%TF.FileFunction,Paste,Bot*%
%TF.FilePolarity,Positive*%
%FSLAX46Y46*%
G04 Gerber Fmt 4.6, Leading zero omitted, Abs format (unit mm)*
G04 Created by KiCad (PCBNEW 8.0.1) date 2024-03-24 18:55:33*
%MOMM*%
%LPD*%
G01*
G04 APERTURE LIST*
G04 Aperture macros list*
%AMRoundRect*
0 Rectangle with rounded corners*
0 $1 Rounding radius*
0 $2 $3 $4 $5 $6 $7 $8 $9 X,Y pos of 4 corners*
0 Add a 4 corners polygon primitive as box body*
4,1,4,$2,$3,$4,$5,$6,$7,$8,$9,$2,$3,0*
0 Add four circle primitives for the rounded corners*
1,1,$1+$1,$2,$3*
1,1,$1+$1,$4,$5*
1,1,$1+$1,$6,$7*
1,1,$1+$1,$8,$9*
0 Add four rect primitives between the rounded corners*
20,1,$1+$1,$2,$3,$4,$5,0*
20,1,$1+$1,$4,$5,$6,$7,0*
20,1,$1+$1,$6,$7,$8,$9,0*
20,1,$1+$1,$8,$9,$2,$3,0*%
G04 Aperture macros list end*
%ADD10RoundRect,0.160000X-0.197500X-0.160000X0.197500X-0.160000X0.197500X0.160000X-0.197500X0.160000X0*%
%ADD11RoundRect,0.225000X-0.375000X0.225000X-0.375000X-0.225000X0.375000X-0.225000X0.375000X0.225000X0*%
%ADD12R,2.082800X0.533400*%
%ADD13RoundRect,0.160000X-0.160000X0.197500X-0.160000X-0.197500X0.160000X-0.197500X0.160000X0.197500X0*%
%ADD14RoundRect,0.155000X-0.212500X-0.155000X0.212500X-0.155000X0.212500X0.155000X-0.212500X0.155000X0*%
%ADD15RoundRect,0.225000X0.375000X-0.225000X0.375000X0.225000X-0.375000X0.225000X-0.375000X-0.225000X0*%
%ADD16RoundRect,0.225000X-0.225000X-0.375000X0.225000X-0.375000X0.225000X0.375000X-0.225000X0.375000X0*%
G04 APERTURE END LIST*
D10*
%TO.C,R3*%
X181880000Y-80625000D03*
X183075000Y-80625000D03*
%TD*%
%TO.C,R5*%
X181880000Y-86025000D03*
X183075000Y-86025000D03*
%TD*%
%TO.C,R4*%
X181880000Y-83325000D03*
X183075000Y-83325000D03*
%TD*%
D11*
%TO.C,D8*%
X157775000Y-86375000D03*
X157775000Y-89675000D03*
%TD*%
D12*
%TO.C,U17*%
X172663700Y-82055000D03*
X172663700Y-83325000D03*
X172663700Y-84595000D03*
X172663700Y-85865000D03*
X172663700Y-87135000D03*
X172663700Y-88405000D03*
X172663700Y-89675000D03*
X172663700Y-90945000D03*
X162986300Y-90945000D03*
X162986300Y-89675000D03*
X162986300Y-88405000D03*
X162986300Y-87135000D03*
X162986300Y-85865000D03*
X162986300Y-84595000D03*
X162986300Y-83325000D03*
X162986300Y-82055000D03*
%TD*%
D13*
%TO.C,R1*%
X159025000Y-82127500D03*
X159025000Y-83322500D03*
%TD*%
%TO.C,R2*%
X156550000Y-82127500D03*
X156550000Y-83322500D03*
%TD*%
D14*
%TO.C,C1*%
X169407500Y-94000000D03*
X170542500Y-94000000D03*
%TD*%
D15*
%TO.C,D2*%
X157809000Y-54850000D03*
X157809000Y-58150000D03*
%TD*%
%TO.C,D7*%
X167825000Y-64850000D03*
X167825000Y-68150000D03*
%TD*%
D11*
%TO.C,D15*%
X177850000Y-78144800D03*
X177850000Y-74844800D03*
%TD*%
D15*
%TO.C,D6*%
X167825000Y-58150000D03*
X167825000Y-54850000D03*
%TD*%
D14*
%TO.C,C2*%
X169407500Y-95000000D03*
X170542500Y-95000000D03*
%TD*%
D16*
%TO.C,D16*%
X175975000Y-96450000D03*
X172675000Y-96450000D03*
%TD*%
D15*
%TO.C,D10*%
X177850000Y-58144800D03*
X177850000Y-54844800D03*
%TD*%
%TO.C,D9*%
X172000000Y-48000000D03*
X172000000Y-44700000D03*
%TD*%
%TO.C,D13*%
X180500000Y-48000000D03*
X180500000Y-44700000D03*
%TD*%
%TO.C,D1*%
X155000000Y-48000000D03*
X155000000Y-44700000D03*
%TD*%
%TO.C,D4*%
X157800000Y-78150000D03*
X157800000Y-74850000D03*
%TD*%
%TO.C,D3*%
X157809000Y-68150000D03*
X157809000Y-64850000D03*
%TD*%
%TO.C,D12*%
X165975000Y-93150000D03*
X165975000Y-96450000D03*
%TD*%
%TO.C,D5*%
X163500000Y-48000000D03*
X163500000Y-44700000D03*
%TD*%
D11*
%TO.C,D11*%
X167825000Y-78150000D03*
X167825000Y-74850000D03*
%TD*%
%TO.C,D14*%
X177850000Y-64844800D03*
X177850000Y-68144800D03*
%TD*%
M02*
