%TF.GenerationSoftware,KiCad,Pcbnew,8.0.1*%
%TF.CreationDate,2024-03-29T18:45:23-05:00*%
%TF.ProjectId,TTWR Keypad,54545752-204b-4657-9970-61642e6b6963,V01*%
%TF.SameCoordinates,Original*%
%TF.FileFunction,Soldermask,Bot*%
%TF.FilePolarity,Negative*%
%FSLAX46Y46*%
G04 Gerber Fmt 4.6, Leading zero omitted, Abs format (unit mm)*
G04 Created by KiCad (PCBNEW 8.0.1) date 2024-03-29 18:45:23*
%MOMM*%
%LPD*%
G01*
G04 APERTURE LIST*
G04 Aperture macros list*
%AMRoundRect*
0 Rectangle with rounded corners*
0 $1 Rounding radius*
0 $2 $3 $4 $5 $6 $7 $8 $9 X,Y pos of 4 corners*
0 Add a 4 corners polygon primitive as box body*
4,1,4,$2,$3,$4,$5,$6,$7,$8,$9,$2,$3,0*
0 Add four circle primitives for the rounded corners*
1,1,$1+$1,$2,$3*
1,1,$1+$1,$4,$5*
1,1,$1+$1,$6,$7*
1,1,$1+$1,$8,$9*
0 Add four rect primitives between the rounded corners*
20,1,$1+$1,$2,$3,$4,$5,0*
20,1,$1+$1,$4,$5,$6,$7,0*
20,1,$1+$1,$6,$7,$8,$9,0*
20,1,$1+$1,$8,$9,$2,$3,0*%
%AMFreePoly0*
4,1,19,0.500000,-0.750000,0.000000,-0.750000,0.000000,-0.744911,-0.071157,-0.744911,-0.207708,-0.704816,-0.327430,-0.627875,-0.420627,-0.520320,-0.479746,-0.390866,-0.500000,-0.250000,-0.500000,0.250000,-0.479746,0.390866,-0.420627,0.520320,-0.327430,0.627875,-0.207708,0.704816,-0.071157,0.744911,0.000000,0.744911,0.000000,0.750000,0.500000,0.750000,0.500000,-0.750000,0.500000,-0.750000,
$1*%
%AMFreePoly1*
4,1,19,0.000000,0.744911,0.071157,0.744911,0.207708,0.704816,0.327430,0.627875,0.420627,0.520320,0.479746,0.390866,0.500000,0.250000,0.500000,-0.250000,0.479746,-0.390866,0.420627,-0.520320,0.327430,-0.627875,0.207708,-0.704816,0.071157,-0.744911,0.000000,-0.744911,0.000000,-0.750000,-0.500000,-0.750000,-0.500000,0.750000,0.000000,0.750000,0.000000,0.744911,0.000000,0.744911,
$1*%
G04 Aperture macros list end*
%ADD10FreePoly0,270.000000*%
%ADD11FreePoly1,270.000000*%
%ADD12RoundRect,0.237500X-0.300000X-0.237500X0.300000X-0.237500X0.300000X0.237500X-0.300000X0.237500X0*%
%ADD13RoundRect,0.225000X0.375000X-0.225000X0.375000X0.225000X-0.375000X0.225000X-0.375000X-0.225000X0*%
%ADD14FreePoly0,0.000000*%
%ADD15FreePoly1,0.000000*%
%ADD16RoundRect,0.225000X-0.375000X0.225000X-0.375000X-0.225000X0.375000X-0.225000X0.375000X0.225000X0*%
%ADD17RoundRect,0.237500X-0.237500X0.250000X-0.237500X-0.250000X0.237500X-0.250000X0.237500X0.250000X0*%
%ADD18RoundRect,0.237500X-0.250000X-0.237500X0.250000X-0.237500X0.250000X0.237500X-0.250000X0.237500X0*%
%ADD19R,0.850000X0.850000*%
%ADD20O,0.850000X0.850000*%
%ADD21R,2.082800X0.533400*%
G04 APERTURE END LIST*
D10*
%TO.C,JP4*%
X155000000Y-91675000D03*
D11*
X155000000Y-92975000D03*
%TD*%
D12*
%TO.C,C1*%
X169400000Y-94400000D03*
X171125000Y-94400000D03*
%TD*%
D13*
%TO.C,D2*%
X157809000Y-58150000D03*
X157809000Y-54850000D03*
%TD*%
%TO.C,D7*%
X167825000Y-68150000D03*
X167825000Y-64850000D03*
%TD*%
D14*
%TO.C,JP3*%
X177550000Y-88225000D03*
D15*
X178850000Y-88225000D03*
%TD*%
D16*
%TO.C,D15*%
X177850000Y-74844800D03*
X177850000Y-78144800D03*
%TD*%
D13*
%TO.C,D6*%
X167825000Y-58150000D03*
X167825000Y-54850000D03*
%TD*%
D14*
%TO.C,JP1*%
X177550000Y-81500000D03*
D15*
X178850000Y-81500000D03*
%TD*%
D12*
%TO.C,C2*%
X169387500Y-96450000D03*
X171112500Y-96450000D03*
%TD*%
D17*
%TO.C,R1*%
X158250000Y-81500000D03*
X158250000Y-83325000D03*
%TD*%
D13*
%TO.C,D16*%
X177750000Y-97200000D03*
X177750000Y-93900000D03*
%TD*%
D18*
%TO.C,R4*%
X180687500Y-84862500D03*
X182512500Y-84862500D03*
%TD*%
%TO.C,R5*%
X180687500Y-88225000D03*
X182512500Y-88225000D03*
%TD*%
D13*
%TO.C,D10*%
X177850000Y-58144800D03*
X177850000Y-54844800D03*
%TD*%
%TO.C,D9*%
X172000000Y-48000000D03*
X172000000Y-44700000D03*
%TD*%
%TO.C,D13*%
X180500000Y-48000000D03*
X180500000Y-44700000D03*
%TD*%
%TO.C,D1*%
X155000000Y-48000000D03*
X155000000Y-44700000D03*
%TD*%
%TO.C,D4*%
X157800000Y-78150000D03*
X157800000Y-74850000D03*
%TD*%
%TO.C,D3*%
X157809000Y-68150000D03*
X157809000Y-64850000D03*
%TD*%
D19*
%TO.C,J2*%
X151000000Y-93000000D03*
D20*
X151000000Y-92000000D03*
X151000000Y-91000000D03*
X151000000Y-90000000D03*
X151000000Y-89000000D03*
X151000000Y-88000000D03*
X151000000Y-87000000D03*
X151000000Y-86000000D03*
X151000000Y-85000000D03*
X151000000Y-84000000D03*
X151000000Y-83000000D03*
X151000000Y-82000000D03*
X151000000Y-81000000D03*
X151000000Y-80000000D03*
X151000000Y-79000000D03*
%TD*%
D19*
%TO.C,J1*%
X184500000Y-93000000D03*
D20*
X184500000Y-92000000D03*
X184500000Y-91000000D03*
X184500000Y-90000000D03*
X184500000Y-89000000D03*
X184500000Y-88000000D03*
X184500000Y-87000000D03*
X184500000Y-86000000D03*
X184500000Y-85000000D03*
X184500000Y-84000000D03*
X184500000Y-83000000D03*
X184500000Y-82000000D03*
X184500000Y-81000000D03*
X184500000Y-80000000D03*
X184500000Y-79000000D03*
%TD*%
D18*
%TO.C,R3*%
X180687500Y-81500000D03*
X182512500Y-81500000D03*
%TD*%
D17*
%TO.C,R2*%
X155775000Y-81500000D03*
X155775000Y-83325000D03*
%TD*%
D13*
%TO.C,D12*%
X164850000Y-97200000D03*
X164850000Y-93900000D03*
%TD*%
D14*
%TO.C,JP2*%
X177575000Y-84862500D03*
D15*
X178875000Y-84862500D03*
%TD*%
D13*
%TO.C,D5*%
X163500000Y-48000000D03*
X163500000Y-44700000D03*
%TD*%
D16*
%TO.C,D11*%
X167825000Y-74850000D03*
X167825000Y-78150000D03*
%TD*%
%TO.C,D8*%
X157775000Y-86375000D03*
X157775000Y-89675000D03*
%TD*%
D21*
%TO.C,U17*%
X172663700Y-82055000D03*
X172663700Y-83325000D03*
X172663700Y-84595000D03*
X172663700Y-85865000D03*
X172663700Y-87135000D03*
X172663700Y-88405000D03*
X172663700Y-89675000D03*
X172663700Y-90945000D03*
X162986300Y-90945000D03*
X162986300Y-89675000D03*
X162986300Y-88405000D03*
X162986300Y-87135000D03*
X162986300Y-85865000D03*
X162986300Y-84595000D03*
X162986300Y-83325000D03*
X162986300Y-82055000D03*
%TD*%
D16*
%TO.C,D14*%
X177850000Y-64844800D03*
X177850000Y-68144800D03*
%TD*%
M02*
