%TF.GenerationSoftware,KiCad,Pcbnew,8.0.1*%
%TF.CreationDate,2024-03-24T18:55:33-05:00*%
%TF.ProjectId,TTWR Keypad,54545752-204b-4657-9970-61642e6b6963,V01*%
%TF.SameCoordinates,Original*%
%TF.FileFunction,Copper,L2,Inr*%
%TF.FilePolarity,Positive*%
%FSLAX46Y46*%
G04 Gerber Fmt 4.6, Leading zero omitted, Abs format (unit mm)*
G04 Created by KiCad (PCBNEW 8.0.1) date 2024-03-24 18:55:33*
%MOMM*%
%LPD*%
G01*
G04 APERTURE LIST*
%TA.AperFunction,ComponentPad*%
%ADD10R,0.850000X0.850000*%
%TD*%
%TA.AperFunction,ComponentPad*%
%ADD11O,0.850000X0.850000*%
%TD*%
%TA.AperFunction,ViaPad*%
%ADD12C,0.800000*%
%TD*%
%TA.AperFunction,Conductor*%
%ADD13C,0.250000*%
%TD*%
G04 APERTURE END LIST*
D10*
%TO.N,Net-(J2-Pin_1)*%
%TO.C,J2*%
X151000000Y-93000000D03*
D11*
%TO.N,unconnected-(J2-Pin_2-Pad2)*%
X151000000Y-92000000D03*
%TO.N,unconnected-(J2-Pin_3-Pad3)*%
X151000000Y-91000000D03*
%TO.N,unconnected-(J2-Pin_4-Pad4)*%
X151000000Y-90000000D03*
%TO.N,unconnected-(J2-Pin_5-Pad5)*%
X151000000Y-89000000D03*
%TO.N,unconnected-(J2-Pin_6-Pad6)*%
X151000000Y-88000000D03*
%TO.N,unconnected-(J2-Pin_7-Pad7)*%
X151000000Y-87000000D03*
%TO.N,unconnected-(J2-Pin_8-Pad8)*%
X151000000Y-86000000D03*
%TO.N,unconnected-(J2-Pin_9-Pad9)*%
X151000000Y-85000000D03*
%TO.N,unconnected-(J2-Pin_10-Pad10)*%
X151000000Y-84000000D03*
%TO.N,unconnected-(J2-Pin_11-Pad11)*%
X151000000Y-83000000D03*
%TO.N,unconnected-(J2-Pin_12-Pad12)*%
X151000000Y-82000000D03*
%TO.N,GND*%
X151000000Y-81000000D03*
%TO.N,unconnected-(J2-Pin_14-Pad14)*%
X151000000Y-80000000D03*
%TO.N,GND*%
X151000000Y-79000000D03*
%TD*%
D10*
%TO.N,GND*%
%TO.C,J1*%
X184500000Y-93000000D03*
D11*
%TO.N,unconnected-(J1-Pin_2-Pad2)*%
X184500000Y-92000000D03*
%TO.N,unconnected-(J1-Pin_3-Pad3)*%
X184500000Y-91000000D03*
%TO.N,unconnected-(J1-Pin_4-Pad4)*%
X184500000Y-90000000D03*
%TO.N,/IO Expander/SDA*%
X184500000Y-89000000D03*
%TO.N,/IO Expander/SCL*%
X184500000Y-88000000D03*
%TO.N,GND*%
X184500000Y-87000000D03*
%TO.N,+3.3V*%
X184500000Y-86000000D03*
%TO.N,unconnected-(J1-Pin_9-Pad9)*%
X184500000Y-85000000D03*
%TO.N,unconnected-(J1-Pin_10-Pad10)*%
X184500000Y-84000000D03*
%TO.N,unconnected-(J1-Pin_11-Pad11)*%
X184500000Y-83000000D03*
%TO.N,unconnected-(J1-Pin_12-Pad12)*%
X184500000Y-82000000D03*
%TO.N,unconnected-(J1-Pin_13-Pad13)*%
X184500000Y-81000000D03*
%TO.N,unconnected-(J1-Pin_14-Pad14)*%
X184500000Y-80000000D03*
%TO.N,unconnected-(J1-Pin_15-Pad15)*%
X184500000Y-79000000D03*
%TD*%
D12*
%TO.N,COL_0*%
X160975000Y-79675000D03*
%TO.N,COL_1*%
X159650000Y-81125000D03*
%TO.N,Net-(D12-A)*%
X165975000Y-91975000D03*
%TO.N,Net-(D16-A)*%
X177750000Y-89675000D03*
%TO.N,Net-(D15-A)*%
X176950000Y-79675000D03*
%TO.N,Net-(D11-A)*%
X167825000Y-79675000D03*
%TO.N,ROW_3*%
X157800000Y-79500000D03*
X157775000Y-87150000D03*
%TO.N,Net-(D8-A)*%
X157775000Y-89675000D03*
%TO.N,Net-(D4-A)*%
X157800000Y-73300000D03*
%TO.N,Net-(D3-A)*%
X157800000Y-63325000D03*
%TO.N,Net-(D14-A)*%
X177850000Y-69675000D03*
%TO.N,Net-(D7-A)*%
X167825000Y-63325000D03*
%TO.N,Net-(D10-A)*%
X177850000Y-53300000D03*
%TO.N,Net-(D6-A)*%
X167825000Y-53325000D03*
%TO.N,Net-(D2-A)*%
X157800000Y-53325000D03*
%TO.N,Net-(D13-A)*%
X180500000Y-43000000D03*
%TO.N,COL_3*%
X175000000Y-89700000D03*
%TO.N,COL_2*%
X175000000Y-88375000D03*
%TO.N,COL_1*%
X175000000Y-87150000D03*
%TO.N,COL_0*%
X175000000Y-85875000D03*
%TO.N,GND*%
X183075000Y-84500000D03*
%TO.N,+3.3V*%
X177250000Y-86025000D03*
%TO.N,/IO Expander/A0*%
X180975000Y-80600000D03*
%TO.N,/IO Expander/A2*%
X180975000Y-87000000D03*
%TO.N,/IO Expander/A1*%
X180975000Y-83325000D03*
%TO.N,/IO Expander/A2*%
X175000000Y-84600000D03*
%TO.N,/IO Expander/A1*%
X175000000Y-83325000D03*
%TO.N,/IO Expander/A0*%
X174975000Y-82050000D03*
%TO.N,/IO Expander/SDA*%
X160500000Y-83325000D03*
%TO.N,+3.3V*%
X169400000Y-93000000D03*
%TO.N,/IO Expander/SCL*%
X164995000Y-84595000D03*
%TO.N,/IO Expander/INT*%
X160500000Y-85875000D03*
X154975000Y-90000000D03*
%TO.N,+3.3V*%
X165000000Y-82050000D03*
%TO.N,GND*%
X175000000Y-90950000D03*
%TO.N,Net-(D1-A)*%
X155000000Y-43000000D03*
%TO.N,Net-(D9-A)*%
X172000000Y-43000000D03*
%TO.N,Net-(D5-A)*%
X163500000Y-43000000D03*
%TD*%
D13*
%TO.N,/IO Expander/A2*%
X180975000Y-87000000D02*
X180475000Y-87000000D01*
X180475000Y-87000000D02*
X178075000Y-84600000D01*
X178075000Y-84600000D02*
X175000000Y-84600000D01*
%TO.N,COL_0*%
X162025000Y-80725000D02*
X160975000Y-79675000D01*
X169850000Y-80725000D02*
X162025000Y-80725000D01*
X175000000Y-85875000D02*
X169850000Y-80725000D01*
%TO.N,COL_1*%
X169145405Y-87150000D02*
X163120405Y-81125000D01*
X163120405Y-81125000D02*
X159650000Y-81125000D01*
X175000000Y-87150000D02*
X169145405Y-87150000D01*
%TO.N,/IO Expander/SCL*%
X164995000Y-87316814D02*
X164995000Y-84595000D01*
X180650000Y-91850000D02*
X169528186Y-91850000D01*
X169528186Y-91850000D02*
X164995000Y-87316814D01*
X184500000Y-88000000D02*
X180650000Y-91850000D01*
%TO.N,/IO Expander/SDA*%
X184500000Y-89000000D02*
X181175000Y-92325000D01*
X181175000Y-92325000D02*
X169437500Y-92325000D01*
X160500000Y-83387500D02*
X160500000Y-83325000D01*
X169437500Y-92325000D02*
X160500000Y-83387500D01*
%TO.N,ROW_3*%
X157800000Y-79500000D02*
X157800000Y-87125000D01*
X157800000Y-87125000D02*
X157775000Y-87150000D01*
%TO.N,/IO Expander/A1*%
X180975000Y-83325000D02*
X175000000Y-83325000D01*
%TO.N,/IO Expander/A0*%
X180975000Y-80600000D02*
X179525000Y-82050000D01*
X179525000Y-82050000D02*
X174975000Y-82050000D01*
%TD*%
M02*
