%TF.GenerationSoftware,KiCad,Pcbnew,8.0.1*%
%TF.CreationDate,2024-03-24T18:55:27-05:00*%
%TF.ProjectId,TTWR Keypad,54545752-204b-4657-9970-61642e6b6963,V01*%
%TF.SameCoordinates,Original*%
%TF.FileFunction,Drillmap*%
%TF.FilePolarity,Positive*%
%FSLAX45Y45*%
G04 Gerber Fmt 4.5, Leading zero omitted, Abs format (unit mm)*
G04 Created by KiCad (PCBNEW 8.0.1) date 2024-03-24 18:55:27*
%MOMM*%
%LPD*%
G01*
G04 APERTURE LIST*
%ADD10C,0.100000*%
%ADD11C,0.200000*%
G04 APERTURE END LIST*
D10*
X15000000Y-4250000D02*
X15000000Y-9750000D01*
X18300000Y-4000000D02*
X15250000Y-4000000D01*
X18550000Y-9750000D02*
X18550000Y-4250000D01*
X18300000Y-10000000D02*
X15250000Y-10000000D01*
X18300000Y-4000000D02*
G75*
G02*
X18550000Y-4250000I0J-250000D01*
G01*
X15000000Y-4250000D02*
G75*
G02*
X15250000Y-4000000I250000J0D01*
G01*
X15250000Y-10000000D02*
G75*
G02*
X15000000Y-9750000I0J250000D01*
G01*
X18550000Y-9750000D02*
G75*
G02*
X18300000Y-10000000I-250000J0D01*
G01*
X15375000Y-9750000D02*
G75*
G02*
X15125000Y-9750000I-125000J0D01*
G01*
X15125000Y-9750000D02*
G75*
G02*
X15375000Y-9750000I125000J0D01*
G01*
X18425000Y-9750000D02*
G75*
G02*
X18175000Y-9750000I-125000J0D01*
G01*
X18175000Y-9750000D02*
G75*
G02*
X18425000Y-9750000I125000J0D01*
G01*
D11*
X15255777Y-10316484D02*
X15255777Y-10116484D01*
X15255777Y-10116484D02*
X15303396Y-10116484D01*
X15303396Y-10116484D02*
X15331967Y-10126008D01*
X15331967Y-10126008D02*
X15351015Y-10145055D01*
X15351015Y-10145055D02*
X15360539Y-10164103D01*
X15360539Y-10164103D02*
X15370062Y-10202198D01*
X15370062Y-10202198D02*
X15370062Y-10230770D01*
X15370062Y-10230770D02*
X15360539Y-10268865D01*
X15360539Y-10268865D02*
X15351015Y-10287912D01*
X15351015Y-10287912D02*
X15331967Y-10306960D01*
X15331967Y-10306960D02*
X15303396Y-10316484D01*
X15303396Y-10316484D02*
X15255777Y-10316484D01*
X15455777Y-10316484D02*
X15455777Y-10183150D01*
X15455777Y-10221246D02*
X15465301Y-10202198D01*
X15465301Y-10202198D02*
X15474824Y-10192674D01*
X15474824Y-10192674D02*
X15493872Y-10183150D01*
X15493872Y-10183150D02*
X15512920Y-10183150D01*
X15579586Y-10316484D02*
X15579586Y-10183150D01*
X15579586Y-10116484D02*
X15570062Y-10126008D01*
X15570062Y-10126008D02*
X15579586Y-10135531D01*
X15579586Y-10135531D02*
X15589110Y-10126008D01*
X15589110Y-10126008D02*
X15579586Y-10116484D01*
X15579586Y-10116484D02*
X15579586Y-10135531D01*
X15703396Y-10316484D02*
X15684348Y-10306960D01*
X15684348Y-10306960D02*
X15674824Y-10287912D01*
X15674824Y-10287912D02*
X15674824Y-10116484D01*
X15808158Y-10316484D02*
X15789110Y-10306960D01*
X15789110Y-10306960D02*
X15779586Y-10287912D01*
X15779586Y-10287912D02*
X15779586Y-10116484D01*
X16036729Y-10316484D02*
X16036729Y-10116484D01*
X16036729Y-10116484D02*
X16103396Y-10259341D01*
X16103396Y-10259341D02*
X16170062Y-10116484D01*
X16170062Y-10116484D02*
X16170062Y-10316484D01*
X16351015Y-10316484D02*
X16351015Y-10211722D01*
X16351015Y-10211722D02*
X16341491Y-10192674D01*
X16341491Y-10192674D02*
X16322443Y-10183150D01*
X16322443Y-10183150D02*
X16284348Y-10183150D01*
X16284348Y-10183150D02*
X16265301Y-10192674D01*
X16351015Y-10306960D02*
X16331967Y-10316484D01*
X16331967Y-10316484D02*
X16284348Y-10316484D01*
X16284348Y-10316484D02*
X16265301Y-10306960D01*
X16265301Y-10306960D02*
X16255777Y-10287912D01*
X16255777Y-10287912D02*
X16255777Y-10268865D01*
X16255777Y-10268865D02*
X16265301Y-10249817D01*
X16265301Y-10249817D02*
X16284348Y-10240293D01*
X16284348Y-10240293D02*
X16331967Y-10240293D01*
X16331967Y-10240293D02*
X16351015Y-10230770D01*
X16446253Y-10183150D02*
X16446253Y-10383150D01*
X16446253Y-10192674D02*
X16465301Y-10183150D01*
X16465301Y-10183150D02*
X16503396Y-10183150D01*
X16503396Y-10183150D02*
X16522443Y-10192674D01*
X16522443Y-10192674D02*
X16531967Y-10202198D01*
X16531967Y-10202198D02*
X16541491Y-10221246D01*
X16541491Y-10221246D02*
X16541491Y-10278389D01*
X16541491Y-10278389D02*
X16531967Y-10297436D01*
X16531967Y-10297436D02*
X16522443Y-10306960D01*
X16522443Y-10306960D02*
X16503396Y-10316484D01*
X16503396Y-10316484D02*
X16465301Y-10316484D01*
X16465301Y-10316484D02*
X16446253Y-10306960D01*
X16627205Y-10297436D02*
X16636729Y-10306960D01*
X16636729Y-10306960D02*
X16627205Y-10316484D01*
X16627205Y-10316484D02*
X16617682Y-10306960D01*
X16617682Y-10306960D02*
X16627205Y-10297436D01*
X16627205Y-10297436D02*
X16627205Y-10316484D01*
X16627205Y-10192674D02*
X16636729Y-10202198D01*
X16636729Y-10202198D02*
X16627205Y-10211722D01*
X16627205Y-10211722D02*
X16617682Y-10202198D01*
X16617682Y-10202198D02*
X16627205Y-10192674D01*
X16627205Y-10192674D02*
X16627205Y-10211722D01*
M02*
