%TF.GenerationSoftware,KiCad,Pcbnew,8.0.1*%
%TF.CreationDate,2024-03-29T18:45:23-05:00*%
%TF.ProjectId,TTWR Keypad,54545752-204b-4657-9970-61642e6b6963,V01*%
%TF.SameCoordinates,Original*%
%TF.FileFunction,Legend,Bot*%
%TF.FilePolarity,Positive*%
%FSLAX46Y46*%
G04 Gerber Fmt 4.6, Leading zero omitted, Abs format (unit mm)*
G04 Created by KiCad (PCBNEW 8.0.1) date 2024-03-29 18:45:23*
%MOMM*%
%LPD*%
G01*
G04 APERTURE LIST*
%ADD10C,0.150000*%
%ADD11C,0.120000*%
%ADD12C,0.152400*%
%ADD13C,0.000000*%
G04 APERTURE END LIST*
D10*
X157354819Y-91420238D02*
X156354819Y-91420238D01*
X157354819Y-91896428D02*
X156354819Y-91896428D01*
X156354819Y-91896428D02*
X157354819Y-92467856D01*
X157354819Y-92467856D02*
X156354819Y-92467856D01*
X156354819Y-92801190D02*
X156354819Y-93372618D01*
X157354819Y-93086904D02*
X156354819Y-93086904D01*
X168072080Y-94233333D02*
X168119700Y-94185714D01*
X168119700Y-94185714D02*
X168167319Y-94042857D01*
X168167319Y-94042857D02*
X168167319Y-93947619D01*
X168167319Y-93947619D02*
X168119700Y-93804762D01*
X168119700Y-93804762D02*
X168024461Y-93709524D01*
X168024461Y-93709524D02*
X167929223Y-93661905D01*
X167929223Y-93661905D02*
X167738747Y-93614286D01*
X167738747Y-93614286D02*
X167595890Y-93614286D01*
X167595890Y-93614286D02*
X167405414Y-93661905D01*
X167405414Y-93661905D02*
X167310176Y-93709524D01*
X167310176Y-93709524D02*
X167214938Y-93804762D01*
X167214938Y-93804762D02*
X167167319Y-93947619D01*
X167167319Y-93947619D02*
X167167319Y-94042857D01*
X167167319Y-94042857D02*
X167214938Y-94185714D01*
X167214938Y-94185714D02*
X167262557Y-94233333D01*
X168167319Y-95185714D02*
X168167319Y-94614286D01*
X168167319Y-94900000D02*
X167167319Y-94900000D01*
X167167319Y-94900000D02*
X167310176Y-94804762D01*
X167310176Y-94804762D02*
X167405414Y-94709524D01*
X167405414Y-94709524D02*
X167453033Y-94614286D01*
X160263819Y-55761905D02*
X159263819Y-55761905D01*
X159263819Y-55761905D02*
X159263819Y-56000000D01*
X159263819Y-56000000D02*
X159311438Y-56142857D01*
X159311438Y-56142857D02*
X159406676Y-56238095D01*
X159406676Y-56238095D02*
X159501914Y-56285714D01*
X159501914Y-56285714D02*
X159692390Y-56333333D01*
X159692390Y-56333333D02*
X159835247Y-56333333D01*
X159835247Y-56333333D02*
X160025723Y-56285714D01*
X160025723Y-56285714D02*
X160120961Y-56238095D01*
X160120961Y-56238095D02*
X160216200Y-56142857D01*
X160216200Y-56142857D02*
X160263819Y-56000000D01*
X160263819Y-56000000D02*
X160263819Y-55761905D01*
X159359057Y-56714286D02*
X159311438Y-56761905D01*
X159311438Y-56761905D02*
X159263819Y-56857143D01*
X159263819Y-56857143D02*
X159263819Y-57095238D01*
X159263819Y-57095238D02*
X159311438Y-57190476D01*
X159311438Y-57190476D02*
X159359057Y-57238095D01*
X159359057Y-57238095D02*
X159454295Y-57285714D01*
X159454295Y-57285714D02*
X159549533Y-57285714D01*
X159549533Y-57285714D02*
X159692390Y-57238095D01*
X159692390Y-57238095D02*
X160263819Y-56666667D01*
X160263819Y-56666667D02*
X160263819Y-57285714D01*
X170279819Y-65761905D02*
X169279819Y-65761905D01*
X169279819Y-65761905D02*
X169279819Y-66000000D01*
X169279819Y-66000000D02*
X169327438Y-66142857D01*
X169327438Y-66142857D02*
X169422676Y-66238095D01*
X169422676Y-66238095D02*
X169517914Y-66285714D01*
X169517914Y-66285714D02*
X169708390Y-66333333D01*
X169708390Y-66333333D02*
X169851247Y-66333333D01*
X169851247Y-66333333D02*
X170041723Y-66285714D01*
X170041723Y-66285714D02*
X170136961Y-66238095D01*
X170136961Y-66238095D02*
X170232200Y-66142857D01*
X170232200Y-66142857D02*
X170279819Y-66000000D01*
X170279819Y-66000000D02*
X170279819Y-65761905D01*
X169279819Y-66666667D02*
X169279819Y-67333333D01*
X169279819Y-67333333D02*
X170279819Y-66904762D01*
X176044104Y-87510714D02*
X176044104Y-87986904D01*
X176329819Y-87415476D02*
X175329819Y-87748809D01*
X175329819Y-87748809D02*
X176329819Y-88082142D01*
X175425057Y-88367857D02*
X175377438Y-88415476D01*
X175377438Y-88415476D02*
X175329819Y-88510714D01*
X175329819Y-88510714D02*
X175329819Y-88748809D01*
X175329819Y-88748809D02*
X175377438Y-88844047D01*
X175377438Y-88844047D02*
X175425057Y-88891666D01*
X175425057Y-88891666D02*
X175520295Y-88939285D01*
X175520295Y-88939285D02*
X175615533Y-88939285D01*
X175615533Y-88939285D02*
X175758390Y-88891666D01*
X175758390Y-88891666D02*
X176329819Y-88320238D01*
X176329819Y-88320238D02*
X176329819Y-88939285D01*
X176304819Y-75280514D02*
X175304819Y-75280514D01*
X175304819Y-75280514D02*
X175304819Y-75518609D01*
X175304819Y-75518609D02*
X175352438Y-75661466D01*
X175352438Y-75661466D02*
X175447676Y-75756704D01*
X175447676Y-75756704D02*
X175542914Y-75804323D01*
X175542914Y-75804323D02*
X175733390Y-75851942D01*
X175733390Y-75851942D02*
X175876247Y-75851942D01*
X175876247Y-75851942D02*
X176066723Y-75804323D01*
X176066723Y-75804323D02*
X176161961Y-75756704D01*
X176161961Y-75756704D02*
X176257200Y-75661466D01*
X176257200Y-75661466D02*
X176304819Y-75518609D01*
X176304819Y-75518609D02*
X176304819Y-75280514D01*
X176304819Y-76804323D02*
X176304819Y-76232895D01*
X176304819Y-76518609D02*
X175304819Y-76518609D01*
X175304819Y-76518609D02*
X175447676Y-76423371D01*
X175447676Y-76423371D02*
X175542914Y-76328133D01*
X175542914Y-76328133D02*
X175590533Y-76232895D01*
X175304819Y-77709085D02*
X175304819Y-77232895D01*
X175304819Y-77232895D02*
X175781009Y-77185276D01*
X175781009Y-77185276D02*
X175733390Y-77232895D01*
X175733390Y-77232895D02*
X175685771Y-77328133D01*
X175685771Y-77328133D02*
X175685771Y-77566228D01*
X175685771Y-77566228D02*
X175733390Y-77661466D01*
X175733390Y-77661466D02*
X175781009Y-77709085D01*
X175781009Y-77709085D02*
X175876247Y-77756704D01*
X175876247Y-77756704D02*
X176114342Y-77756704D01*
X176114342Y-77756704D02*
X176209580Y-77709085D01*
X176209580Y-77709085D02*
X176257200Y-77661466D01*
X176257200Y-77661466D02*
X176304819Y-77566228D01*
X176304819Y-77566228D02*
X176304819Y-77328133D01*
X176304819Y-77328133D02*
X176257200Y-77232895D01*
X176257200Y-77232895D02*
X176209580Y-77185276D01*
X170279819Y-55761905D02*
X169279819Y-55761905D01*
X169279819Y-55761905D02*
X169279819Y-56000000D01*
X169279819Y-56000000D02*
X169327438Y-56142857D01*
X169327438Y-56142857D02*
X169422676Y-56238095D01*
X169422676Y-56238095D02*
X169517914Y-56285714D01*
X169517914Y-56285714D02*
X169708390Y-56333333D01*
X169708390Y-56333333D02*
X169851247Y-56333333D01*
X169851247Y-56333333D02*
X170041723Y-56285714D01*
X170041723Y-56285714D02*
X170136961Y-56238095D01*
X170136961Y-56238095D02*
X170232200Y-56142857D01*
X170232200Y-56142857D02*
X170279819Y-56000000D01*
X170279819Y-56000000D02*
X170279819Y-55761905D01*
X169279819Y-57190476D02*
X169279819Y-57000000D01*
X169279819Y-57000000D02*
X169327438Y-56904762D01*
X169327438Y-56904762D02*
X169375057Y-56857143D01*
X169375057Y-56857143D02*
X169517914Y-56761905D01*
X169517914Y-56761905D02*
X169708390Y-56714286D01*
X169708390Y-56714286D02*
X170089342Y-56714286D01*
X170089342Y-56714286D02*
X170184580Y-56761905D01*
X170184580Y-56761905D02*
X170232200Y-56809524D01*
X170232200Y-56809524D02*
X170279819Y-56904762D01*
X170279819Y-56904762D02*
X170279819Y-57095238D01*
X170279819Y-57095238D02*
X170232200Y-57190476D01*
X170232200Y-57190476D02*
X170184580Y-57238095D01*
X170184580Y-57238095D02*
X170089342Y-57285714D01*
X170089342Y-57285714D02*
X169851247Y-57285714D01*
X169851247Y-57285714D02*
X169756009Y-57238095D01*
X169756009Y-57238095D02*
X169708390Y-57190476D01*
X169708390Y-57190476D02*
X169660771Y-57095238D01*
X169660771Y-57095238D02*
X169660771Y-56904762D01*
X169660771Y-56904762D02*
X169708390Y-56809524D01*
X169708390Y-56809524D02*
X169756009Y-56761905D01*
X169756009Y-56761905D02*
X169851247Y-56714286D01*
X176044104Y-80810714D02*
X176044104Y-81286904D01*
X176329819Y-80715476D02*
X175329819Y-81048809D01*
X175329819Y-81048809D02*
X176329819Y-81382142D01*
X175329819Y-81905952D02*
X175329819Y-82001190D01*
X175329819Y-82001190D02*
X175377438Y-82096428D01*
X175377438Y-82096428D02*
X175425057Y-82144047D01*
X175425057Y-82144047D02*
X175520295Y-82191666D01*
X175520295Y-82191666D02*
X175710771Y-82239285D01*
X175710771Y-82239285D02*
X175948866Y-82239285D01*
X175948866Y-82239285D02*
X176139342Y-82191666D01*
X176139342Y-82191666D02*
X176234580Y-82144047D01*
X176234580Y-82144047D02*
X176282200Y-82096428D01*
X176282200Y-82096428D02*
X176329819Y-82001190D01*
X176329819Y-82001190D02*
X176329819Y-81905952D01*
X176329819Y-81905952D02*
X176282200Y-81810714D01*
X176282200Y-81810714D02*
X176234580Y-81763095D01*
X176234580Y-81763095D02*
X176139342Y-81715476D01*
X176139342Y-81715476D02*
X175948866Y-81667857D01*
X175948866Y-81667857D02*
X175710771Y-81667857D01*
X175710771Y-81667857D02*
X175520295Y-81715476D01*
X175520295Y-81715476D02*
X175425057Y-81763095D01*
X175425057Y-81763095D02*
X175377438Y-81810714D01*
X175377438Y-81810714D02*
X175329819Y-81905952D01*
X168109580Y-96283333D02*
X168157200Y-96235714D01*
X168157200Y-96235714D02*
X168204819Y-96092857D01*
X168204819Y-96092857D02*
X168204819Y-95997619D01*
X168204819Y-95997619D02*
X168157200Y-95854762D01*
X168157200Y-95854762D02*
X168061961Y-95759524D01*
X168061961Y-95759524D02*
X167966723Y-95711905D01*
X167966723Y-95711905D02*
X167776247Y-95664286D01*
X167776247Y-95664286D02*
X167633390Y-95664286D01*
X167633390Y-95664286D02*
X167442914Y-95711905D01*
X167442914Y-95711905D02*
X167347676Y-95759524D01*
X167347676Y-95759524D02*
X167252438Y-95854762D01*
X167252438Y-95854762D02*
X167204819Y-95997619D01*
X167204819Y-95997619D02*
X167204819Y-96092857D01*
X167204819Y-96092857D02*
X167252438Y-96235714D01*
X167252438Y-96235714D02*
X167300057Y-96283333D01*
X167300057Y-96664286D02*
X167252438Y-96711905D01*
X167252438Y-96711905D02*
X167204819Y-96807143D01*
X167204819Y-96807143D02*
X167204819Y-97045238D01*
X167204819Y-97045238D02*
X167252438Y-97140476D01*
X167252438Y-97140476D02*
X167300057Y-97188095D01*
X167300057Y-97188095D02*
X167395295Y-97235714D01*
X167395295Y-97235714D02*
X167490533Y-97235714D01*
X167490533Y-97235714D02*
X167633390Y-97188095D01*
X167633390Y-97188095D02*
X168204819Y-96616667D01*
X168204819Y-96616667D02*
X168204819Y-97235714D01*
X158416666Y-80467319D02*
X158749999Y-79991128D01*
X158988094Y-80467319D02*
X158988094Y-79467319D01*
X158988094Y-79467319D02*
X158607142Y-79467319D01*
X158607142Y-79467319D02*
X158511904Y-79514938D01*
X158511904Y-79514938D02*
X158464285Y-79562557D01*
X158464285Y-79562557D02*
X158416666Y-79657795D01*
X158416666Y-79657795D02*
X158416666Y-79800652D01*
X158416666Y-79800652D02*
X158464285Y-79895890D01*
X158464285Y-79895890D02*
X158511904Y-79943509D01*
X158511904Y-79943509D02*
X158607142Y-79991128D01*
X158607142Y-79991128D02*
X158988094Y-79991128D01*
X157464285Y-80467319D02*
X158035713Y-80467319D01*
X157749999Y-80467319D02*
X157749999Y-79467319D01*
X157749999Y-79467319D02*
X157845237Y-79610176D01*
X157845237Y-79610176D02*
X157940475Y-79705414D01*
X157940475Y-79705414D02*
X158035713Y-79753033D01*
X180204819Y-94335714D02*
X179204819Y-94335714D01*
X179204819Y-94335714D02*
X179204819Y-94573809D01*
X179204819Y-94573809D02*
X179252438Y-94716666D01*
X179252438Y-94716666D02*
X179347676Y-94811904D01*
X179347676Y-94811904D02*
X179442914Y-94859523D01*
X179442914Y-94859523D02*
X179633390Y-94907142D01*
X179633390Y-94907142D02*
X179776247Y-94907142D01*
X179776247Y-94907142D02*
X179966723Y-94859523D01*
X179966723Y-94859523D02*
X180061961Y-94811904D01*
X180061961Y-94811904D02*
X180157200Y-94716666D01*
X180157200Y-94716666D02*
X180204819Y-94573809D01*
X180204819Y-94573809D02*
X180204819Y-94335714D01*
X180204819Y-95859523D02*
X180204819Y-95288095D01*
X180204819Y-95573809D02*
X179204819Y-95573809D01*
X179204819Y-95573809D02*
X179347676Y-95478571D01*
X179347676Y-95478571D02*
X179442914Y-95383333D01*
X179442914Y-95383333D02*
X179490533Y-95288095D01*
X179204819Y-96716666D02*
X179204819Y-96526190D01*
X179204819Y-96526190D02*
X179252438Y-96430952D01*
X179252438Y-96430952D02*
X179300057Y-96383333D01*
X179300057Y-96383333D02*
X179442914Y-96288095D01*
X179442914Y-96288095D02*
X179633390Y-96240476D01*
X179633390Y-96240476D02*
X180014342Y-96240476D01*
X180014342Y-96240476D02*
X180109580Y-96288095D01*
X180109580Y-96288095D02*
X180157200Y-96335714D01*
X180157200Y-96335714D02*
X180204819Y-96430952D01*
X180204819Y-96430952D02*
X180204819Y-96621428D01*
X180204819Y-96621428D02*
X180157200Y-96716666D01*
X180157200Y-96716666D02*
X180109580Y-96764285D01*
X180109580Y-96764285D02*
X180014342Y-96811904D01*
X180014342Y-96811904D02*
X179776247Y-96811904D01*
X179776247Y-96811904D02*
X179681009Y-96764285D01*
X179681009Y-96764285D02*
X179633390Y-96716666D01*
X179633390Y-96716666D02*
X179585771Y-96621428D01*
X179585771Y-96621428D02*
X179585771Y-96430952D01*
X179585771Y-96430952D02*
X179633390Y-96335714D01*
X179633390Y-96335714D02*
X179681009Y-96288095D01*
X179681009Y-96288095D02*
X179776247Y-96240476D01*
X181766666Y-86747319D02*
X182099999Y-86271128D01*
X182338094Y-86747319D02*
X182338094Y-85747319D01*
X182338094Y-85747319D02*
X181957142Y-85747319D01*
X181957142Y-85747319D02*
X181861904Y-85794938D01*
X181861904Y-85794938D02*
X181814285Y-85842557D01*
X181814285Y-85842557D02*
X181766666Y-85937795D01*
X181766666Y-85937795D02*
X181766666Y-86080652D01*
X181766666Y-86080652D02*
X181814285Y-86175890D01*
X181814285Y-86175890D02*
X181861904Y-86223509D01*
X181861904Y-86223509D02*
X181957142Y-86271128D01*
X181957142Y-86271128D02*
X182338094Y-86271128D01*
X180909523Y-86080652D02*
X180909523Y-86747319D01*
X181147618Y-85699700D02*
X181385713Y-86413985D01*
X181385713Y-86413985D02*
X180766666Y-86413985D01*
X181766666Y-90109819D02*
X182099999Y-89633628D01*
X182338094Y-90109819D02*
X182338094Y-89109819D01*
X182338094Y-89109819D02*
X181957142Y-89109819D01*
X181957142Y-89109819D02*
X181861904Y-89157438D01*
X181861904Y-89157438D02*
X181814285Y-89205057D01*
X181814285Y-89205057D02*
X181766666Y-89300295D01*
X181766666Y-89300295D02*
X181766666Y-89443152D01*
X181766666Y-89443152D02*
X181814285Y-89538390D01*
X181814285Y-89538390D02*
X181861904Y-89586009D01*
X181861904Y-89586009D02*
X181957142Y-89633628D01*
X181957142Y-89633628D02*
X182338094Y-89633628D01*
X180861904Y-89109819D02*
X181338094Y-89109819D01*
X181338094Y-89109819D02*
X181385713Y-89586009D01*
X181385713Y-89586009D02*
X181338094Y-89538390D01*
X181338094Y-89538390D02*
X181242856Y-89490771D01*
X181242856Y-89490771D02*
X181004761Y-89490771D01*
X181004761Y-89490771D02*
X180909523Y-89538390D01*
X180909523Y-89538390D02*
X180861904Y-89586009D01*
X180861904Y-89586009D02*
X180814285Y-89681247D01*
X180814285Y-89681247D02*
X180814285Y-89919342D01*
X180814285Y-89919342D02*
X180861904Y-90014580D01*
X180861904Y-90014580D02*
X180909523Y-90062200D01*
X180909523Y-90062200D02*
X181004761Y-90109819D01*
X181004761Y-90109819D02*
X181242856Y-90109819D01*
X181242856Y-90109819D02*
X181338094Y-90062200D01*
X181338094Y-90062200D02*
X181385713Y-90014580D01*
X180304819Y-55280514D02*
X179304819Y-55280514D01*
X179304819Y-55280514D02*
X179304819Y-55518609D01*
X179304819Y-55518609D02*
X179352438Y-55661466D01*
X179352438Y-55661466D02*
X179447676Y-55756704D01*
X179447676Y-55756704D02*
X179542914Y-55804323D01*
X179542914Y-55804323D02*
X179733390Y-55851942D01*
X179733390Y-55851942D02*
X179876247Y-55851942D01*
X179876247Y-55851942D02*
X180066723Y-55804323D01*
X180066723Y-55804323D02*
X180161961Y-55756704D01*
X180161961Y-55756704D02*
X180257200Y-55661466D01*
X180257200Y-55661466D02*
X180304819Y-55518609D01*
X180304819Y-55518609D02*
X180304819Y-55280514D01*
X180304819Y-56804323D02*
X180304819Y-56232895D01*
X180304819Y-56518609D02*
X179304819Y-56518609D01*
X179304819Y-56518609D02*
X179447676Y-56423371D01*
X179447676Y-56423371D02*
X179542914Y-56328133D01*
X179542914Y-56328133D02*
X179590533Y-56232895D01*
X179304819Y-57423371D02*
X179304819Y-57518609D01*
X179304819Y-57518609D02*
X179352438Y-57613847D01*
X179352438Y-57613847D02*
X179400057Y-57661466D01*
X179400057Y-57661466D02*
X179495295Y-57709085D01*
X179495295Y-57709085D02*
X179685771Y-57756704D01*
X179685771Y-57756704D02*
X179923866Y-57756704D01*
X179923866Y-57756704D02*
X180114342Y-57709085D01*
X180114342Y-57709085D02*
X180209580Y-57661466D01*
X180209580Y-57661466D02*
X180257200Y-57613847D01*
X180257200Y-57613847D02*
X180304819Y-57518609D01*
X180304819Y-57518609D02*
X180304819Y-57423371D01*
X180304819Y-57423371D02*
X180257200Y-57328133D01*
X180257200Y-57328133D02*
X180209580Y-57280514D01*
X180209580Y-57280514D02*
X180114342Y-57232895D01*
X180114342Y-57232895D02*
X179923866Y-57185276D01*
X179923866Y-57185276D02*
X179685771Y-57185276D01*
X179685771Y-57185276D02*
X179495295Y-57232895D01*
X179495295Y-57232895D02*
X179400057Y-57280514D01*
X179400057Y-57280514D02*
X179352438Y-57328133D01*
X179352438Y-57328133D02*
X179304819Y-57423371D01*
X174454819Y-45611905D02*
X173454819Y-45611905D01*
X173454819Y-45611905D02*
X173454819Y-45850000D01*
X173454819Y-45850000D02*
X173502438Y-45992857D01*
X173502438Y-45992857D02*
X173597676Y-46088095D01*
X173597676Y-46088095D02*
X173692914Y-46135714D01*
X173692914Y-46135714D02*
X173883390Y-46183333D01*
X173883390Y-46183333D02*
X174026247Y-46183333D01*
X174026247Y-46183333D02*
X174216723Y-46135714D01*
X174216723Y-46135714D02*
X174311961Y-46088095D01*
X174311961Y-46088095D02*
X174407200Y-45992857D01*
X174407200Y-45992857D02*
X174454819Y-45850000D01*
X174454819Y-45850000D02*
X174454819Y-45611905D01*
X174454819Y-46659524D02*
X174454819Y-46850000D01*
X174454819Y-46850000D02*
X174407200Y-46945238D01*
X174407200Y-46945238D02*
X174359580Y-46992857D01*
X174359580Y-46992857D02*
X174216723Y-47088095D01*
X174216723Y-47088095D02*
X174026247Y-47135714D01*
X174026247Y-47135714D02*
X173645295Y-47135714D01*
X173645295Y-47135714D02*
X173550057Y-47088095D01*
X173550057Y-47088095D02*
X173502438Y-47040476D01*
X173502438Y-47040476D02*
X173454819Y-46945238D01*
X173454819Y-46945238D02*
X173454819Y-46754762D01*
X173454819Y-46754762D02*
X173502438Y-46659524D01*
X173502438Y-46659524D02*
X173550057Y-46611905D01*
X173550057Y-46611905D02*
X173645295Y-46564286D01*
X173645295Y-46564286D02*
X173883390Y-46564286D01*
X173883390Y-46564286D02*
X173978628Y-46611905D01*
X173978628Y-46611905D02*
X174026247Y-46659524D01*
X174026247Y-46659524D02*
X174073866Y-46754762D01*
X174073866Y-46754762D02*
X174073866Y-46945238D01*
X174073866Y-46945238D02*
X174026247Y-47040476D01*
X174026247Y-47040476D02*
X173978628Y-47088095D01*
X173978628Y-47088095D02*
X173883390Y-47135714D01*
X182954819Y-45135714D02*
X181954819Y-45135714D01*
X181954819Y-45135714D02*
X181954819Y-45373809D01*
X181954819Y-45373809D02*
X182002438Y-45516666D01*
X182002438Y-45516666D02*
X182097676Y-45611904D01*
X182097676Y-45611904D02*
X182192914Y-45659523D01*
X182192914Y-45659523D02*
X182383390Y-45707142D01*
X182383390Y-45707142D02*
X182526247Y-45707142D01*
X182526247Y-45707142D02*
X182716723Y-45659523D01*
X182716723Y-45659523D02*
X182811961Y-45611904D01*
X182811961Y-45611904D02*
X182907200Y-45516666D01*
X182907200Y-45516666D02*
X182954819Y-45373809D01*
X182954819Y-45373809D02*
X182954819Y-45135714D01*
X182954819Y-46659523D02*
X182954819Y-46088095D01*
X182954819Y-46373809D02*
X181954819Y-46373809D01*
X181954819Y-46373809D02*
X182097676Y-46278571D01*
X182097676Y-46278571D02*
X182192914Y-46183333D01*
X182192914Y-46183333D02*
X182240533Y-46088095D01*
X181954819Y-46992857D02*
X181954819Y-47611904D01*
X181954819Y-47611904D02*
X182335771Y-47278571D01*
X182335771Y-47278571D02*
X182335771Y-47421428D01*
X182335771Y-47421428D02*
X182383390Y-47516666D01*
X182383390Y-47516666D02*
X182431009Y-47564285D01*
X182431009Y-47564285D02*
X182526247Y-47611904D01*
X182526247Y-47611904D02*
X182764342Y-47611904D01*
X182764342Y-47611904D02*
X182859580Y-47564285D01*
X182859580Y-47564285D02*
X182907200Y-47516666D01*
X182907200Y-47516666D02*
X182954819Y-47421428D01*
X182954819Y-47421428D02*
X182954819Y-47135714D01*
X182954819Y-47135714D02*
X182907200Y-47040476D01*
X182907200Y-47040476D02*
X182859580Y-46992857D01*
X157454819Y-45611905D02*
X156454819Y-45611905D01*
X156454819Y-45611905D02*
X156454819Y-45850000D01*
X156454819Y-45850000D02*
X156502438Y-45992857D01*
X156502438Y-45992857D02*
X156597676Y-46088095D01*
X156597676Y-46088095D02*
X156692914Y-46135714D01*
X156692914Y-46135714D02*
X156883390Y-46183333D01*
X156883390Y-46183333D02*
X157026247Y-46183333D01*
X157026247Y-46183333D02*
X157216723Y-46135714D01*
X157216723Y-46135714D02*
X157311961Y-46088095D01*
X157311961Y-46088095D02*
X157407200Y-45992857D01*
X157407200Y-45992857D02*
X157454819Y-45850000D01*
X157454819Y-45850000D02*
X157454819Y-45611905D01*
X157454819Y-47135714D02*
X157454819Y-46564286D01*
X157454819Y-46850000D02*
X156454819Y-46850000D01*
X156454819Y-46850000D02*
X156597676Y-46754762D01*
X156597676Y-46754762D02*
X156692914Y-46659524D01*
X156692914Y-46659524D02*
X156740533Y-46564286D01*
X160254819Y-75761905D02*
X159254819Y-75761905D01*
X159254819Y-75761905D02*
X159254819Y-76000000D01*
X159254819Y-76000000D02*
X159302438Y-76142857D01*
X159302438Y-76142857D02*
X159397676Y-76238095D01*
X159397676Y-76238095D02*
X159492914Y-76285714D01*
X159492914Y-76285714D02*
X159683390Y-76333333D01*
X159683390Y-76333333D02*
X159826247Y-76333333D01*
X159826247Y-76333333D02*
X160016723Y-76285714D01*
X160016723Y-76285714D02*
X160111961Y-76238095D01*
X160111961Y-76238095D02*
X160207200Y-76142857D01*
X160207200Y-76142857D02*
X160254819Y-76000000D01*
X160254819Y-76000000D02*
X160254819Y-75761905D01*
X159588152Y-77190476D02*
X160254819Y-77190476D01*
X159207200Y-76952381D02*
X159921485Y-76714286D01*
X159921485Y-76714286D02*
X159921485Y-77333333D01*
X160263819Y-65761905D02*
X159263819Y-65761905D01*
X159263819Y-65761905D02*
X159263819Y-66000000D01*
X159263819Y-66000000D02*
X159311438Y-66142857D01*
X159311438Y-66142857D02*
X159406676Y-66238095D01*
X159406676Y-66238095D02*
X159501914Y-66285714D01*
X159501914Y-66285714D02*
X159692390Y-66333333D01*
X159692390Y-66333333D02*
X159835247Y-66333333D01*
X159835247Y-66333333D02*
X160025723Y-66285714D01*
X160025723Y-66285714D02*
X160120961Y-66238095D01*
X160120961Y-66238095D02*
X160216200Y-66142857D01*
X160216200Y-66142857D02*
X160263819Y-66000000D01*
X160263819Y-66000000D02*
X160263819Y-65761905D01*
X159263819Y-66666667D02*
X159263819Y-67285714D01*
X159263819Y-67285714D02*
X159644771Y-66952381D01*
X159644771Y-66952381D02*
X159644771Y-67095238D01*
X159644771Y-67095238D02*
X159692390Y-67190476D01*
X159692390Y-67190476D02*
X159740009Y-67238095D01*
X159740009Y-67238095D02*
X159835247Y-67285714D01*
X159835247Y-67285714D02*
X160073342Y-67285714D01*
X160073342Y-67285714D02*
X160168580Y-67238095D01*
X160168580Y-67238095D02*
X160216200Y-67190476D01*
X160216200Y-67190476D02*
X160263819Y-67095238D01*
X160263819Y-67095238D02*
X160263819Y-66809524D01*
X160263819Y-66809524D02*
X160216200Y-66714286D01*
X160216200Y-66714286D02*
X160168580Y-66666667D01*
X151333333Y-76754819D02*
X151333333Y-77469104D01*
X151333333Y-77469104D02*
X151380952Y-77611961D01*
X151380952Y-77611961D02*
X151476190Y-77707200D01*
X151476190Y-77707200D02*
X151619047Y-77754819D01*
X151619047Y-77754819D02*
X151714285Y-77754819D01*
X150904761Y-76850057D02*
X150857142Y-76802438D01*
X150857142Y-76802438D02*
X150761904Y-76754819D01*
X150761904Y-76754819D02*
X150523809Y-76754819D01*
X150523809Y-76754819D02*
X150428571Y-76802438D01*
X150428571Y-76802438D02*
X150380952Y-76850057D01*
X150380952Y-76850057D02*
X150333333Y-76945295D01*
X150333333Y-76945295D02*
X150333333Y-77040533D01*
X150333333Y-77040533D02*
X150380952Y-77183390D01*
X150380952Y-77183390D02*
X150952380Y-77754819D01*
X150952380Y-77754819D02*
X150333333Y-77754819D01*
X184833333Y-76654819D02*
X184833333Y-77369104D01*
X184833333Y-77369104D02*
X184880952Y-77511961D01*
X184880952Y-77511961D02*
X184976190Y-77607200D01*
X184976190Y-77607200D02*
X185119047Y-77654819D01*
X185119047Y-77654819D02*
X185214285Y-77654819D01*
X183833333Y-77654819D02*
X184404761Y-77654819D01*
X184119047Y-77654819D02*
X184119047Y-76654819D01*
X184119047Y-76654819D02*
X184214285Y-76797676D01*
X184214285Y-76797676D02*
X184309523Y-76892914D01*
X184309523Y-76892914D02*
X184404761Y-76940533D01*
X181766666Y-83384819D02*
X182099999Y-82908628D01*
X182338094Y-83384819D02*
X182338094Y-82384819D01*
X182338094Y-82384819D02*
X181957142Y-82384819D01*
X181957142Y-82384819D02*
X181861904Y-82432438D01*
X181861904Y-82432438D02*
X181814285Y-82480057D01*
X181814285Y-82480057D02*
X181766666Y-82575295D01*
X181766666Y-82575295D02*
X181766666Y-82718152D01*
X181766666Y-82718152D02*
X181814285Y-82813390D01*
X181814285Y-82813390D02*
X181861904Y-82861009D01*
X181861904Y-82861009D02*
X181957142Y-82908628D01*
X181957142Y-82908628D02*
X182338094Y-82908628D01*
X181433332Y-82384819D02*
X180814285Y-82384819D01*
X180814285Y-82384819D02*
X181147618Y-82765771D01*
X181147618Y-82765771D02*
X181004761Y-82765771D01*
X181004761Y-82765771D02*
X180909523Y-82813390D01*
X180909523Y-82813390D02*
X180861904Y-82861009D01*
X180861904Y-82861009D02*
X180814285Y-82956247D01*
X180814285Y-82956247D02*
X180814285Y-83194342D01*
X180814285Y-83194342D02*
X180861904Y-83289580D01*
X180861904Y-83289580D02*
X180909523Y-83337200D01*
X180909523Y-83337200D02*
X181004761Y-83384819D01*
X181004761Y-83384819D02*
X181290475Y-83384819D01*
X181290475Y-83384819D02*
X181385713Y-83337200D01*
X181385713Y-83337200D02*
X181433332Y-83289580D01*
X155941666Y-80467319D02*
X156274999Y-79991128D01*
X156513094Y-80467319D02*
X156513094Y-79467319D01*
X156513094Y-79467319D02*
X156132142Y-79467319D01*
X156132142Y-79467319D02*
X156036904Y-79514938D01*
X156036904Y-79514938D02*
X155989285Y-79562557D01*
X155989285Y-79562557D02*
X155941666Y-79657795D01*
X155941666Y-79657795D02*
X155941666Y-79800652D01*
X155941666Y-79800652D02*
X155989285Y-79895890D01*
X155989285Y-79895890D02*
X156036904Y-79943509D01*
X156036904Y-79943509D02*
X156132142Y-79991128D01*
X156132142Y-79991128D02*
X156513094Y-79991128D01*
X155560713Y-79562557D02*
X155513094Y-79514938D01*
X155513094Y-79514938D02*
X155417856Y-79467319D01*
X155417856Y-79467319D02*
X155179761Y-79467319D01*
X155179761Y-79467319D02*
X155084523Y-79514938D01*
X155084523Y-79514938D02*
X155036904Y-79562557D01*
X155036904Y-79562557D02*
X154989285Y-79657795D01*
X154989285Y-79657795D02*
X154989285Y-79753033D01*
X154989285Y-79753033D02*
X155036904Y-79895890D01*
X155036904Y-79895890D02*
X155608332Y-80467319D01*
X155608332Y-80467319D02*
X154989285Y-80467319D01*
X163304819Y-94360714D02*
X162304819Y-94360714D01*
X162304819Y-94360714D02*
X162304819Y-94598809D01*
X162304819Y-94598809D02*
X162352438Y-94741666D01*
X162352438Y-94741666D02*
X162447676Y-94836904D01*
X162447676Y-94836904D02*
X162542914Y-94884523D01*
X162542914Y-94884523D02*
X162733390Y-94932142D01*
X162733390Y-94932142D02*
X162876247Y-94932142D01*
X162876247Y-94932142D02*
X163066723Y-94884523D01*
X163066723Y-94884523D02*
X163161961Y-94836904D01*
X163161961Y-94836904D02*
X163257200Y-94741666D01*
X163257200Y-94741666D02*
X163304819Y-94598809D01*
X163304819Y-94598809D02*
X163304819Y-94360714D01*
X163304819Y-95884523D02*
X163304819Y-95313095D01*
X163304819Y-95598809D02*
X162304819Y-95598809D01*
X162304819Y-95598809D02*
X162447676Y-95503571D01*
X162447676Y-95503571D02*
X162542914Y-95408333D01*
X162542914Y-95408333D02*
X162590533Y-95313095D01*
X162400057Y-96265476D02*
X162352438Y-96313095D01*
X162352438Y-96313095D02*
X162304819Y-96408333D01*
X162304819Y-96408333D02*
X162304819Y-96646428D01*
X162304819Y-96646428D02*
X162352438Y-96741666D01*
X162352438Y-96741666D02*
X162400057Y-96789285D01*
X162400057Y-96789285D02*
X162495295Y-96836904D01*
X162495295Y-96836904D02*
X162590533Y-96836904D01*
X162590533Y-96836904D02*
X162733390Y-96789285D01*
X162733390Y-96789285D02*
X163304819Y-96217857D01*
X163304819Y-96217857D02*
X163304819Y-96836904D01*
X176044104Y-84160714D02*
X176044104Y-84636904D01*
X176329819Y-84065476D02*
X175329819Y-84398809D01*
X175329819Y-84398809D02*
X176329819Y-84732142D01*
X176329819Y-85589285D02*
X176329819Y-85017857D01*
X176329819Y-85303571D02*
X175329819Y-85303571D01*
X175329819Y-85303571D02*
X175472676Y-85208333D01*
X175472676Y-85208333D02*
X175567914Y-85113095D01*
X175567914Y-85113095D02*
X175615533Y-85017857D01*
X165954819Y-45611905D02*
X164954819Y-45611905D01*
X164954819Y-45611905D02*
X164954819Y-45850000D01*
X164954819Y-45850000D02*
X165002438Y-45992857D01*
X165002438Y-45992857D02*
X165097676Y-46088095D01*
X165097676Y-46088095D02*
X165192914Y-46135714D01*
X165192914Y-46135714D02*
X165383390Y-46183333D01*
X165383390Y-46183333D02*
X165526247Y-46183333D01*
X165526247Y-46183333D02*
X165716723Y-46135714D01*
X165716723Y-46135714D02*
X165811961Y-46088095D01*
X165811961Y-46088095D02*
X165907200Y-45992857D01*
X165907200Y-45992857D02*
X165954819Y-45850000D01*
X165954819Y-45850000D02*
X165954819Y-45611905D01*
X164954819Y-47088095D02*
X164954819Y-46611905D01*
X164954819Y-46611905D02*
X165431009Y-46564286D01*
X165431009Y-46564286D02*
X165383390Y-46611905D01*
X165383390Y-46611905D02*
X165335771Y-46707143D01*
X165335771Y-46707143D02*
X165335771Y-46945238D01*
X165335771Y-46945238D02*
X165383390Y-47040476D01*
X165383390Y-47040476D02*
X165431009Y-47088095D01*
X165431009Y-47088095D02*
X165526247Y-47135714D01*
X165526247Y-47135714D02*
X165764342Y-47135714D01*
X165764342Y-47135714D02*
X165859580Y-47088095D01*
X165859580Y-47088095D02*
X165907200Y-47040476D01*
X165907200Y-47040476D02*
X165954819Y-46945238D01*
X165954819Y-46945238D02*
X165954819Y-46707143D01*
X165954819Y-46707143D02*
X165907200Y-46611905D01*
X165907200Y-46611905D02*
X165859580Y-46564286D01*
X166279819Y-75285714D02*
X165279819Y-75285714D01*
X165279819Y-75285714D02*
X165279819Y-75523809D01*
X165279819Y-75523809D02*
X165327438Y-75666666D01*
X165327438Y-75666666D02*
X165422676Y-75761904D01*
X165422676Y-75761904D02*
X165517914Y-75809523D01*
X165517914Y-75809523D02*
X165708390Y-75857142D01*
X165708390Y-75857142D02*
X165851247Y-75857142D01*
X165851247Y-75857142D02*
X166041723Y-75809523D01*
X166041723Y-75809523D02*
X166136961Y-75761904D01*
X166136961Y-75761904D02*
X166232200Y-75666666D01*
X166232200Y-75666666D02*
X166279819Y-75523809D01*
X166279819Y-75523809D02*
X166279819Y-75285714D01*
X166279819Y-76809523D02*
X166279819Y-76238095D01*
X166279819Y-76523809D02*
X165279819Y-76523809D01*
X165279819Y-76523809D02*
X165422676Y-76428571D01*
X165422676Y-76428571D02*
X165517914Y-76333333D01*
X165517914Y-76333333D02*
X165565533Y-76238095D01*
X166279819Y-77761904D02*
X166279819Y-77190476D01*
X166279819Y-77476190D02*
X165279819Y-77476190D01*
X165279819Y-77476190D02*
X165422676Y-77380952D01*
X165422676Y-77380952D02*
X165517914Y-77285714D01*
X165517914Y-77285714D02*
X165565533Y-77190476D01*
X156229819Y-87286905D02*
X155229819Y-87286905D01*
X155229819Y-87286905D02*
X155229819Y-87525000D01*
X155229819Y-87525000D02*
X155277438Y-87667857D01*
X155277438Y-87667857D02*
X155372676Y-87763095D01*
X155372676Y-87763095D02*
X155467914Y-87810714D01*
X155467914Y-87810714D02*
X155658390Y-87858333D01*
X155658390Y-87858333D02*
X155801247Y-87858333D01*
X155801247Y-87858333D02*
X155991723Y-87810714D01*
X155991723Y-87810714D02*
X156086961Y-87763095D01*
X156086961Y-87763095D02*
X156182200Y-87667857D01*
X156182200Y-87667857D02*
X156229819Y-87525000D01*
X156229819Y-87525000D02*
X156229819Y-87286905D01*
X155658390Y-88429762D02*
X155610771Y-88334524D01*
X155610771Y-88334524D02*
X155563152Y-88286905D01*
X155563152Y-88286905D02*
X155467914Y-88239286D01*
X155467914Y-88239286D02*
X155420295Y-88239286D01*
X155420295Y-88239286D02*
X155325057Y-88286905D01*
X155325057Y-88286905D02*
X155277438Y-88334524D01*
X155277438Y-88334524D02*
X155229819Y-88429762D01*
X155229819Y-88429762D02*
X155229819Y-88620238D01*
X155229819Y-88620238D02*
X155277438Y-88715476D01*
X155277438Y-88715476D02*
X155325057Y-88763095D01*
X155325057Y-88763095D02*
X155420295Y-88810714D01*
X155420295Y-88810714D02*
X155467914Y-88810714D01*
X155467914Y-88810714D02*
X155563152Y-88763095D01*
X155563152Y-88763095D02*
X155610771Y-88715476D01*
X155610771Y-88715476D02*
X155658390Y-88620238D01*
X155658390Y-88620238D02*
X155658390Y-88429762D01*
X155658390Y-88429762D02*
X155706009Y-88334524D01*
X155706009Y-88334524D02*
X155753628Y-88286905D01*
X155753628Y-88286905D02*
X155848866Y-88239286D01*
X155848866Y-88239286D02*
X156039342Y-88239286D01*
X156039342Y-88239286D02*
X156134580Y-88286905D01*
X156134580Y-88286905D02*
X156182200Y-88334524D01*
X156182200Y-88334524D02*
X156229819Y-88429762D01*
X156229819Y-88429762D02*
X156229819Y-88620238D01*
X156229819Y-88620238D02*
X156182200Y-88715476D01*
X156182200Y-88715476D02*
X156134580Y-88763095D01*
X156134580Y-88763095D02*
X156039342Y-88810714D01*
X156039342Y-88810714D02*
X155848866Y-88810714D01*
X155848866Y-88810714D02*
X155753628Y-88763095D01*
X155753628Y-88763095D02*
X155706009Y-88715476D01*
X155706009Y-88715476D02*
X155658390Y-88620238D01*
X169063094Y-85954819D02*
X169063094Y-86764342D01*
X169063094Y-86764342D02*
X169015475Y-86859580D01*
X169015475Y-86859580D02*
X168967856Y-86907200D01*
X168967856Y-86907200D02*
X168872618Y-86954819D01*
X168872618Y-86954819D02*
X168682142Y-86954819D01*
X168682142Y-86954819D02*
X168586904Y-86907200D01*
X168586904Y-86907200D02*
X168539285Y-86859580D01*
X168539285Y-86859580D02*
X168491666Y-86764342D01*
X168491666Y-86764342D02*
X168491666Y-85954819D01*
X167491666Y-86954819D02*
X168063094Y-86954819D01*
X167777380Y-86954819D02*
X167777380Y-85954819D01*
X167777380Y-85954819D02*
X167872618Y-86097676D01*
X167872618Y-86097676D02*
X167967856Y-86192914D01*
X167967856Y-86192914D02*
X168063094Y-86240533D01*
X167158332Y-85954819D02*
X166491666Y-85954819D01*
X166491666Y-85954819D02*
X166920237Y-86954819D01*
X176304819Y-65280514D02*
X175304819Y-65280514D01*
X175304819Y-65280514D02*
X175304819Y-65518609D01*
X175304819Y-65518609D02*
X175352438Y-65661466D01*
X175352438Y-65661466D02*
X175447676Y-65756704D01*
X175447676Y-65756704D02*
X175542914Y-65804323D01*
X175542914Y-65804323D02*
X175733390Y-65851942D01*
X175733390Y-65851942D02*
X175876247Y-65851942D01*
X175876247Y-65851942D02*
X176066723Y-65804323D01*
X176066723Y-65804323D02*
X176161961Y-65756704D01*
X176161961Y-65756704D02*
X176257200Y-65661466D01*
X176257200Y-65661466D02*
X176304819Y-65518609D01*
X176304819Y-65518609D02*
X176304819Y-65280514D01*
X176304819Y-66804323D02*
X176304819Y-66232895D01*
X176304819Y-66518609D02*
X175304819Y-66518609D01*
X175304819Y-66518609D02*
X175447676Y-66423371D01*
X175447676Y-66423371D02*
X175542914Y-66328133D01*
X175542914Y-66328133D02*
X175590533Y-66232895D01*
X175638152Y-67661466D02*
X176304819Y-67661466D01*
X175257200Y-67423371D02*
X175971485Y-67185276D01*
X175971485Y-67185276D02*
X175971485Y-67804323D01*
D11*
%TO.C,JP4*%
X154000000Y-91625000D02*
X154000000Y-93025000D01*
X154700000Y-93725000D02*
X155300000Y-93725000D01*
X155300000Y-90925000D02*
X154700000Y-90925000D01*
X156000000Y-93025000D02*
X156000000Y-91625000D01*
X154000000Y-91625000D02*
G75*
G02*
X154700000Y-90925000I699999J1D01*
G01*
X154700000Y-93725000D02*
G75*
G02*
X154000000Y-93025000I0J700000D01*
G01*
X155300000Y-90925000D02*
G75*
G02*
X156000000Y-91625000I1J-699999D01*
G01*
X156000000Y-93025000D02*
G75*
G02*
X155300000Y-93725000I-700000J0D01*
G01*
%TO.C,C1*%
X170408767Y-93890000D02*
X170116233Y-93890000D01*
X170408767Y-94910000D02*
X170116233Y-94910000D01*
%TO.C,D2*%
X156809000Y-54850000D02*
X156809000Y-58860000D01*
X156809000Y-58860000D02*
X158809000Y-58860000D01*
X158809000Y-54850000D02*
X158809000Y-58860000D01*
%TO.C,D7*%
X166825000Y-64850000D02*
X166825000Y-68860000D01*
X166825000Y-68860000D02*
X168825000Y-68860000D01*
X168825000Y-64850000D02*
X168825000Y-68860000D01*
%TO.C,JP3*%
X176800000Y-87925000D02*
X176800000Y-88525000D01*
X177500000Y-89225000D02*
X178900000Y-89225000D01*
X178900000Y-87225000D02*
X177500000Y-87225000D01*
X179600000Y-88525000D02*
X179600000Y-87925000D01*
X176800000Y-87925000D02*
G75*
G02*
X177500000Y-87225000I699999J1D01*
G01*
X177500000Y-89225000D02*
G75*
G02*
X176800000Y-88525000I-1J699999D01*
G01*
X178900000Y-87225000D02*
G75*
G02*
X179600000Y-87925000I0J-700000D01*
G01*
X179600000Y-88525000D02*
G75*
G02*
X178900000Y-89225000I-700000J0D01*
G01*
%TO.C,D15*%
X176850000Y-78144800D02*
X176850000Y-74134800D01*
X178850000Y-74134800D02*
X176850000Y-74134800D01*
X178850000Y-78144800D02*
X178850000Y-74134800D01*
%TO.C,D6*%
X166825000Y-54850000D02*
X166825000Y-58860000D01*
X166825000Y-58860000D02*
X168825000Y-58860000D01*
X168825000Y-54850000D02*
X168825000Y-58860000D01*
%TO.C,JP1*%
X176800000Y-81200000D02*
X176800000Y-81800000D01*
X177500000Y-82500000D02*
X178900000Y-82500000D01*
X178900000Y-80500000D02*
X177500000Y-80500000D01*
X179600000Y-81800000D02*
X179600000Y-81200000D01*
X176800000Y-81200000D02*
G75*
G02*
X177500000Y-80500000I699999J1D01*
G01*
X177500000Y-82500000D02*
G75*
G02*
X176800000Y-81800000I-1J699999D01*
G01*
X178900000Y-80500000D02*
G75*
G02*
X179600000Y-81200000I0J-700000D01*
G01*
X179600000Y-81800000D02*
G75*
G02*
X178900000Y-82500000I-700000J0D01*
G01*
%TO.C,C2*%
X170396267Y-95940000D02*
X170103733Y-95940000D01*
X170396267Y-96960000D02*
X170103733Y-96960000D01*
%TO.C,R1*%
X157727500Y-82667224D02*
X157727500Y-82157776D01*
X158772500Y-82667224D02*
X158772500Y-82157776D01*
%TO.C,D16*%
X176750000Y-93900000D02*
X176750000Y-97910000D01*
X176750000Y-97910000D02*
X178750000Y-97910000D01*
X178750000Y-93900000D02*
X178750000Y-97910000D01*
%TO.C,R4*%
X181854724Y-84340000D02*
X181345276Y-84340000D01*
X181854724Y-85385000D02*
X181345276Y-85385000D01*
%TO.C,R5*%
X181854724Y-87702500D02*
X181345276Y-87702500D01*
X181854724Y-88747500D02*
X181345276Y-88747500D01*
%TO.C,D10*%
X176850000Y-54844800D02*
X176850000Y-58854800D01*
X176850000Y-58854800D02*
X178850000Y-58854800D01*
X178850000Y-54844800D02*
X178850000Y-58854800D01*
%TO.C,D9*%
X171000000Y-44700000D02*
X171000000Y-48710000D01*
X171000000Y-48710000D02*
X173000000Y-48710000D01*
X173000000Y-44700000D02*
X173000000Y-48710000D01*
%TO.C,D13*%
X179500000Y-44700000D02*
X179500000Y-48710000D01*
X179500000Y-48710000D02*
X181500000Y-48710000D01*
X181500000Y-44700000D02*
X181500000Y-48710000D01*
%TO.C,D1*%
X154000000Y-44700000D02*
X154000000Y-48710000D01*
X154000000Y-48710000D02*
X156000000Y-48710000D01*
X156000000Y-44700000D02*
X156000000Y-48710000D01*
%TO.C,D4*%
X156800000Y-74850000D02*
X156800000Y-78860000D01*
X156800000Y-78860000D02*
X158800000Y-78860000D01*
X158800000Y-74850000D02*
X158800000Y-78860000D01*
%TO.C,D3*%
X156809000Y-64850000D02*
X156809000Y-68860000D01*
X156809000Y-68860000D02*
X158809000Y-68860000D01*
X158809000Y-64850000D02*
X158809000Y-68860000D01*
%TO.C,J2*%
X150305000Y-78440000D02*
X150305000Y-92315000D01*
X150305000Y-93685000D02*
X150305000Y-93000000D01*
X150391724Y-92315000D02*
X150305000Y-92315000D01*
X150605507Y-78440000D02*
X150305000Y-78440000D01*
X151000000Y-93685000D02*
X150305000Y-93685000D01*
X151695000Y-78440000D02*
X151394493Y-78440000D01*
X151695000Y-78440000D02*
X151695000Y-92315000D01*
X151695000Y-92315000D02*
X151608276Y-92315000D01*
%TO.C,J1*%
X183805000Y-78440000D02*
X183805000Y-92315000D01*
X183805000Y-93685000D02*
X183805000Y-93000000D01*
X183891724Y-92315000D02*
X183805000Y-92315000D01*
X184105507Y-78440000D02*
X183805000Y-78440000D01*
X184500000Y-93685000D02*
X183805000Y-93685000D01*
X185195000Y-78440000D02*
X184894493Y-78440000D01*
X185195000Y-78440000D02*
X185195000Y-92315000D01*
X185195000Y-92315000D02*
X185108276Y-92315000D01*
%TO.C,R3*%
X181854724Y-80977500D02*
X181345276Y-80977500D01*
X181854724Y-82022500D02*
X181345276Y-82022500D01*
%TO.C,R2*%
X155252500Y-82667224D02*
X155252500Y-82157776D01*
X156297500Y-82667224D02*
X156297500Y-82157776D01*
%TO.C,D12*%
X163850000Y-93900000D02*
X163850000Y-97910000D01*
X163850000Y-97910000D02*
X165850000Y-97910000D01*
X165850000Y-93900000D02*
X165850000Y-97910000D01*
%TO.C,JP2*%
X176825000Y-84562500D02*
X176825000Y-85162500D01*
X177525000Y-85862500D02*
X178925000Y-85862500D01*
X178925000Y-83862500D02*
X177525000Y-83862500D01*
X179625000Y-85162500D02*
X179625000Y-84562500D01*
X176825000Y-84562500D02*
G75*
G02*
X177525000Y-83862500I699999J1D01*
G01*
X177525000Y-85862500D02*
G75*
G02*
X176825000Y-85162500I-1J699999D01*
G01*
X178925000Y-83862500D02*
G75*
G02*
X179625000Y-84562500I0J-700000D01*
G01*
X179625000Y-85162500D02*
G75*
G02*
X178925000Y-85862500I-700000J0D01*
G01*
%TO.C,D5*%
X162500000Y-44700000D02*
X162500000Y-48710000D01*
X162500000Y-48710000D02*
X164500000Y-48710000D01*
X164500000Y-44700000D02*
X164500000Y-48710000D01*
%TO.C,D11*%
X166825000Y-78150000D02*
X166825000Y-74140000D01*
X168825000Y-74140000D02*
X166825000Y-74140000D01*
X168825000Y-78150000D02*
X168825000Y-74140000D01*
%TO.C,D8*%
X156775000Y-89675000D02*
X156775000Y-85665000D01*
X158775000Y-85665000D02*
X156775000Y-85665000D01*
X158775000Y-89675000D02*
X158775000Y-85665000D01*
D12*
%TO.C,U17*%
X163900700Y-81127900D02*
X163900700Y-81455560D01*
X163900700Y-91544440D02*
X163900700Y-91872100D01*
X163900700Y-91872100D02*
X171749300Y-91872100D01*
X171749300Y-81127900D02*
X163900700Y-81127900D01*
X171749300Y-81455560D02*
X171749300Y-81127900D01*
X171749300Y-91872100D02*
X171749300Y-91544440D01*
D13*
G36*
X161690900Y-89865500D02*
G01*
X161436900Y-89865500D01*
X161436900Y-89484500D01*
X161690900Y-89484500D01*
X161690900Y-89865500D01*
G37*
D11*
%TO.C,D14*%
X176850000Y-68144800D02*
X176850000Y-64134800D01*
X178850000Y-64134800D02*
X176850000Y-64134800D01*
X178850000Y-68144800D02*
X178850000Y-64134800D01*
%TD*%
M02*
