M48
; DRILL file {KiCad 8.0.1} date 2024-03-23T20:13:00-0500
; FORMAT={-:-/ absolute / inch / decimal}
; #@! TF.CreationDate,2024-03-23T20:13:00-05:00
; #@! TF.GenerationSoftware,Kicad,Pcbnew,8.0.1
; #@! TF.FileFunction,Plated,1,2,PTH
FMAT,2
INCH
; #@! TA.AperFunction,Plated,PTH,ViaDrill
T1C0.0157
; #@! TA.AperFunction,Plated,PTH,ComponentDrill
T2C0.0197
%
G90
G05
T1
X5.9724Y-2.2953
X6.063Y-2.0472
X6.063Y-2.0866
X6.063Y-2.126
X6.0787Y-2.2953
X6.1024Y-1.6929
X6.1417Y-2.0472
X6.1417Y-2.0866
X6.1417Y-2.126
X6.1811Y-3.6614
X6.1811Y-3.7402
X6.185Y-2.1654
X6.185Y-2.2953
X6.3583Y-2.2441
X6.3583Y-2.6378
X6.3583Y-3.0315
X6.3583Y-3.6614
X6.437Y-1.6929
X6.6043Y-2.2441
X6.6043Y-2.6378
X6.6043Y-3.2677
X6.6043Y-3.6614
X6.7717Y-1.6929
X6.8504Y-2.2441
X6.8504Y-2.874
X6.8504Y-3.2677
X6.8504Y-3.6614
X7.0069Y-2.2638
X7.0069Y-2.3228
X7.0069Y-2.3819
X7.0069Y-2.4409
X7.0197Y-2.6496
X7.0659Y-2.2244
X7.0659Y-2.4803
X7.0669Y-2.8937
X7.1063Y-1.6929
X7.1654Y-2.8898
X7.1654Y-3.3661
X7.1654Y-3.5039
X7.2037Y-2.4803
X7.2431Y-2.4213
X7.2436Y-2.3228
X7.2436Y-2.3814
T2
X5.9449Y-3.1102
X5.9449Y-3.1496
X5.9449Y-3.189
X5.9449Y-3.2283
X5.9449Y-3.2677
X5.9449Y-3.3071
X5.9449Y-3.3465
X5.9449Y-3.3858
X5.9449Y-3.4252
X5.9449Y-3.4646
X5.9449Y-3.5039
X5.9449Y-3.5433
X5.9449Y-3.5827
X5.9449Y-3.622
X5.9449Y-3.6614
X7.2638Y-3.1102
X7.2638Y-3.1496
X7.2638Y-3.189
X7.2638Y-3.2283
X7.2638Y-3.2677
X7.2638Y-3.3071
X7.2638Y-3.3465
X7.2638Y-3.3858
X7.2638Y-3.4252
X7.2638Y-3.4646
X7.2638Y-3.5039
X7.2638Y-3.5433
X7.2638Y-3.5827
X7.2638Y-3.622
X7.2638Y-3.6614
M30
