%TF.GenerationSoftware,KiCad,Pcbnew,8.0.1*%
%TF.CreationDate,2024-03-24T18:55:33-05:00*%
%TF.ProjectId,TTWR Keypad,54545752-204b-4657-9970-61642e6b6963,V01*%
%TF.SameCoordinates,Original*%
%TF.FileFunction,Legend,Top*%
%TF.FilePolarity,Positive*%
%FSLAX46Y46*%
G04 Gerber Fmt 4.6, Leading zero omitted, Abs format (unit mm)*
G04 Created by KiCad (PCBNEW 8.0.1) date 2024-03-24 18:55:33*
%MOMM*%
%LPD*%
G01*
G04 APERTURE LIST*
%ADD10C,0.150000*%
%ADD11C,0.152400*%
%ADD12C,0.120000*%
G04 APERTURE END LIST*
D10*
X157038095Y-65945819D02*
X157038095Y-66755342D01*
X157038095Y-66755342D02*
X157085714Y-66850580D01*
X157085714Y-66850580D02*
X157133333Y-66898200D01*
X157133333Y-66898200D02*
X157228571Y-66945819D01*
X157228571Y-66945819D02*
X157419047Y-66945819D01*
X157419047Y-66945819D02*
X157514285Y-66898200D01*
X157514285Y-66898200D02*
X157561904Y-66850580D01*
X157561904Y-66850580D02*
X157609523Y-66755342D01*
X157609523Y-66755342D02*
X157609523Y-65945819D01*
X157990476Y-65945819D02*
X158609523Y-65945819D01*
X158609523Y-65945819D02*
X158276190Y-66326771D01*
X158276190Y-66326771D02*
X158419047Y-66326771D01*
X158419047Y-66326771D02*
X158514285Y-66374390D01*
X158514285Y-66374390D02*
X158561904Y-66422009D01*
X158561904Y-66422009D02*
X158609523Y-66517247D01*
X158609523Y-66517247D02*
X158609523Y-66755342D01*
X158609523Y-66755342D02*
X158561904Y-66850580D01*
X158561904Y-66850580D02*
X158514285Y-66898200D01*
X158514285Y-66898200D02*
X158419047Y-66945819D01*
X158419047Y-66945819D02*
X158133333Y-66945819D01*
X158133333Y-66945819D02*
X158038095Y-66898200D01*
X158038095Y-66898200D02*
X157990476Y-66850580D01*
X166586905Y-85954819D02*
X166586905Y-86764342D01*
X166586905Y-86764342D02*
X166634524Y-86859580D01*
X166634524Y-86859580D02*
X166682143Y-86907200D01*
X166682143Y-86907200D02*
X166777381Y-86954819D01*
X166777381Y-86954819D02*
X166967857Y-86954819D01*
X166967857Y-86954819D02*
X167063095Y-86907200D01*
X167063095Y-86907200D02*
X167110714Y-86859580D01*
X167110714Y-86859580D02*
X167158333Y-86764342D01*
X167158333Y-86764342D02*
X167158333Y-85954819D01*
X168158333Y-86954819D02*
X167586905Y-86954819D01*
X167872619Y-86954819D02*
X167872619Y-85954819D01*
X167872619Y-85954819D02*
X167777381Y-86097676D01*
X167777381Y-86097676D02*
X167682143Y-86192914D01*
X167682143Y-86192914D02*
X167586905Y-86240533D01*
X168539286Y-86050057D02*
X168586905Y-86002438D01*
X168586905Y-86002438D02*
X168682143Y-85954819D01*
X168682143Y-85954819D02*
X168920238Y-85954819D01*
X168920238Y-85954819D02*
X169015476Y-86002438D01*
X169015476Y-86002438D02*
X169063095Y-86050057D01*
X169063095Y-86050057D02*
X169110714Y-86145295D01*
X169110714Y-86145295D02*
X169110714Y-86240533D01*
X169110714Y-86240533D02*
X169063095Y-86383390D01*
X169063095Y-86383390D02*
X168491667Y-86954819D01*
X168491667Y-86954819D02*
X169110714Y-86954819D01*
X157038095Y-85945819D02*
X157038095Y-86755342D01*
X157038095Y-86755342D02*
X157085714Y-86850580D01*
X157085714Y-86850580D02*
X157133333Y-86898200D01*
X157133333Y-86898200D02*
X157228571Y-86945819D01*
X157228571Y-86945819D02*
X157419047Y-86945819D01*
X157419047Y-86945819D02*
X157514285Y-86898200D01*
X157514285Y-86898200D02*
X157561904Y-86850580D01*
X157561904Y-86850580D02*
X157609523Y-86755342D01*
X157609523Y-86755342D02*
X157609523Y-85945819D01*
X158228571Y-86374390D02*
X158133333Y-86326771D01*
X158133333Y-86326771D02*
X158085714Y-86279152D01*
X158085714Y-86279152D02*
X158038095Y-86183914D01*
X158038095Y-86183914D02*
X158038095Y-86136295D01*
X158038095Y-86136295D02*
X158085714Y-86041057D01*
X158085714Y-86041057D02*
X158133333Y-85993438D01*
X158133333Y-85993438D02*
X158228571Y-85945819D01*
X158228571Y-85945819D02*
X158419047Y-85945819D01*
X158419047Y-85945819D02*
X158514285Y-85993438D01*
X158514285Y-85993438D02*
X158561904Y-86041057D01*
X158561904Y-86041057D02*
X158609523Y-86136295D01*
X158609523Y-86136295D02*
X158609523Y-86183914D01*
X158609523Y-86183914D02*
X158561904Y-86279152D01*
X158561904Y-86279152D02*
X158514285Y-86326771D01*
X158514285Y-86326771D02*
X158419047Y-86374390D01*
X158419047Y-86374390D02*
X158228571Y-86374390D01*
X158228571Y-86374390D02*
X158133333Y-86422009D01*
X158133333Y-86422009D02*
X158085714Y-86469628D01*
X158085714Y-86469628D02*
X158038095Y-86564866D01*
X158038095Y-86564866D02*
X158038095Y-86755342D01*
X158038095Y-86755342D02*
X158085714Y-86850580D01*
X158085714Y-86850580D02*
X158133333Y-86898200D01*
X158133333Y-86898200D02*
X158228571Y-86945819D01*
X158228571Y-86945819D02*
X158419047Y-86945819D01*
X158419047Y-86945819D02*
X158514285Y-86898200D01*
X158514285Y-86898200D02*
X158561904Y-86850580D01*
X158561904Y-86850580D02*
X158609523Y-86755342D01*
X158609523Y-86755342D02*
X158609523Y-86564866D01*
X158609523Y-86564866D02*
X158561904Y-86469628D01*
X158561904Y-86469628D02*
X158514285Y-86422009D01*
X158514285Y-86422009D02*
X158419047Y-86374390D01*
X154236745Y-45804819D02*
X154236745Y-46614342D01*
X154236745Y-46614342D02*
X154284364Y-46709580D01*
X154284364Y-46709580D02*
X154331983Y-46757200D01*
X154331983Y-46757200D02*
X154427221Y-46804819D01*
X154427221Y-46804819D02*
X154617697Y-46804819D01*
X154617697Y-46804819D02*
X154712935Y-46757200D01*
X154712935Y-46757200D02*
X154760554Y-46709580D01*
X154760554Y-46709580D02*
X154808173Y-46614342D01*
X154808173Y-46614342D02*
X154808173Y-45804819D01*
X155808173Y-46804819D02*
X155236745Y-46804819D01*
X155522459Y-46804819D02*
X155522459Y-45804819D01*
X155522459Y-45804819D02*
X155427221Y-45947676D01*
X155427221Y-45947676D02*
X155331983Y-46042914D01*
X155331983Y-46042914D02*
X155236745Y-46090533D01*
X176606705Y-65954819D02*
X176606705Y-66764342D01*
X176606705Y-66764342D02*
X176654324Y-66859580D01*
X176654324Y-66859580D02*
X176701943Y-66907200D01*
X176701943Y-66907200D02*
X176797181Y-66954819D01*
X176797181Y-66954819D02*
X176987657Y-66954819D01*
X176987657Y-66954819D02*
X177082895Y-66907200D01*
X177082895Y-66907200D02*
X177130514Y-66859580D01*
X177130514Y-66859580D02*
X177178133Y-66764342D01*
X177178133Y-66764342D02*
X177178133Y-65954819D01*
X178178133Y-66954819D02*
X177606705Y-66954819D01*
X177892419Y-66954819D02*
X177892419Y-65954819D01*
X177892419Y-65954819D02*
X177797181Y-66097676D01*
X177797181Y-66097676D02*
X177701943Y-66192914D01*
X177701943Y-66192914D02*
X177606705Y-66240533D01*
X179035276Y-66288152D02*
X179035276Y-66954819D01*
X178797181Y-65907200D02*
X178559086Y-66621485D01*
X178559086Y-66621485D02*
X179178133Y-66621485D01*
X179260555Y-45804819D02*
X179260555Y-46614342D01*
X179260555Y-46614342D02*
X179308174Y-46709580D01*
X179308174Y-46709580D02*
X179355793Y-46757200D01*
X179355793Y-46757200D02*
X179451031Y-46804819D01*
X179451031Y-46804819D02*
X179641507Y-46804819D01*
X179641507Y-46804819D02*
X179736745Y-46757200D01*
X179736745Y-46757200D02*
X179784364Y-46709580D01*
X179784364Y-46709580D02*
X179831983Y-46614342D01*
X179831983Y-46614342D02*
X179831983Y-45804819D01*
X180831983Y-46804819D02*
X180260555Y-46804819D01*
X180546269Y-46804819D02*
X180546269Y-45804819D01*
X180546269Y-45804819D02*
X180451031Y-45947676D01*
X180451031Y-45947676D02*
X180355793Y-46042914D01*
X180355793Y-46042914D02*
X180260555Y-46090533D01*
X181165317Y-45804819D02*
X181784364Y-45804819D01*
X181784364Y-45804819D02*
X181451031Y-46185771D01*
X181451031Y-46185771D02*
X181593888Y-46185771D01*
X181593888Y-46185771D02*
X181689126Y-46233390D01*
X181689126Y-46233390D02*
X181736745Y-46281009D01*
X181736745Y-46281009D02*
X181784364Y-46376247D01*
X181784364Y-46376247D02*
X181784364Y-46614342D01*
X181784364Y-46614342D02*
X181736745Y-46709580D01*
X181736745Y-46709580D02*
X181689126Y-46757200D01*
X181689126Y-46757200D02*
X181593888Y-46804819D01*
X181593888Y-46804819D02*
X181308174Y-46804819D01*
X181308174Y-46804819D02*
X181212936Y-46757200D01*
X181212936Y-46757200D02*
X181165317Y-46709580D01*
X167063095Y-55954819D02*
X167063095Y-56764342D01*
X167063095Y-56764342D02*
X167110714Y-56859580D01*
X167110714Y-56859580D02*
X167158333Y-56907200D01*
X167158333Y-56907200D02*
X167253571Y-56954819D01*
X167253571Y-56954819D02*
X167444047Y-56954819D01*
X167444047Y-56954819D02*
X167539285Y-56907200D01*
X167539285Y-56907200D02*
X167586904Y-56859580D01*
X167586904Y-56859580D02*
X167634523Y-56764342D01*
X167634523Y-56764342D02*
X167634523Y-55954819D01*
X168539285Y-55954819D02*
X168348809Y-55954819D01*
X168348809Y-55954819D02*
X168253571Y-56002438D01*
X168253571Y-56002438D02*
X168205952Y-56050057D01*
X168205952Y-56050057D02*
X168110714Y-56192914D01*
X168110714Y-56192914D02*
X168063095Y-56383390D01*
X168063095Y-56383390D02*
X168063095Y-56764342D01*
X168063095Y-56764342D02*
X168110714Y-56859580D01*
X168110714Y-56859580D02*
X168158333Y-56907200D01*
X168158333Y-56907200D02*
X168253571Y-56954819D01*
X168253571Y-56954819D02*
X168444047Y-56954819D01*
X168444047Y-56954819D02*
X168539285Y-56907200D01*
X168539285Y-56907200D02*
X168586904Y-56859580D01*
X168586904Y-56859580D02*
X168634523Y-56764342D01*
X168634523Y-56764342D02*
X168634523Y-56526247D01*
X168634523Y-56526247D02*
X168586904Y-56431009D01*
X168586904Y-56431009D02*
X168539285Y-56383390D01*
X168539285Y-56383390D02*
X168444047Y-56335771D01*
X168444047Y-56335771D02*
X168253571Y-56335771D01*
X168253571Y-56335771D02*
X168158333Y-56383390D01*
X168158333Y-56383390D02*
X168110714Y-56431009D01*
X168110714Y-56431009D02*
X168063095Y-56526247D01*
X150666666Y-76754819D02*
X150666666Y-77469104D01*
X150666666Y-77469104D02*
X150619047Y-77611961D01*
X150619047Y-77611961D02*
X150523809Y-77707200D01*
X150523809Y-77707200D02*
X150380952Y-77754819D01*
X150380952Y-77754819D02*
X150285714Y-77754819D01*
X151095238Y-76850057D02*
X151142857Y-76802438D01*
X151142857Y-76802438D02*
X151238095Y-76754819D01*
X151238095Y-76754819D02*
X151476190Y-76754819D01*
X151476190Y-76754819D02*
X151571428Y-76802438D01*
X151571428Y-76802438D02*
X151619047Y-76850057D01*
X151619047Y-76850057D02*
X151666666Y-76945295D01*
X151666666Y-76945295D02*
X151666666Y-77040533D01*
X151666666Y-77040533D02*
X151619047Y-77183390D01*
X151619047Y-77183390D02*
X151047619Y-77754819D01*
X151047619Y-77754819D02*
X151666666Y-77754819D01*
X184166666Y-76654819D02*
X184166666Y-77369104D01*
X184166666Y-77369104D02*
X184119047Y-77511961D01*
X184119047Y-77511961D02*
X184023809Y-77607200D01*
X184023809Y-77607200D02*
X183880952Y-77654819D01*
X183880952Y-77654819D02*
X183785714Y-77654819D01*
X185166666Y-77654819D02*
X184595238Y-77654819D01*
X184880952Y-77654819D02*
X184880952Y-76654819D01*
X184880952Y-76654819D02*
X184785714Y-76797676D01*
X184785714Y-76797676D02*
X184690476Y-76892914D01*
X184690476Y-76892914D02*
X184595238Y-76940533D01*
X157038095Y-75945819D02*
X157038095Y-76755342D01*
X157038095Y-76755342D02*
X157085714Y-76850580D01*
X157085714Y-76850580D02*
X157133333Y-76898200D01*
X157133333Y-76898200D02*
X157228571Y-76945819D01*
X157228571Y-76945819D02*
X157419047Y-76945819D01*
X157419047Y-76945819D02*
X157514285Y-76898200D01*
X157514285Y-76898200D02*
X157561904Y-76850580D01*
X157561904Y-76850580D02*
X157609523Y-76755342D01*
X157609523Y-76755342D02*
X157609523Y-75945819D01*
X158514285Y-76279152D02*
X158514285Y-76945819D01*
X158276190Y-75898200D02*
X158038095Y-76612485D01*
X158038095Y-76612485D02*
X158657142Y-76612485D01*
X176606705Y-75954819D02*
X176606705Y-76764342D01*
X176606705Y-76764342D02*
X176654324Y-76859580D01*
X176654324Y-76859580D02*
X176701943Y-76907200D01*
X176701943Y-76907200D02*
X176797181Y-76954819D01*
X176797181Y-76954819D02*
X176987657Y-76954819D01*
X176987657Y-76954819D02*
X177082895Y-76907200D01*
X177082895Y-76907200D02*
X177130514Y-76859580D01*
X177130514Y-76859580D02*
X177178133Y-76764342D01*
X177178133Y-76764342D02*
X177178133Y-75954819D01*
X178178133Y-76954819D02*
X177606705Y-76954819D01*
X177892419Y-76954819D02*
X177892419Y-75954819D01*
X177892419Y-75954819D02*
X177797181Y-76097676D01*
X177797181Y-76097676D02*
X177701943Y-76192914D01*
X177701943Y-76192914D02*
X177606705Y-76240533D01*
X179082895Y-75954819D02*
X178606705Y-75954819D01*
X178606705Y-75954819D02*
X178559086Y-76431009D01*
X178559086Y-76431009D02*
X178606705Y-76383390D01*
X178606705Y-76383390D02*
X178701943Y-76335771D01*
X178701943Y-76335771D02*
X178940038Y-76335771D01*
X178940038Y-76335771D02*
X179035276Y-76383390D01*
X179035276Y-76383390D02*
X179082895Y-76431009D01*
X179082895Y-76431009D02*
X179130514Y-76526247D01*
X179130514Y-76526247D02*
X179130514Y-76764342D01*
X179130514Y-76764342D02*
X179082895Y-76859580D01*
X179082895Y-76859580D02*
X179035276Y-76907200D01*
X179035276Y-76907200D02*
X178940038Y-76954819D01*
X178940038Y-76954819D02*
X178701943Y-76954819D01*
X178701943Y-76954819D02*
X178606705Y-76907200D01*
X178606705Y-76907200D02*
X178559086Y-76859580D01*
X167063095Y-65954819D02*
X167063095Y-66764342D01*
X167063095Y-66764342D02*
X167110714Y-66859580D01*
X167110714Y-66859580D02*
X167158333Y-66907200D01*
X167158333Y-66907200D02*
X167253571Y-66954819D01*
X167253571Y-66954819D02*
X167444047Y-66954819D01*
X167444047Y-66954819D02*
X167539285Y-66907200D01*
X167539285Y-66907200D02*
X167586904Y-66859580D01*
X167586904Y-66859580D02*
X167634523Y-66764342D01*
X167634523Y-66764342D02*
X167634523Y-65954819D01*
X168015476Y-65954819D02*
X168682142Y-65954819D01*
X168682142Y-65954819D02*
X168253571Y-66954819D01*
X162736745Y-45804819D02*
X162736745Y-46614342D01*
X162736745Y-46614342D02*
X162784364Y-46709580D01*
X162784364Y-46709580D02*
X162831983Y-46757200D01*
X162831983Y-46757200D02*
X162927221Y-46804819D01*
X162927221Y-46804819D02*
X163117697Y-46804819D01*
X163117697Y-46804819D02*
X163212935Y-46757200D01*
X163212935Y-46757200D02*
X163260554Y-46709580D01*
X163260554Y-46709580D02*
X163308173Y-46614342D01*
X163308173Y-46614342D02*
X163308173Y-45804819D01*
X164260554Y-45804819D02*
X163784364Y-45804819D01*
X163784364Y-45804819D02*
X163736745Y-46281009D01*
X163736745Y-46281009D02*
X163784364Y-46233390D01*
X163784364Y-46233390D02*
X163879602Y-46185771D01*
X163879602Y-46185771D02*
X164117697Y-46185771D01*
X164117697Y-46185771D02*
X164212935Y-46233390D01*
X164212935Y-46233390D02*
X164260554Y-46281009D01*
X164260554Y-46281009D02*
X164308173Y-46376247D01*
X164308173Y-46376247D02*
X164308173Y-46614342D01*
X164308173Y-46614342D02*
X164260554Y-46709580D01*
X164260554Y-46709580D02*
X164212935Y-46757200D01*
X164212935Y-46757200D02*
X164117697Y-46804819D01*
X164117697Y-46804819D02*
X163879602Y-46804819D01*
X163879602Y-46804819D02*
X163784364Y-46757200D01*
X163784364Y-46757200D02*
X163736745Y-46709580D01*
X171236745Y-45804819D02*
X171236745Y-46614342D01*
X171236745Y-46614342D02*
X171284364Y-46709580D01*
X171284364Y-46709580D02*
X171331983Y-46757200D01*
X171331983Y-46757200D02*
X171427221Y-46804819D01*
X171427221Y-46804819D02*
X171617697Y-46804819D01*
X171617697Y-46804819D02*
X171712935Y-46757200D01*
X171712935Y-46757200D02*
X171760554Y-46709580D01*
X171760554Y-46709580D02*
X171808173Y-46614342D01*
X171808173Y-46614342D02*
X171808173Y-45804819D01*
X172331983Y-46804819D02*
X172522459Y-46804819D01*
X172522459Y-46804819D02*
X172617697Y-46757200D01*
X172617697Y-46757200D02*
X172665316Y-46709580D01*
X172665316Y-46709580D02*
X172760554Y-46566723D01*
X172760554Y-46566723D02*
X172808173Y-46376247D01*
X172808173Y-46376247D02*
X172808173Y-45995295D01*
X172808173Y-45995295D02*
X172760554Y-45900057D01*
X172760554Y-45900057D02*
X172712935Y-45852438D01*
X172712935Y-45852438D02*
X172617697Y-45804819D01*
X172617697Y-45804819D02*
X172427221Y-45804819D01*
X172427221Y-45804819D02*
X172331983Y-45852438D01*
X172331983Y-45852438D02*
X172284364Y-45900057D01*
X172284364Y-45900057D02*
X172236745Y-45995295D01*
X172236745Y-45995295D02*
X172236745Y-46233390D01*
X172236745Y-46233390D02*
X172284364Y-46328628D01*
X172284364Y-46328628D02*
X172331983Y-46376247D01*
X172331983Y-46376247D02*
X172427221Y-46423866D01*
X172427221Y-46423866D02*
X172617697Y-46423866D01*
X172617697Y-46423866D02*
X172712935Y-46376247D01*
X172712935Y-46376247D02*
X172760554Y-46328628D01*
X172760554Y-46328628D02*
X172808173Y-46233390D01*
X157038095Y-55945819D02*
X157038095Y-56755342D01*
X157038095Y-56755342D02*
X157085714Y-56850580D01*
X157085714Y-56850580D02*
X157133333Y-56898200D01*
X157133333Y-56898200D02*
X157228571Y-56945819D01*
X157228571Y-56945819D02*
X157419047Y-56945819D01*
X157419047Y-56945819D02*
X157514285Y-56898200D01*
X157514285Y-56898200D02*
X157561904Y-56850580D01*
X157561904Y-56850580D02*
X157609523Y-56755342D01*
X157609523Y-56755342D02*
X157609523Y-55945819D01*
X158038095Y-56041057D02*
X158085714Y-55993438D01*
X158085714Y-55993438D02*
X158180952Y-55945819D01*
X158180952Y-55945819D02*
X158419047Y-55945819D01*
X158419047Y-55945819D02*
X158514285Y-55993438D01*
X158514285Y-55993438D02*
X158561904Y-56041057D01*
X158561904Y-56041057D02*
X158609523Y-56136295D01*
X158609523Y-56136295D02*
X158609523Y-56231533D01*
X158609523Y-56231533D02*
X158561904Y-56374390D01*
X158561904Y-56374390D02*
X157990476Y-56945819D01*
X157990476Y-56945819D02*
X158609523Y-56945819D01*
X176606705Y-85954819D02*
X176606705Y-86764342D01*
X176606705Y-86764342D02*
X176654324Y-86859580D01*
X176654324Y-86859580D02*
X176701943Y-86907200D01*
X176701943Y-86907200D02*
X176797181Y-86954819D01*
X176797181Y-86954819D02*
X176987657Y-86954819D01*
X176987657Y-86954819D02*
X177082895Y-86907200D01*
X177082895Y-86907200D02*
X177130514Y-86859580D01*
X177130514Y-86859580D02*
X177178133Y-86764342D01*
X177178133Y-86764342D02*
X177178133Y-85954819D01*
X178178133Y-86954819D02*
X177606705Y-86954819D01*
X177892419Y-86954819D02*
X177892419Y-85954819D01*
X177892419Y-85954819D02*
X177797181Y-86097676D01*
X177797181Y-86097676D02*
X177701943Y-86192914D01*
X177701943Y-86192914D02*
X177606705Y-86240533D01*
X179035276Y-85954819D02*
X178844800Y-85954819D01*
X178844800Y-85954819D02*
X178749562Y-86002438D01*
X178749562Y-86002438D02*
X178701943Y-86050057D01*
X178701943Y-86050057D02*
X178606705Y-86192914D01*
X178606705Y-86192914D02*
X178559086Y-86383390D01*
X178559086Y-86383390D02*
X178559086Y-86764342D01*
X178559086Y-86764342D02*
X178606705Y-86859580D01*
X178606705Y-86859580D02*
X178654324Y-86907200D01*
X178654324Y-86907200D02*
X178749562Y-86954819D01*
X178749562Y-86954819D02*
X178940038Y-86954819D01*
X178940038Y-86954819D02*
X179035276Y-86907200D01*
X179035276Y-86907200D02*
X179082895Y-86859580D01*
X179082895Y-86859580D02*
X179130514Y-86764342D01*
X179130514Y-86764342D02*
X179130514Y-86526247D01*
X179130514Y-86526247D02*
X179082895Y-86431009D01*
X179082895Y-86431009D02*
X179035276Y-86383390D01*
X179035276Y-86383390D02*
X178940038Y-86335771D01*
X178940038Y-86335771D02*
X178749562Y-86335771D01*
X178749562Y-86335771D02*
X178654324Y-86383390D01*
X178654324Y-86383390D02*
X178606705Y-86431009D01*
X178606705Y-86431009D02*
X178559086Y-86526247D01*
X176611905Y-55949619D02*
X176611905Y-56759142D01*
X176611905Y-56759142D02*
X176659524Y-56854380D01*
X176659524Y-56854380D02*
X176707143Y-56902000D01*
X176707143Y-56902000D02*
X176802381Y-56949619D01*
X176802381Y-56949619D02*
X176992857Y-56949619D01*
X176992857Y-56949619D02*
X177088095Y-56902000D01*
X177088095Y-56902000D02*
X177135714Y-56854380D01*
X177135714Y-56854380D02*
X177183333Y-56759142D01*
X177183333Y-56759142D02*
X177183333Y-55949619D01*
X178183333Y-56949619D02*
X177611905Y-56949619D01*
X177897619Y-56949619D02*
X177897619Y-55949619D01*
X177897619Y-55949619D02*
X177802381Y-56092476D01*
X177802381Y-56092476D02*
X177707143Y-56187714D01*
X177707143Y-56187714D02*
X177611905Y-56235333D01*
X178802381Y-55949619D02*
X178897619Y-55949619D01*
X178897619Y-55949619D02*
X178992857Y-55997238D01*
X178992857Y-55997238D02*
X179040476Y-56044857D01*
X179040476Y-56044857D02*
X179088095Y-56140095D01*
X179088095Y-56140095D02*
X179135714Y-56330571D01*
X179135714Y-56330571D02*
X179135714Y-56568666D01*
X179135714Y-56568666D02*
X179088095Y-56759142D01*
X179088095Y-56759142D02*
X179040476Y-56854380D01*
X179040476Y-56854380D02*
X178992857Y-56902000D01*
X178992857Y-56902000D02*
X178897619Y-56949619D01*
X178897619Y-56949619D02*
X178802381Y-56949619D01*
X178802381Y-56949619D02*
X178707143Y-56902000D01*
X178707143Y-56902000D02*
X178659524Y-56854380D01*
X178659524Y-56854380D02*
X178611905Y-56759142D01*
X178611905Y-56759142D02*
X178564286Y-56568666D01*
X178564286Y-56568666D02*
X178564286Y-56330571D01*
X178564286Y-56330571D02*
X178611905Y-56140095D01*
X178611905Y-56140095D02*
X178659524Y-56044857D01*
X178659524Y-56044857D02*
X178707143Y-55997238D01*
X178707143Y-55997238D02*
X178802381Y-55949619D01*
X166586905Y-75954819D02*
X166586905Y-76764342D01*
X166586905Y-76764342D02*
X166634524Y-76859580D01*
X166634524Y-76859580D02*
X166682143Y-76907200D01*
X166682143Y-76907200D02*
X166777381Y-76954819D01*
X166777381Y-76954819D02*
X166967857Y-76954819D01*
X166967857Y-76954819D02*
X167063095Y-76907200D01*
X167063095Y-76907200D02*
X167110714Y-76859580D01*
X167110714Y-76859580D02*
X167158333Y-76764342D01*
X167158333Y-76764342D02*
X167158333Y-75954819D01*
X168158333Y-76954819D02*
X167586905Y-76954819D01*
X167872619Y-76954819D02*
X167872619Y-75954819D01*
X167872619Y-75954819D02*
X167777381Y-76097676D01*
X167777381Y-76097676D02*
X167682143Y-76192914D01*
X167682143Y-76192914D02*
X167586905Y-76240533D01*
X169110714Y-76954819D02*
X168539286Y-76954819D01*
X168825000Y-76954819D02*
X168825000Y-75954819D01*
X168825000Y-75954819D02*
X168729762Y-76097676D01*
X168729762Y-76097676D02*
X168634524Y-76192914D01*
X168634524Y-76192914D02*
X168539286Y-76240533D01*
D11*
%TO.C,U3*%
X154976900Y-63667900D02*
X154976900Y-69332100D01*
X154976900Y-69332100D02*
X155342660Y-69332100D01*
X155342660Y-63667900D02*
X154976900Y-63667900D01*
X156566940Y-69332100D02*
X159051060Y-69332100D01*
X159051060Y-63667900D02*
X156566940Y-63667900D01*
X160275340Y-69332100D02*
X160641100Y-69332100D01*
X160641100Y-63667900D02*
X160275340Y-63667900D01*
X160641100Y-69332100D02*
X160641100Y-63667900D01*
%TO.C,U12*%
X170657100Y-89332100D02*
X170657100Y-83667900D01*
X170657100Y-83667900D02*
X170291340Y-83667900D01*
X170291340Y-89332100D02*
X170657100Y-89332100D01*
X169067060Y-83667900D02*
X166582940Y-83667900D01*
X166582940Y-89332100D02*
X169067060Y-89332100D01*
X165358660Y-83667900D02*
X164992900Y-83667900D01*
X164992900Y-89332100D02*
X165358660Y-89332100D01*
X164992900Y-83667900D02*
X164992900Y-89332100D01*
%TO.C,U8*%
X154976900Y-83667900D02*
X154976900Y-89332100D01*
X154976900Y-89332100D02*
X155342660Y-89332100D01*
X155342660Y-83667900D02*
X154976900Y-83667900D01*
X156566940Y-89332100D02*
X159051060Y-89332100D01*
X159051060Y-83667900D02*
X156566940Y-83667900D01*
X160275340Y-89332100D02*
X160641100Y-89332100D01*
X160641100Y-83667900D02*
X160275340Y-83667900D01*
X160641100Y-89332100D02*
X160641100Y-83667900D01*
%TO.C,U1*%
X152167900Y-43516550D02*
X152167900Y-49180750D01*
X152167900Y-49180750D02*
X152533660Y-49180750D01*
X152533660Y-43516550D02*
X152167900Y-43516550D01*
X153757940Y-49180750D02*
X156242060Y-49180750D01*
X156242060Y-43516550D02*
X153757940Y-43516550D01*
X157466340Y-49180750D02*
X157832100Y-49180750D01*
X157832100Y-43516550D02*
X157466340Y-43516550D01*
X157832100Y-49180750D02*
X157832100Y-43516550D01*
%TO.C,U14*%
X180682100Y-69326900D02*
X180682100Y-63662700D01*
X180682100Y-63662700D02*
X180316340Y-63662700D01*
X180316340Y-69326900D02*
X180682100Y-69326900D01*
X179092060Y-63662700D02*
X176607940Y-63662700D01*
X176607940Y-69326900D02*
X179092060Y-69326900D01*
X175383660Y-63662700D02*
X175017900Y-63662700D01*
X175017900Y-69326900D02*
X175383660Y-69326900D01*
X175017900Y-63662700D02*
X175017900Y-69326900D01*
%TO.C,U13*%
X177667900Y-43516550D02*
X177667900Y-49180750D01*
X177667900Y-49180750D02*
X178033660Y-49180750D01*
X178033660Y-43516550D02*
X177667900Y-43516550D01*
X179257940Y-49180750D02*
X181742060Y-49180750D01*
X181742060Y-43516550D02*
X179257940Y-43516550D01*
X182966340Y-49180750D02*
X183332100Y-49180750D01*
X183332100Y-43516550D02*
X182966340Y-43516550D01*
X183332100Y-49180750D02*
X183332100Y-43516550D01*
%TO.C,U6*%
X170657100Y-59332100D02*
X170657100Y-53667900D01*
X170657100Y-53667900D02*
X170291340Y-53667900D01*
X170291340Y-59332100D02*
X170657100Y-59332100D01*
X169067060Y-53667900D02*
X166582940Y-53667900D01*
X166582940Y-59332100D02*
X169067060Y-59332100D01*
X165358660Y-53667900D02*
X164992900Y-53667900D01*
X164992900Y-59332100D02*
X165358660Y-59332100D01*
X164992900Y-53667900D02*
X164992900Y-59332100D01*
D12*
%TO.C,J2*%
X150305000Y-92315000D02*
X150305000Y-78440000D01*
X150391724Y-92315000D02*
X150305000Y-92315000D01*
X150605507Y-78440000D02*
X150305000Y-78440000D01*
X151695000Y-78440000D02*
X151394493Y-78440000D01*
X151695000Y-92315000D02*
X151608276Y-92315000D01*
X151695000Y-92315000D02*
X151695000Y-78440000D01*
X151695000Y-93000000D02*
X151695000Y-93685000D01*
X151695000Y-93685000D02*
X151000000Y-93685000D01*
%TO.C,J1*%
X183805000Y-92315000D02*
X183805000Y-78440000D01*
X183891724Y-92315000D02*
X183805000Y-92315000D01*
X184105507Y-78440000D02*
X183805000Y-78440000D01*
X185195000Y-78440000D02*
X184894493Y-78440000D01*
X185195000Y-92315000D02*
X185108276Y-92315000D01*
X185195000Y-92315000D02*
X185195000Y-78440000D01*
X185195000Y-93000000D02*
X185195000Y-93685000D01*
X185195000Y-93685000D02*
X184500000Y-93685000D01*
D11*
%TO.C,U4*%
X154976900Y-73667900D02*
X154976900Y-79332100D01*
X154976900Y-79332100D02*
X155342660Y-79332100D01*
X155342660Y-73667900D02*
X154976900Y-73667900D01*
X156566940Y-79332100D02*
X159051060Y-79332100D01*
X159051060Y-73667900D02*
X156566940Y-73667900D01*
X160275340Y-79332100D02*
X160641100Y-79332100D01*
X160641100Y-73667900D02*
X160275340Y-73667900D01*
X160641100Y-79332100D02*
X160641100Y-73667900D01*
%TO.C,U15*%
X180682100Y-79326900D02*
X180682100Y-73662700D01*
X180682100Y-73662700D02*
X180316340Y-73662700D01*
X180316340Y-79326900D02*
X180682100Y-79326900D01*
X179092060Y-73662700D02*
X176607940Y-73662700D01*
X176607940Y-79326900D02*
X179092060Y-79326900D01*
X175383660Y-73662700D02*
X175017900Y-73662700D01*
X175017900Y-79326900D02*
X175383660Y-79326900D01*
X175017900Y-73662700D02*
X175017900Y-79326900D01*
%TO.C,U7*%
X170657100Y-69332100D02*
X170657100Y-63667900D01*
X170657100Y-63667900D02*
X170291340Y-63667900D01*
X170291340Y-69332100D02*
X170657100Y-69332100D01*
X169067060Y-63667900D02*
X166582940Y-63667900D01*
X166582940Y-69332100D02*
X169067060Y-69332100D01*
X165358660Y-63667900D02*
X164992900Y-63667900D01*
X164992900Y-69332100D02*
X165358660Y-69332100D01*
X164992900Y-63667900D02*
X164992900Y-69332100D01*
%TO.C,U5*%
X166332100Y-49180750D02*
X166332100Y-43516550D01*
X166332100Y-43516550D02*
X165966340Y-43516550D01*
X165966340Y-49180750D02*
X166332100Y-49180750D01*
X164742060Y-43516550D02*
X162257940Y-43516550D01*
X162257940Y-49180750D02*
X164742060Y-49180750D01*
X161033660Y-43516550D02*
X160667900Y-43516550D01*
X160667900Y-49180750D02*
X161033660Y-49180750D01*
X160667900Y-43516550D02*
X160667900Y-49180750D01*
%TO.C,U9*%
X169167900Y-43516550D02*
X169167900Y-49180750D01*
X169167900Y-49180750D02*
X169533660Y-49180750D01*
X169533660Y-43516550D02*
X169167900Y-43516550D01*
X170757940Y-49180750D02*
X173242060Y-49180750D01*
X173242060Y-43516550D02*
X170757940Y-43516550D01*
X174466340Y-49180750D02*
X174832100Y-49180750D01*
X174832100Y-43516550D02*
X174466340Y-43516550D01*
X174832100Y-49180750D02*
X174832100Y-43516550D01*
%TO.C,U2*%
X154976900Y-53667900D02*
X154976900Y-59332100D01*
X154976900Y-59332100D02*
X155342660Y-59332100D01*
X155342660Y-53667900D02*
X154976900Y-53667900D01*
X156566940Y-59332100D02*
X159051060Y-59332100D01*
X159051060Y-53667900D02*
X156566940Y-53667900D01*
X160275340Y-59332100D02*
X160641100Y-59332100D01*
X160641100Y-53667900D02*
X160275340Y-53667900D01*
X160641100Y-59332100D02*
X160641100Y-53667900D01*
%TO.C,U16*%
X180682100Y-89326900D02*
X180682100Y-83662700D01*
X180682100Y-83662700D02*
X180316340Y-83662700D01*
X180316340Y-89326900D02*
X180682100Y-89326900D01*
X179092060Y-83662700D02*
X176607940Y-83662700D01*
X176607940Y-89326900D02*
X179092060Y-89326900D01*
X175383660Y-83662700D02*
X175017900Y-83662700D01*
X175017900Y-89326900D02*
X175383660Y-89326900D01*
X175017900Y-83662700D02*
X175017900Y-89326900D01*
%TO.C,U10*%
X175017900Y-53662700D02*
X175017900Y-59326900D01*
X175017900Y-59326900D02*
X175383660Y-59326900D01*
X175383660Y-53662700D02*
X175017900Y-53662700D01*
X176607940Y-59326900D02*
X179092060Y-59326900D01*
X179092060Y-53662700D02*
X176607940Y-53662700D01*
X180316340Y-59326900D02*
X180682100Y-59326900D01*
X180682100Y-53662700D02*
X180316340Y-53662700D01*
X180682100Y-59326900D02*
X180682100Y-53662700D01*
%TO.C,U11*%
X170657100Y-79332100D02*
X170657100Y-73667900D01*
X170657100Y-73667900D02*
X170291340Y-73667900D01*
X170291340Y-79332100D02*
X170657100Y-79332100D01*
X169067060Y-73667900D02*
X166582940Y-73667900D01*
X166582940Y-79332100D02*
X169067060Y-79332100D01*
X165358660Y-73667900D02*
X164992900Y-73667900D01*
X164992900Y-79332100D02*
X165358660Y-79332100D01*
X164992900Y-73667900D02*
X164992900Y-79332100D01*
%TD*%
M02*
