%TF.GenerationSoftware,KiCad,Pcbnew,8.0.1*%
%TF.CreationDate,2024-03-23T20:17:51-05:00*%
%TF.ProjectId,TTWR Keypad,54545752-204b-4657-9970-61642e6b6963,V01*%
%TF.SameCoordinates,Original*%
%TF.FileFunction,Copper,L2,Bot*%
%TF.FilePolarity,Positive*%
%FSLAX46Y46*%
G04 Gerber Fmt 4.6, Leading zero omitted, Abs format (unit mm)*
G04 Created by KiCad (PCBNEW 8.0.1) date 2024-03-23 20:17:51*
%MOMM*%
%LPD*%
G01*
G04 APERTURE LIST*
G04 Aperture macros list*
%AMRoundRect*
0 Rectangle with rounded corners*
0 $1 Rounding radius*
0 $2 $3 $4 $5 $6 $7 $8 $9 X,Y pos of 4 corners*
0 Add a 4 corners polygon primitive as box body*
4,1,4,$2,$3,$4,$5,$6,$7,$8,$9,$2,$3,0*
0 Add four circle primitives for the rounded corners*
1,1,$1+$1,$2,$3*
1,1,$1+$1,$4,$5*
1,1,$1+$1,$6,$7*
1,1,$1+$1,$8,$9*
0 Add four rect primitives between the rounded corners*
20,1,$1+$1,$2,$3,$4,$5,0*
20,1,$1+$1,$4,$5,$6,$7,0*
20,1,$1+$1,$6,$7,$8,$9,0*
20,1,$1+$1,$8,$9,$2,$3,0*%
%AMFreePoly0*
4,1,19,0.500000,-0.750000,0.000000,-0.750000,0.000000,-0.744911,-0.071157,-0.744911,-0.207708,-0.704816,-0.327430,-0.627875,-0.420627,-0.520320,-0.479746,-0.390866,-0.500000,-0.250000,-0.500000,0.250000,-0.479746,0.390866,-0.420627,0.520320,-0.327430,0.627875,-0.207708,0.704816,-0.071157,0.744911,0.000000,0.744911,0.000000,0.750000,0.500000,0.750000,0.500000,-0.750000,0.500000,-0.750000,
$1*%
%AMFreePoly1*
4,1,19,0.000000,0.744911,0.071157,0.744911,0.207708,0.704816,0.327430,0.627875,0.420627,0.520320,0.479746,0.390866,0.500000,0.250000,0.500000,-0.250000,0.479746,-0.390866,0.420627,-0.520320,0.327430,-0.627875,0.207708,-0.704816,0.071157,-0.744911,0.000000,-0.744911,0.000000,-0.750000,-0.500000,-0.750000,-0.500000,0.750000,0.000000,0.750000,0.000000,0.744911,0.000000,0.744911,
$1*%
G04 Aperture macros list end*
%TA.AperFunction,ComponentPad*%
%ADD10R,0.850000X0.850000*%
%TD*%
%TA.AperFunction,ComponentPad*%
%ADD11O,0.850000X0.850000*%
%TD*%
%TA.AperFunction,SMDPad,CuDef*%
%ADD12FreePoly0,180.000000*%
%TD*%
%TA.AperFunction,SMDPad,CuDef*%
%ADD13FreePoly1,180.000000*%
%TD*%
%TA.AperFunction,SMDPad,CuDef*%
%ADD14RoundRect,0.155000X-0.212500X-0.155000X0.212500X-0.155000X0.212500X0.155000X-0.212500X0.155000X0*%
%TD*%
%TA.AperFunction,SMDPad,CuDef*%
%ADD15RoundRect,0.225000X0.375000X-0.225000X0.375000X0.225000X-0.375000X0.225000X-0.375000X-0.225000X0*%
%TD*%
%TA.AperFunction,SMDPad,CuDef*%
%ADD16FreePoly0,270.000000*%
%TD*%
%TA.AperFunction,SMDPad,CuDef*%
%ADD17FreePoly1,270.000000*%
%TD*%
%TA.AperFunction,SMDPad,CuDef*%
%ADD18RoundRect,0.225000X-0.375000X0.225000X-0.375000X-0.225000X0.375000X-0.225000X0.375000X0.225000X0*%
%TD*%
%TA.AperFunction,SMDPad,CuDef*%
%ADD19RoundRect,0.160000X-0.160000X0.197500X-0.160000X-0.197500X0.160000X-0.197500X0.160000X0.197500X0*%
%TD*%
%TA.AperFunction,ViaPad*%
%ADD20C,0.800000*%
%TD*%
%TA.AperFunction,Conductor*%
%ADD21C,0.250000*%
%TD*%
G04 APERTURE END LIST*
D10*
%TO.P,J2,1,Pin_1*%
%TO.N,Net-(J2-Pin_1)*%
X151000000Y-93000000D03*
D11*
%TO.P,J2,2,Pin_2*%
%TO.N,unconnected-(J2-Pin_2-Pad2)*%
X151000000Y-92000000D03*
%TO.P,J2,3,Pin_3*%
%TO.N,unconnected-(J2-Pin_3-Pad3)*%
X151000000Y-91000000D03*
%TO.P,J2,4,Pin_4*%
%TO.N,unconnected-(J2-Pin_4-Pad4)*%
X151000000Y-90000000D03*
%TO.P,J2,5,Pin_5*%
%TO.N,unconnected-(J2-Pin_5-Pad5)*%
X151000000Y-89000000D03*
%TO.P,J2,6,Pin_6*%
%TO.N,unconnected-(J2-Pin_6-Pad6)*%
X151000000Y-88000000D03*
%TO.P,J2,7,Pin_7*%
%TO.N,unconnected-(J2-Pin_7-Pad7)*%
X151000000Y-87000000D03*
%TO.P,J2,8,Pin_8*%
%TO.N,unconnected-(J2-Pin_8-Pad8)*%
X151000000Y-86000000D03*
%TO.P,J2,9,Pin_9*%
%TO.N,unconnected-(J2-Pin_9-Pad9)*%
X151000000Y-85000000D03*
%TO.P,J2,10,Pin_10*%
%TO.N,unconnected-(J2-Pin_10-Pad10)*%
X151000000Y-84000000D03*
%TO.P,J2,11,Pin_11*%
%TO.N,unconnected-(J2-Pin_11-Pad11)*%
X151000000Y-83000000D03*
%TO.P,J2,12,Pin_12*%
%TO.N,unconnected-(J2-Pin_12-Pad12)*%
X151000000Y-82000000D03*
%TO.P,J2,13,Pin_13*%
%TO.N,GND*%
X151000000Y-81000000D03*
%TO.P,J2,14,Pin_14*%
%TO.N,unconnected-(J2-Pin_14-Pad14)*%
X151000000Y-80000000D03*
%TO.P,J2,15,Pin_15*%
%TO.N,GND*%
X151000000Y-79000000D03*
%TD*%
D10*
%TO.P,J1,1,Pin_1*%
%TO.N,GND*%
X184500000Y-93000000D03*
D11*
%TO.P,J1,2,Pin_2*%
%TO.N,unconnected-(J1-Pin_2-Pad2)*%
X184500000Y-92000000D03*
%TO.P,J1,3,Pin_3*%
%TO.N,unconnected-(J1-Pin_3-Pad3)*%
X184500000Y-91000000D03*
%TO.P,J1,4,Pin_4*%
%TO.N,unconnected-(J1-Pin_4-Pad4)*%
X184500000Y-90000000D03*
%TO.P,J1,5,Pin_5*%
%TO.N,/IO Expander/SDA*%
X184500000Y-89000000D03*
%TO.P,J1,6,Pin_6*%
%TO.N,/IO Expander/SCL*%
X184500000Y-88000000D03*
%TO.P,J1,7,Pin_7*%
%TO.N,GND*%
X184500000Y-87000000D03*
%TO.P,J1,8,Pin_8*%
%TO.N,+3.3V*%
X184500000Y-86000000D03*
%TO.P,J1,9,Pin_9*%
%TO.N,unconnected-(J1-Pin_9-Pad9)*%
X184500000Y-85000000D03*
%TO.P,J1,10,Pin_10*%
%TO.N,unconnected-(J1-Pin_10-Pad10)*%
X184500000Y-84000000D03*
%TO.P,J1,11,Pin_11*%
%TO.N,unconnected-(J1-Pin_11-Pad11)*%
X184500000Y-83000000D03*
%TO.P,J1,12,Pin_12*%
%TO.N,unconnected-(J1-Pin_12-Pad12)*%
X184500000Y-82000000D03*
%TO.P,J1,13,Pin_13*%
%TO.N,unconnected-(J1-Pin_13-Pad13)*%
X184500000Y-81000000D03*
%TO.P,J1,14,Pin_14*%
%TO.N,unconnected-(J1-Pin_14-Pad14)*%
X184500000Y-80000000D03*
%TO.P,J1,15,Pin_15*%
%TO.N,unconnected-(J1-Pin_15-Pad15)*%
X184500000Y-79000000D03*
%TD*%
D12*
%TO.P,JP4,1,A*%
%TO.N,/IO Expander/INT*%
X154100000Y-93000000D03*
D13*
%TO.P,JP4,2,B*%
%TO.N,Net-(J2-Pin_1)*%
X152800000Y-93000000D03*
%TD*%
D14*
%TO.P,C1,1*%
%TO.N,+3.3V*%
X183000000Y-64200000D03*
%TO.P,C1,2*%
%TO.N,GND*%
X184135000Y-64200000D03*
%TD*%
D15*
%TO.P,D2,1,K*%
%TO.N,ROW_1*%
X161500000Y-61650000D03*
%TO.P,D2,2,A*%
%TO.N,Net-(D2-A)*%
X161500000Y-58350000D03*
%TD*%
%TO.P,D7,1,K*%
%TO.N,ROW_2*%
X167750000Y-71650000D03*
%TO.P,D7,2,A*%
%TO.N,Net-(D7-A)*%
X167750000Y-68350000D03*
%TD*%
D16*
%TO.P,JP3,1,A*%
%TO.N,+3.3V*%
X151700000Y-59300000D03*
D17*
%TO.P,JP3,2,B*%
%TO.N,/IO Expander/A2*%
X151700000Y-60600000D03*
%TD*%
D18*
%TO.P,D15,1,K*%
%TO.N,ROW_2*%
X174000000Y-78350000D03*
%TO.P,D15,2,A*%
%TO.N,Net-(D15-A)*%
X174000000Y-81650000D03*
%TD*%
D15*
%TO.P,D6,1,K*%
%TO.N,ROW_1*%
X167750000Y-61650000D03*
%TO.P,D6,2,A*%
%TO.N,Net-(D6-A)*%
X167750000Y-58350000D03*
%TD*%
D16*
%TO.P,JP1,1,A*%
%TO.N,+3.3V*%
X157100000Y-59300000D03*
D17*
%TO.P,JP1,2,B*%
%TO.N,/IO Expander/A0*%
X157100000Y-60600000D03*
%TD*%
D14*
%TO.P,C2,1*%
%TO.N,+3.3V*%
X183000000Y-65200000D03*
%TO.P,C2,2*%
%TO.N,GND*%
X184135000Y-65200000D03*
%TD*%
D18*
%TO.P,D16,1,K*%
%TO.N,ROW_3*%
X174000000Y-88350000D03*
%TO.P,D16,2,A*%
%TO.N,Net-(D16-A)*%
X174000000Y-91650000D03*
%TD*%
D19*
%TO.P,R4,1*%
%TO.N,/IO Expander/A1*%
X154400000Y-62905000D03*
%TO.P,R4,2*%
%TO.N,GND*%
X154400000Y-64100000D03*
%TD*%
%TO.P,R5,1*%
%TO.N,/IO Expander/A2*%
X151700000Y-62905000D03*
%TO.P,R5,2*%
%TO.N,GND*%
X151700000Y-64100000D03*
%TD*%
D15*
%TO.P,D10,1,K*%
%TO.N,ROW_1*%
X174000000Y-61650000D03*
%TO.P,D10,2,A*%
%TO.N,Net-(D10-A)*%
X174000000Y-58350000D03*
%TD*%
%TO.P,D9,1,K*%
%TO.N,ROW_0*%
X172000000Y-48000000D03*
%TO.P,D9,2,A*%
%TO.N,Net-(D9-A)*%
X172000000Y-44700000D03*
%TD*%
%TO.P,D13,1,K*%
%TO.N,ROW_0*%
X180500000Y-48000000D03*
%TO.P,D13,2,A*%
%TO.N,Net-(D13-A)*%
X180500000Y-44700000D03*
%TD*%
%TO.P,D1,1,K*%
%TO.N,ROW_0*%
X155000000Y-48000000D03*
%TO.P,D1,2,A*%
%TO.N,Net-(D1-A)*%
X155000000Y-44700000D03*
%TD*%
%TO.P,D4,1,K*%
%TO.N,ROW_3*%
X161500000Y-81650000D03*
%TO.P,D4,2,A*%
%TO.N,Net-(D4-A)*%
X161500000Y-78350000D03*
%TD*%
%TO.P,D3,1,K*%
%TO.N,ROW_2*%
X161500000Y-71650000D03*
%TO.P,D3,2,A*%
%TO.N,Net-(D3-A)*%
X161500000Y-68350000D03*
%TD*%
D19*
%TO.P,R3,1*%
%TO.N,/IO Expander/A0*%
X157100000Y-62905000D03*
%TO.P,R3,2*%
%TO.N,GND*%
X157100000Y-64100000D03*
%TD*%
D18*
%TO.P,D12,1,K*%
%TO.N,ROW_3*%
X167750000Y-88350000D03*
%TO.P,D12,2,A*%
%TO.N,Net-(D12-A)*%
X167750000Y-91650000D03*
%TD*%
D16*
%TO.P,JP2,1,A*%
%TO.N,+3.3V*%
X154400000Y-59300000D03*
D17*
%TO.P,JP2,2,B*%
%TO.N,/IO Expander/A1*%
X154400000Y-60600000D03*
%TD*%
D15*
%TO.P,D5,1,K*%
%TO.N,ROW_0*%
X163500000Y-48000000D03*
%TO.P,D5,2,A*%
%TO.N,Net-(D5-A)*%
X163500000Y-44700000D03*
%TD*%
D18*
%TO.P,D11,1,K*%
%TO.N,ROW_2*%
X167750000Y-78350000D03*
%TO.P,D11,2,A*%
%TO.N,Net-(D11-A)*%
X167750000Y-81650000D03*
%TD*%
%TO.P,D8,1,K*%
%TO.N,ROW_3*%
X161500000Y-88350000D03*
%TO.P,D8,2,A*%
%TO.N,Net-(D8-A)*%
X161500000Y-91650000D03*
%TD*%
%TO.P,D14,1,K*%
%TO.N,ROW_1*%
X174000000Y-68350000D03*
%TO.P,D14,2,A*%
%TO.N,Net-(D14-A)*%
X174000000Y-71650000D03*
%TD*%
D20*
%TO.N,Net-(D1-A)*%
X155000000Y-43000000D03*
%TO.N,Net-(D2-A)*%
X161500000Y-57000000D03*
%TO.N,Net-(D3-A)*%
X161500000Y-67000000D03*
%TO.N,Net-(D4-A)*%
X161500000Y-77000000D03*
%TO.N,Net-(D8-A)*%
X161500000Y-93000000D03*
%TO.N,Net-(D9-A)*%
X172000000Y-43000000D03*
%TO.N,Net-(D10-A)*%
X174000000Y-57000000D03*
%TO.N,Net-(D11-A)*%
X167750000Y-83000000D03*
%TO.N,Net-(D12-A)*%
X167750000Y-93000000D03*
%TO.N,Net-(D13-A)*%
X180500000Y-43000000D03*
%TO.N,Net-(D14-A)*%
X174000000Y-73000000D03*
%TO.N,Net-(D15-A)*%
X174000000Y-83000000D03*
%TO.N,Net-(D16-A)*%
X174000000Y-93000000D03*
%TO.N,Net-(D5-A)*%
X163500000Y-43000000D03*
%TO.N,Net-(D6-A)*%
X167750000Y-57000000D03*
%TO.N,Net-(D7-A)*%
X167750000Y-67000000D03*
%TO.N,+3.3V*%
X157100000Y-55000000D03*
X178300000Y-67300000D03*
X151700000Y-58300000D03*
X182975001Y-63000000D03*
X154400000Y-58300000D03*
X157100000Y-58300000D03*
%TO.N,GND*%
X157000000Y-93000000D03*
X157000000Y-95000000D03*
X179475001Y-56500000D03*
%TO.N,ROW_1*%
X177975001Y-59000000D03*
%TO.N,ROW_2*%
X177975001Y-60500000D03*
%TO.N,ROW_3*%
X177975001Y-62000000D03*
%TO.N,/IO Expander/SDA*%
X182000000Y-73400000D03*
X179500000Y-73500000D03*
X182000000Y-85500000D03*
X182000000Y-89000000D03*
%TO.N,/IO Expander/A0*%
X154000000Y-54000000D03*
X183975001Y-61500000D03*
X156000000Y-54000000D03*
%TO.N,/IO Expander/A1*%
X154000000Y-53000000D03*
X183987654Y-60487347D03*
X156000000Y-53000000D03*
%TO.N,/IO Expander/A2*%
X183987654Y-59000000D03*
X156000000Y-52000000D03*
X154000000Y-52000000D03*
%TO.N,/IO Expander/INT*%
X179475001Y-63000000D03*
%TO.N,ROW_0*%
X177975001Y-57500000D03*
%TD*%
D21*
%TO.N,Net-(D1-A)*%
X155000000Y-44700000D02*
X155000000Y-43000000D01*
%TO.N,Net-(D2-A)*%
X161500000Y-58350000D02*
X161500000Y-57000000D01*
%TO.N,Net-(D3-A)*%
X161500000Y-68350000D02*
X161350000Y-68350000D01*
X161500000Y-68350000D02*
X161500000Y-67000000D01*
%TO.N,Net-(D4-A)*%
X161500000Y-78350000D02*
X161500000Y-77000000D01*
%TO.N,Net-(D8-A)*%
X161500000Y-91650000D02*
X161500000Y-93000000D01*
X161150000Y-91650000D02*
X161500000Y-91650000D01*
%TO.N,Net-(D9-A)*%
X172000000Y-44700000D02*
X172000000Y-43000000D01*
%TO.N,Net-(D10-A)*%
X174000000Y-58350000D02*
X174000000Y-57000000D01*
%TO.N,Net-(D11-A)*%
X167750000Y-81650000D02*
X167750000Y-83000000D01*
%TO.N,Net-(D12-A)*%
X167750000Y-91650000D02*
X167750000Y-93000000D01*
%TO.N,Net-(D13-A)*%
X180500000Y-44700000D02*
X180500000Y-43000000D01*
%TO.N,Net-(D14-A)*%
X174000000Y-71650000D02*
X174000000Y-73000000D01*
%TO.N,Net-(D15-A)*%
X174000000Y-81650000D02*
X174000000Y-83000000D01*
%TO.N,Net-(D16-A)*%
X174000000Y-91650000D02*
X174000000Y-93000000D01*
%TO.N,Net-(D5-A)*%
X163500000Y-44700000D02*
X163500000Y-43000000D01*
%TO.N,Net-(D6-A)*%
X167750000Y-58350000D02*
X167750000Y-57000000D01*
%TO.N,Net-(D7-A)*%
X167750000Y-68350000D02*
X167750000Y-67000000D01*
%TO.N,+3.3V*%
X179600000Y-65200000D02*
X183000000Y-65200000D01*
X157100000Y-55000000D02*
X177200000Y-55000000D01*
X183000000Y-63024999D02*
X182975001Y-63000000D01*
X154400000Y-59300000D02*
X154400000Y-58300000D01*
X178300000Y-66500000D02*
X179600000Y-65200000D01*
X177200000Y-55000000D02*
X178750001Y-56550001D01*
X157100000Y-59300000D02*
X157100000Y-58300000D01*
X178750001Y-56550001D02*
X178750001Y-58775000D01*
X183000000Y-65200000D02*
X183000000Y-64200000D01*
X178300000Y-67300000D02*
X178300000Y-66500000D01*
X178750001Y-58775000D02*
X182975001Y-63000000D01*
X151700000Y-59300000D02*
X151700000Y-58300000D01*
X183000000Y-64200000D02*
X183000000Y-63024999D01*
%TO.N,GND*%
X151700000Y-64800000D02*
X151000000Y-65500000D01*
X151000000Y-81000000D02*
X157000000Y-81000000D01*
X184500000Y-75500000D02*
X183000000Y-77000000D01*
X151000000Y-65500000D02*
X151000000Y-79000000D01*
X184135000Y-65200000D02*
X184500000Y-65200000D01*
X183000000Y-87000000D02*
X183000000Y-91500000D01*
X182500000Y-95000000D02*
X157000000Y-95000000D01*
X184135000Y-62835000D02*
X179475001Y-58175001D01*
X157000000Y-81000000D02*
X157000000Y-80000000D01*
X184500000Y-65200000D02*
X184500000Y-75500000D01*
X157000000Y-93000000D02*
X157000000Y-81000000D01*
X154400000Y-64100000D02*
X151700000Y-64100000D01*
X184500000Y-93000000D02*
X182500000Y-95000000D01*
X183000000Y-77000000D02*
X183000000Y-87000000D01*
X157000000Y-80000000D02*
X156000000Y-79000000D01*
X151700000Y-64100000D02*
X151700000Y-64800000D01*
X184500000Y-87000000D02*
X183000000Y-87000000D01*
X184135000Y-64200000D02*
X184135000Y-62835000D01*
X179475001Y-58175001D02*
X179475001Y-56500000D01*
X184135000Y-64200000D02*
X184500000Y-64200000D01*
X184500000Y-65200000D02*
X184500000Y-64200000D01*
X157100000Y-64100000D02*
X154400000Y-64100000D01*
X183000000Y-91500000D02*
X184500000Y-93000000D01*
X156000000Y-79000000D02*
X151000000Y-79000000D01*
%TO.N,ROW_1*%
X174000000Y-61650000D02*
X167750000Y-61650000D01*
X174000000Y-61650000D02*
X175100000Y-61650000D01*
X175300000Y-61650000D02*
X175100000Y-61650000D01*
X167750000Y-61650000D02*
X161500000Y-61650000D01*
X177950000Y-59000000D02*
X175300000Y-61650000D01*
X177975001Y-59000000D02*
X177950000Y-59000000D01*
X174000000Y-68350000D02*
X174000000Y-61650000D01*
%TO.N,ROW_2*%
X176000000Y-62500000D02*
X176000000Y-76700000D01*
X177975001Y-60524999D02*
X176000000Y-62500000D01*
X167750000Y-71650000D02*
X161500000Y-71650000D01*
X177975001Y-60500000D02*
X177975001Y-60524999D01*
X167750000Y-71650000D02*
X167750000Y-78350000D01*
X174350000Y-78350000D02*
X174000000Y-78350000D01*
X167750000Y-78350000D02*
X174000000Y-78350000D01*
X176000000Y-76700000D02*
X174350000Y-78350000D01*
%TO.N,ROW_3*%
X161500000Y-88350000D02*
X167750000Y-88350000D01*
X177900000Y-62000000D02*
X176500000Y-63400000D01*
X161500000Y-81650000D02*
X161500000Y-88350000D01*
X176500000Y-63400000D02*
X176500000Y-85850000D01*
X167750000Y-88350000D02*
X174000000Y-88350000D01*
X177975001Y-62000000D02*
X177900000Y-62000000D01*
X161500000Y-81650000D02*
X160850000Y-81650000D01*
X176500000Y-85850000D02*
X174000000Y-88350000D01*
%TO.N,unconnected-(J1-Pin_2-Pad2)*%
X184500000Y-92000000D02*
X184439339Y-92000000D01*
%TO.N,/IO Expander/SDA*%
X179600000Y-73400000D02*
X179500000Y-73500000D01*
X182000000Y-73400000D02*
X179600000Y-73400000D01*
X182000000Y-89000000D02*
X182000000Y-85500000D01*
%TO.N,Net-(J2-Pin_1)*%
X152800000Y-93000000D02*
X151000000Y-93000000D01*
%TO.N,/IO Expander/A0*%
X154000000Y-56200000D02*
X156020000Y-58220000D01*
X157100000Y-63002500D02*
X157100000Y-60600000D01*
X182000000Y-59524999D02*
X182000000Y-55000000D01*
X154000000Y-54000000D02*
X154000000Y-56200000D01*
X182000000Y-55000000D02*
X181000000Y-54000000D01*
X156020000Y-58220000D02*
X156020000Y-60600000D01*
X157100000Y-60600000D02*
X156020000Y-60600000D01*
X181000000Y-54000000D02*
X156000000Y-54000000D01*
X183975001Y-61500000D02*
X182000000Y-59524999D01*
%TO.N,/IO Expander/A1*%
X183987654Y-60487347D02*
X183987654Y-60400000D01*
X183987654Y-60400000D02*
X183000000Y-59412346D01*
X154400000Y-63005000D02*
X154400000Y-60600000D01*
X153974695Y-53000000D02*
X153275000Y-53699695D01*
X183987654Y-60187654D02*
X183987654Y-60487347D01*
X154000000Y-53000000D02*
X153974695Y-53000000D01*
X183000000Y-54100000D02*
X181900000Y-53000000D01*
X181900000Y-53000000D02*
X156000000Y-53000000D01*
X153275000Y-53699695D02*
X153275000Y-60600000D01*
X154400000Y-60600000D02*
X153275000Y-60600000D01*
X183000000Y-59412346D02*
X183000000Y-54100000D01*
%TO.N,/IO Expander/A2*%
X153974695Y-52000000D02*
X150620000Y-55354695D01*
X183987654Y-53112346D02*
X183987654Y-59000000D01*
X150620000Y-55354695D02*
X150620000Y-60600000D01*
X156000000Y-52000000D02*
X182900000Y-52000000D01*
X182900000Y-52000000D02*
X184000000Y-53100000D01*
X151700000Y-62905000D02*
X151700000Y-60600000D01*
X184000000Y-53100000D02*
X183987654Y-53112346D01*
X154000000Y-52000000D02*
X153974695Y-52000000D01*
X151700000Y-60600000D02*
X150620000Y-60600000D01*
%TO.N,/IO Expander/INT*%
X177000000Y-65500000D02*
X179475001Y-63024999D01*
X177000000Y-93000000D02*
X177000000Y-65500000D01*
X154900000Y-93800000D02*
X176200000Y-93800000D01*
X154100000Y-93000000D02*
X154900000Y-93800000D01*
X176200000Y-93800000D02*
X177000000Y-93000000D01*
X179475001Y-63024999D02*
X179475001Y-63000000D01*
%TO.N,ROW_0*%
X156500000Y-56300000D02*
X155000000Y-54800000D01*
X180500000Y-48000000D02*
X172000000Y-48000000D01*
X177975001Y-57500000D02*
X176750001Y-56275000D01*
X156525000Y-56275000D02*
X156500000Y-56300000D01*
X163500000Y-48000000D02*
X155000000Y-48000000D01*
X172000000Y-48000000D02*
X163500000Y-48000000D01*
X155000000Y-54800000D02*
X155000000Y-48000000D01*
X176750001Y-56275000D02*
X156525000Y-56275000D01*
%TD*%
M02*
