M48
; DRILL file {KiCad 8.0.1} date 2024-03-29T18:45:20-0500
; FORMAT={-:-/ absolute / inch / decimal}
; #@! TF.CreationDate,2024-03-29T18:45:20-05:00
; #@! TF.GenerationSoftware,Kicad,Pcbnew,8.0.1
; #@! TF.FileFunction,Plated,1,4,PTH
FMAT,2
INCH
; #@! TA.AperFunction,Plated,PTH,ViaDrill
T1C0.0157
; #@! TA.AperFunction,Plated,PTH,ComponentDrill
T2C0.0197
%
G90
G05
T1
X6.1014Y-3.5433
X6.1024Y-1.6929
X6.2116Y-3.4311
X6.2116Y-3.5689
X6.2126Y-2.0994
X6.2126Y-2.4931
X6.2126Y-2.8858
X6.2126Y-3.1299
X6.2854Y-3.1939
X6.3189Y-3.2805
X6.3189Y-3.3809
X6.3376Y-3.1368
X6.437Y-1.6929
X6.4959Y-3.3305
X6.4961Y-3.2303
X6.5344Y-3.6211
X6.6073Y-2.0994
X6.6073Y-2.4931
X6.6073Y-3.1368
X6.6693Y-3.6614
X6.7717Y-1.6929
X6.8888Y-3.2303
X6.8898Y-3.2805
X6.8898Y-3.3307
X6.8898Y-3.3809
X6.8898Y-3.4311
X6.8898Y-3.4793
X6.8898Y-3.5315
X6.8898Y-3.5807
X6.9665Y-3.1368
X6.9911Y-3.3858
X6.998Y-3.5305
X7.002Y-2.0984
X7.002Y-2.7431
X7.1063Y-1.6929
X7.1122Y-3.4321
X7.1142Y-3.1614
X7.1142Y-3.2805
X7.186Y-3.1624
T2
X5.9449Y-3.1102
X5.9449Y-3.1496
X5.9449Y-3.189
X5.9449Y-3.2283
X5.9449Y-3.2677
X5.9449Y-3.3071
X5.9449Y-3.3465
X5.9449Y-3.3858
X5.9449Y-3.4252
X5.9449Y-3.4646
X5.9449Y-3.5039
X5.9449Y-3.5433
X5.9449Y-3.5827
X5.9449Y-3.622
X5.9449Y-3.6614
X7.2638Y-3.1102
X7.2638Y-3.1496
X7.2638Y-3.189
X7.2638Y-3.2283
X7.2638Y-3.2677
X7.2638Y-3.3071
X7.2638Y-3.3465
X7.2638Y-3.3858
X7.2638Y-3.4252
X7.2638Y-3.4646
X7.2638Y-3.5039
X7.2638Y-3.5433
X7.2638Y-3.5827
X7.2638Y-3.622
X7.2638Y-3.6614
M30
