%TF.GenerationSoftware,KiCad,Pcbnew,8.0.1*%
%TF.CreationDate,2024-03-24T18:55:27-05:00*%
%TF.ProjectId,TTWR Keypad,54545752-204b-4657-9970-61642e6b6963,V01*%
%TF.SameCoordinates,Original*%
%TF.FileFunction,Drillmap*%
%TF.FilePolarity,Positive*%
%FSLAX45Y45*%
G04 Gerber Fmt 4.5, Leading zero omitted, Abs format (unit mm)*
G04 Created by KiCad (PCBNEW 8.0.1) date 2024-03-24 18:55:27*
%MOMM*%
%LPD*%
G01*
G04 APERTURE LIST*
%ADD10C,0.100000*%
%ADD11C,0.200000*%
G04 APERTURE END LIST*
D10*
X15000000Y-4250000D02*
X15000000Y-9750000D01*
X18300000Y-4000000D02*
X15250000Y-4000000D01*
X18550000Y-9750000D02*
X18550000Y-4250000D01*
X18300000Y-10000000D02*
X15250000Y-10000000D01*
X18300000Y-4000000D02*
G75*
G02*
X18550000Y-4250000I0J-250000D01*
G01*
X15000000Y-4250000D02*
G75*
G02*
X15250000Y-4000000I250000J0D01*
G01*
X15250000Y-10000000D02*
G75*
G02*
X15000000Y-9750000I0J250000D01*
G01*
X18550000Y-9750000D02*
G75*
G02*
X18300000Y-10000000I-250000J0D01*
G01*
X15375000Y-9750000D02*
G75*
G02*
X15125000Y-9750000I-125000J0D01*
G01*
X15125000Y-9750000D02*
G75*
G02*
X15375000Y-9750000I125000J0D01*
G01*
X18425000Y-9750000D02*
G75*
G02*
X18175000Y-9750000I-125000J0D01*
G01*
X18175000Y-9750000D02*
G75*
G02*
X18425000Y-9750000I125000J0D01*
G01*
D11*
D10*
X15477500Y-8980000D02*
X15517500Y-9020000D01*
X15517500Y-8980000D02*
X15477500Y-9020000D01*
X15480000Y-4280000D02*
X15520000Y-4320000D01*
X15520000Y-4280000D02*
X15480000Y-4320000D01*
X15757500Y-8695000D02*
X15797500Y-8735000D01*
X15797500Y-8695000D02*
X15757500Y-8735000D01*
X15757500Y-8947500D02*
X15797500Y-8987500D01*
X15797500Y-8947500D02*
X15757500Y-8987500D01*
X15760000Y-5312500D02*
X15800000Y-5352500D01*
X15800000Y-5312500D02*
X15760000Y-5352500D01*
X15760000Y-6312500D02*
X15800000Y-6352500D01*
X15800000Y-6312500D02*
X15760000Y-6352500D01*
X15760000Y-7310000D02*
X15800000Y-7350000D01*
X15800000Y-7310000D02*
X15760000Y-7350000D01*
X15760000Y-7930000D02*
X15800000Y-7970000D01*
X15800000Y-7930000D02*
X15760000Y-7970000D01*
X15945000Y-8092500D02*
X15985000Y-8132500D01*
X15985000Y-8092500D02*
X15945000Y-8132500D01*
X16030000Y-8312500D02*
X16070000Y-8352500D01*
X16070000Y-8312500D02*
X16030000Y-8352500D01*
X16030000Y-8567500D02*
X16070000Y-8607500D01*
X16070000Y-8567500D02*
X16030000Y-8607500D01*
X16077500Y-7947500D02*
X16117500Y-7987500D01*
X16117500Y-7947500D02*
X16077500Y-7987500D01*
X16330000Y-4280000D02*
X16370000Y-4320000D01*
X16370000Y-4280000D02*
X16330000Y-4320000D01*
X16479500Y-8439500D02*
X16519500Y-8479500D01*
X16519500Y-8439500D02*
X16479500Y-8479500D01*
X16480000Y-8185000D02*
X16520000Y-8225000D01*
X16520000Y-8185000D02*
X16480000Y-8225000D01*
X16577500Y-9177500D02*
X16617500Y-9217500D01*
X16617500Y-9177500D02*
X16577500Y-9217500D01*
X16762500Y-5312500D02*
X16802500Y-5352500D01*
X16802500Y-5312500D02*
X16762500Y-5352500D01*
X16762500Y-6312500D02*
X16802500Y-6352500D01*
X16802500Y-6312500D02*
X16762500Y-6352500D01*
X16762500Y-7947500D02*
X16802500Y-7987500D01*
X16802500Y-7947500D02*
X16762500Y-7987500D01*
X16920000Y-9280000D02*
X16960000Y-9320000D01*
X16960000Y-9280000D02*
X16920000Y-9320000D01*
X17180000Y-4280000D02*
X17220000Y-4320000D01*
X17220000Y-4280000D02*
X17180000Y-4320000D01*
X17477500Y-8185000D02*
X17517500Y-8225000D01*
X17517500Y-8185000D02*
X17477500Y-8225000D01*
X17480000Y-8312500D02*
X17520000Y-8352500D01*
X17520000Y-8312500D02*
X17480000Y-8352500D01*
X17480000Y-8440000D02*
X17520000Y-8480000D01*
X17520000Y-8440000D02*
X17480000Y-8480000D01*
X17480000Y-8567500D02*
X17520000Y-8607500D01*
X17520000Y-8567500D02*
X17480000Y-8607500D01*
X17480000Y-8695000D02*
X17520000Y-8735000D01*
X17520000Y-8695000D02*
X17480000Y-8735000D01*
X17480000Y-8817500D02*
X17520000Y-8857500D01*
X17520000Y-8817500D02*
X17480000Y-8857500D01*
X17480000Y-8950000D02*
X17520000Y-8990000D01*
X17520000Y-8950000D02*
X17480000Y-8990000D01*
X17480000Y-9075000D02*
X17520000Y-9115000D01*
X17520000Y-9075000D02*
X17480000Y-9115000D01*
X17675000Y-7947500D02*
X17715000Y-7987500D01*
X17715000Y-7947500D02*
X17675000Y-7987500D01*
X17705000Y-8582500D02*
X17745000Y-8622500D01*
X17745000Y-8582500D02*
X17705000Y-8622500D01*
X17755000Y-8947500D02*
X17795000Y-8987500D01*
X17795000Y-8947500D02*
X17755000Y-8987500D01*
X17765000Y-5310000D02*
X17805000Y-5350000D01*
X17805000Y-5310000D02*
X17765000Y-5350000D01*
X17765000Y-6947500D02*
X17805000Y-6987500D01*
X17805000Y-6947500D02*
X17765000Y-6987500D01*
X18030000Y-4280000D02*
X18070000Y-4320000D01*
X18070000Y-4280000D02*
X18030000Y-4320000D01*
X18077500Y-8040000D02*
X18117500Y-8080000D01*
X18117500Y-8040000D02*
X18077500Y-8080000D01*
X18077500Y-8312500D02*
X18117500Y-8352500D01*
X18117500Y-8312500D02*
X18077500Y-8352500D01*
X18077500Y-8680000D02*
X18117500Y-8720000D01*
X18117500Y-8680000D02*
X18077500Y-8720000D01*
X18287500Y-8430000D02*
X18327500Y-8470000D01*
X18327500Y-8430000D02*
X18287500Y-8470000D01*
X15125000Y-7900000D02*
G75*
G02*
X15075000Y-7900000I-25000J0D01*
G01*
X15075000Y-7900000D02*
G75*
G02*
X15125000Y-7900000I25000J0D01*
G01*
X15125000Y-8000000D02*
G75*
G02*
X15075000Y-8000000I-25000J0D01*
G01*
X15075000Y-8000000D02*
G75*
G02*
X15125000Y-8000000I25000J0D01*
G01*
X15125000Y-8100000D02*
G75*
G02*
X15075000Y-8100000I-25000J0D01*
G01*
X15075000Y-8100000D02*
G75*
G02*
X15125000Y-8100000I25000J0D01*
G01*
X15125000Y-8200000D02*
G75*
G02*
X15075000Y-8200000I-25000J0D01*
G01*
X15075000Y-8200000D02*
G75*
G02*
X15125000Y-8200000I25000J0D01*
G01*
X15125000Y-8300000D02*
G75*
G02*
X15075000Y-8300000I-25000J0D01*
G01*
X15075000Y-8300000D02*
G75*
G02*
X15125000Y-8300000I25000J0D01*
G01*
X15125000Y-8400000D02*
G75*
G02*
X15075000Y-8400000I-25000J0D01*
G01*
X15075000Y-8400000D02*
G75*
G02*
X15125000Y-8400000I25000J0D01*
G01*
X15125000Y-8500000D02*
G75*
G02*
X15075000Y-8500000I-25000J0D01*
G01*
X15075000Y-8500000D02*
G75*
G02*
X15125000Y-8500000I25000J0D01*
G01*
X15125000Y-8600000D02*
G75*
G02*
X15075000Y-8600000I-25000J0D01*
G01*
X15075000Y-8600000D02*
G75*
G02*
X15125000Y-8600000I25000J0D01*
G01*
X15125000Y-8700000D02*
G75*
G02*
X15075000Y-8700000I-25000J0D01*
G01*
X15075000Y-8700000D02*
G75*
G02*
X15125000Y-8700000I25000J0D01*
G01*
X15125000Y-8800000D02*
G75*
G02*
X15075000Y-8800000I-25000J0D01*
G01*
X15075000Y-8800000D02*
G75*
G02*
X15125000Y-8800000I25000J0D01*
G01*
X15125000Y-8900000D02*
G75*
G02*
X15075000Y-8900000I-25000J0D01*
G01*
X15075000Y-8900000D02*
G75*
G02*
X15125000Y-8900000I25000J0D01*
G01*
X15125000Y-9000000D02*
G75*
G02*
X15075000Y-9000000I-25000J0D01*
G01*
X15075000Y-9000000D02*
G75*
G02*
X15125000Y-9000000I25000J0D01*
G01*
X15125000Y-9100000D02*
G75*
G02*
X15075000Y-9100000I-25000J0D01*
G01*
X15075000Y-9100000D02*
G75*
G02*
X15125000Y-9100000I25000J0D01*
G01*
X15125000Y-9200000D02*
G75*
G02*
X15075000Y-9200000I-25000J0D01*
G01*
X15075000Y-9200000D02*
G75*
G02*
X15125000Y-9200000I25000J0D01*
G01*
X15125000Y-9300000D02*
G75*
G02*
X15075000Y-9300000I-25000J0D01*
G01*
X15075000Y-9300000D02*
G75*
G02*
X15125000Y-9300000I25000J0D01*
G01*
X18475000Y-7900000D02*
G75*
G02*
X18425000Y-7900000I-25000J0D01*
G01*
X18425000Y-7900000D02*
G75*
G02*
X18475000Y-7900000I25000J0D01*
G01*
X18475000Y-8000000D02*
G75*
G02*
X18425000Y-8000000I-25000J0D01*
G01*
X18425000Y-8000000D02*
G75*
G02*
X18475000Y-8000000I25000J0D01*
G01*
X18475000Y-8100000D02*
G75*
G02*
X18425000Y-8100000I-25000J0D01*
G01*
X18425000Y-8100000D02*
G75*
G02*
X18475000Y-8100000I25000J0D01*
G01*
X18475000Y-8200000D02*
G75*
G02*
X18425000Y-8200000I-25000J0D01*
G01*
X18425000Y-8200000D02*
G75*
G02*
X18475000Y-8200000I25000J0D01*
G01*
X18475000Y-8300000D02*
G75*
G02*
X18425000Y-8300000I-25000J0D01*
G01*
X18425000Y-8300000D02*
G75*
G02*
X18475000Y-8300000I25000J0D01*
G01*
X18475000Y-8400000D02*
G75*
G02*
X18425000Y-8400000I-25000J0D01*
G01*
X18425000Y-8400000D02*
G75*
G02*
X18475000Y-8400000I25000J0D01*
G01*
X18475000Y-8500000D02*
G75*
G02*
X18425000Y-8500000I-25000J0D01*
G01*
X18425000Y-8500000D02*
G75*
G02*
X18475000Y-8500000I25000J0D01*
G01*
X18475000Y-8600000D02*
G75*
G02*
X18425000Y-8600000I-25000J0D01*
G01*
X18425000Y-8600000D02*
G75*
G02*
X18475000Y-8600000I25000J0D01*
G01*
X18475000Y-8700000D02*
G75*
G02*
X18425000Y-8700000I-25000J0D01*
G01*
X18425000Y-8700000D02*
G75*
G02*
X18475000Y-8700000I25000J0D01*
G01*
X18475000Y-8800000D02*
G75*
G02*
X18425000Y-8800000I-25000J0D01*
G01*
X18425000Y-8800000D02*
G75*
G02*
X18475000Y-8800000I25000J0D01*
G01*
X18475000Y-8900000D02*
G75*
G02*
X18425000Y-8900000I-25000J0D01*
G01*
X18425000Y-8900000D02*
G75*
G02*
X18475000Y-8900000I25000J0D01*
G01*
X18475000Y-9000000D02*
G75*
G02*
X18425000Y-9000000I-25000J0D01*
G01*
X18425000Y-9000000D02*
G75*
G02*
X18475000Y-9000000I25000J0D01*
G01*
X18475000Y-9100000D02*
G75*
G02*
X18425000Y-9100000I-25000J0D01*
G01*
X18425000Y-9100000D02*
G75*
G02*
X18475000Y-9100000I25000J0D01*
G01*
X18475000Y-9200000D02*
G75*
G02*
X18425000Y-9200000I-25000J0D01*
G01*
X18425000Y-9200000D02*
G75*
G02*
X18475000Y-9200000I25000J0D01*
G01*
X18475000Y-9300000D02*
G75*
G02*
X18425000Y-9300000I-25000J0D01*
G01*
X18425000Y-9300000D02*
G75*
G02*
X18475000Y-9300000I25000J0D01*
G01*
D11*
X15255777Y-10316484D02*
X15255777Y-10116484D01*
X15255777Y-10116484D02*
X15303396Y-10116484D01*
X15303396Y-10116484D02*
X15331967Y-10126008D01*
X15331967Y-10126008D02*
X15351015Y-10145055D01*
X15351015Y-10145055D02*
X15360539Y-10164103D01*
X15360539Y-10164103D02*
X15370062Y-10202198D01*
X15370062Y-10202198D02*
X15370062Y-10230770D01*
X15370062Y-10230770D02*
X15360539Y-10268865D01*
X15360539Y-10268865D02*
X15351015Y-10287912D01*
X15351015Y-10287912D02*
X15331967Y-10306960D01*
X15331967Y-10306960D02*
X15303396Y-10316484D01*
X15303396Y-10316484D02*
X15255777Y-10316484D01*
X15455777Y-10316484D02*
X15455777Y-10183150D01*
X15455777Y-10221246D02*
X15465301Y-10202198D01*
X15465301Y-10202198D02*
X15474824Y-10192674D01*
X15474824Y-10192674D02*
X15493872Y-10183150D01*
X15493872Y-10183150D02*
X15512920Y-10183150D01*
X15579586Y-10316484D02*
X15579586Y-10183150D01*
X15579586Y-10116484D02*
X15570062Y-10126008D01*
X15570062Y-10126008D02*
X15579586Y-10135531D01*
X15579586Y-10135531D02*
X15589110Y-10126008D01*
X15589110Y-10126008D02*
X15579586Y-10116484D01*
X15579586Y-10116484D02*
X15579586Y-10135531D01*
X15703396Y-10316484D02*
X15684348Y-10306960D01*
X15684348Y-10306960D02*
X15674824Y-10287912D01*
X15674824Y-10287912D02*
X15674824Y-10116484D01*
X15808158Y-10316484D02*
X15789110Y-10306960D01*
X15789110Y-10306960D02*
X15779586Y-10287912D01*
X15779586Y-10287912D02*
X15779586Y-10116484D01*
X16036729Y-10316484D02*
X16036729Y-10116484D01*
X16036729Y-10116484D02*
X16103396Y-10259341D01*
X16103396Y-10259341D02*
X16170062Y-10116484D01*
X16170062Y-10116484D02*
X16170062Y-10316484D01*
X16351015Y-10316484D02*
X16351015Y-10211722D01*
X16351015Y-10211722D02*
X16341491Y-10192674D01*
X16341491Y-10192674D02*
X16322443Y-10183150D01*
X16322443Y-10183150D02*
X16284348Y-10183150D01*
X16284348Y-10183150D02*
X16265301Y-10192674D01*
X16351015Y-10306960D02*
X16331967Y-10316484D01*
X16331967Y-10316484D02*
X16284348Y-10316484D01*
X16284348Y-10316484D02*
X16265301Y-10306960D01*
X16265301Y-10306960D02*
X16255777Y-10287912D01*
X16255777Y-10287912D02*
X16255777Y-10268865D01*
X16255777Y-10268865D02*
X16265301Y-10249817D01*
X16265301Y-10249817D02*
X16284348Y-10240293D01*
X16284348Y-10240293D02*
X16331967Y-10240293D01*
X16331967Y-10240293D02*
X16351015Y-10230770D01*
X16446253Y-10183150D02*
X16446253Y-10383150D01*
X16446253Y-10192674D02*
X16465301Y-10183150D01*
X16465301Y-10183150D02*
X16503396Y-10183150D01*
X16503396Y-10183150D02*
X16522443Y-10192674D01*
X16522443Y-10192674D02*
X16531967Y-10202198D01*
X16531967Y-10202198D02*
X16541491Y-10221246D01*
X16541491Y-10221246D02*
X16541491Y-10278389D01*
X16541491Y-10278389D02*
X16531967Y-10297436D01*
X16531967Y-10297436D02*
X16522443Y-10306960D01*
X16522443Y-10306960D02*
X16503396Y-10316484D01*
X16503396Y-10316484D02*
X16465301Y-10316484D01*
X16465301Y-10316484D02*
X16446253Y-10306960D01*
X16627205Y-10297436D02*
X16636729Y-10306960D01*
X16636729Y-10306960D02*
X16627205Y-10316484D01*
X16627205Y-10316484D02*
X16617682Y-10306960D01*
X16617682Y-10306960D02*
X16627205Y-10297436D01*
X16627205Y-10297436D02*
X16627205Y-10316484D01*
X16627205Y-10192674D02*
X16636729Y-10202198D01*
X16636729Y-10202198D02*
X16627205Y-10211722D01*
X16627205Y-10211722D02*
X16617682Y-10202198D01*
X16617682Y-10202198D02*
X16627205Y-10192674D01*
X16627205Y-10192674D02*
X16627205Y-10211722D01*
D10*
X14955000Y-10625000D02*
X14995000Y-10665000D01*
X14995000Y-10625000D02*
X14955000Y-10665000D01*
D11*
X15293872Y-10536484D02*
X15312920Y-10536484D01*
X15312920Y-10536484D02*
X15331967Y-10546008D01*
X15331967Y-10546008D02*
X15341491Y-10555531D01*
X15341491Y-10555531D02*
X15351015Y-10574579D01*
X15351015Y-10574579D02*
X15360539Y-10612674D01*
X15360539Y-10612674D02*
X15360539Y-10660293D01*
X15360539Y-10660293D02*
X15351015Y-10698389D01*
X15351015Y-10698389D02*
X15341491Y-10717436D01*
X15341491Y-10717436D02*
X15331967Y-10726960D01*
X15331967Y-10726960D02*
X15312920Y-10736484D01*
X15312920Y-10736484D02*
X15293872Y-10736484D01*
X15293872Y-10736484D02*
X15274824Y-10726960D01*
X15274824Y-10726960D02*
X15265301Y-10717436D01*
X15265301Y-10717436D02*
X15255777Y-10698389D01*
X15255777Y-10698389D02*
X15246253Y-10660293D01*
X15246253Y-10660293D02*
X15246253Y-10612674D01*
X15246253Y-10612674D02*
X15255777Y-10574579D01*
X15255777Y-10574579D02*
X15265301Y-10555531D01*
X15265301Y-10555531D02*
X15274824Y-10546008D01*
X15274824Y-10546008D02*
X15293872Y-10536484D01*
X15446253Y-10717436D02*
X15455777Y-10726960D01*
X15455777Y-10726960D02*
X15446253Y-10736484D01*
X15446253Y-10736484D02*
X15436729Y-10726960D01*
X15436729Y-10726960D02*
X15446253Y-10717436D01*
X15446253Y-10717436D02*
X15446253Y-10736484D01*
X15627205Y-10603150D02*
X15627205Y-10736484D01*
X15579586Y-10526960D02*
X15531967Y-10669817D01*
X15531967Y-10669817D02*
X15655777Y-10669817D01*
X15770062Y-10536484D02*
X15789110Y-10536484D01*
X15789110Y-10536484D02*
X15808158Y-10546008D01*
X15808158Y-10546008D02*
X15817682Y-10555531D01*
X15817682Y-10555531D02*
X15827205Y-10574579D01*
X15827205Y-10574579D02*
X15836729Y-10612674D01*
X15836729Y-10612674D02*
X15836729Y-10660293D01*
X15836729Y-10660293D02*
X15827205Y-10698389D01*
X15827205Y-10698389D02*
X15817682Y-10717436D01*
X15817682Y-10717436D02*
X15808158Y-10726960D01*
X15808158Y-10726960D02*
X15789110Y-10736484D01*
X15789110Y-10736484D02*
X15770062Y-10736484D01*
X15770062Y-10736484D02*
X15751015Y-10726960D01*
X15751015Y-10726960D02*
X15741491Y-10717436D01*
X15741491Y-10717436D02*
X15731967Y-10698389D01*
X15731967Y-10698389D02*
X15722443Y-10660293D01*
X15722443Y-10660293D02*
X15722443Y-10612674D01*
X15722443Y-10612674D02*
X15731967Y-10574579D01*
X15731967Y-10574579D02*
X15741491Y-10555531D01*
X15741491Y-10555531D02*
X15751015Y-10546008D01*
X15751015Y-10546008D02*
X15770062Y-10536484D01*
X15960539Y-10536484D02*
X15979586Y-10536484D01*
X15979586Y-10536484D02*
X15998634Y-10546008D01*
X15998634Y-10546008D02*
X16008158Y-10555531D01*
X16008158Y-10555531D02*
X16017682Y-10574579D01*
X16017682Y-10574579D02*
X16027205Y-10612674D01*
X16027205Y-10612674D02*
X16027205Y-10660293D01*
X16027205Y-10660293D02*
X16017682Y-10698389D01*
X16017682Y-10698389D02*
X16008158Y-10717436D01*
X16008158Y-10717436D02*
X15998634Y-10726960D01*
X15998634Y-10726960D02*
X15979586Y-10736484D01*
X15979586Y-10736484D02*
X15960539Y-10736484D01*
X15960539Y-10736484D02*
X15941491Y-10726960D01*
X15941491Y-10726960D02*
X15931967Y-10717436D01*
X15931967Y-10717436D02*
X15922443Y-10698389D01*
X15922443Y-10698389D02*
X15912920Y-10660293D01*
X15912920Y-10660293D02*
X15912920Y-10612674D01*
X15912920Y-10612674D02*
X15922443Y-10574579D01*
X15922443Y-10574579D02*
X15931967Y-10555531D01*
X15931967Y-10555531D02*
X15941491Y-10546008D01*
X15941491Y-10546008D02*
X15960539Y-10536484D01*
X16112920Y-10736484D02*
X16112920Y-10603150D01*
X16112920Y-10622198D02*
X16122443Y-10612674D01*
X16122443Y-10612674D02*
X16141491Y-10603150D01*
X16141491Y-10603150D02*
X16170063Y-10603150D01*
X16170063Y-10603150D02*
X16189110Y-10612674D01*
X16189110Y-10612674D02*
X16198634Y-10631722D01*
X16198634Y-10631722D02*
X16198634Y-10736484D01*
X16198634Y-10631722D02*
X16208158Y-10612674D01*
X16208158Y-10612674D02*
X16227205Y-10603150D01*
X16227205Y-10603150D02*
X16255777Y-10603150D01*
X16255777Y-10603150D02*
X16274824Y-10612674D01*
X16274824Y-10612674D02*
X16284348Y-10631722D01*
X16284348Y-10631722D02*
X16284348Y-10736484D01*
X16379586Y-10736484D02*
X16379586Y-10603150D01*
X16379586Y-10622198D02*
X16389110Y-10612674D01*
X16389110Y-10612674D02*
X16408158Y-10603150D01*
X16408158Y-10603150D02*
X16436729Y-10603150D01*
X16436729Y-10603150D02*
X16455777Y-10612674D01*
X16455777Y-10612674D02*
X16465301Y-10631722D01*
X16465301Y-10631722D02*
X16465301Y-10736484D01*
X16465301Y-10631722D02*
X16474824Y-10612674D01*
X16474824Y-10612674D02*
X16493872Y-10603150D01*
X16493872Y-10603150D02*
X16522443Y-10603150D01*
X16522443Y-10603150D02*
X16541491Y-10612674D01*
X16541491Y-10612674D02*
X16551015Y-10631722D01*
X16551015Y-10631722D02*
X16551015Y-10736484D01*
X16941491Y-10526960D02*
X16770063Y-10784103D01*
X17198634Y-10536484D02*
X17217682Y-10536484D01*
X17217682Y-10536484D02*
X17236729Y-10546008D01*
X17236729Y-10546008D02*
X17246253Y-10555531D01*
X17246253Y-10555531D02*
X17255777Y-10574579D01*
X17255777Y-10574579D02*
X17265301Y-10612674D01*
X17265301Y-10612674D02*
X17265301Y-10660293D01*
X17265301Y-10660293D02*
X17255777Y-10698389D01*
X17255777Y-10698389D02*
X17246253Y-10717436D01*
X17246253Y-10717436D02*
X17236729Y-10726960D01*
X17236729Y-10726960D02*
X17217682Y-10736484D01*
X17217682Y-10736484D02*
X17198634Y-10736484D01*
X17198634Y-10736484D02*
X17179587Y-10726960D01*
X17179587Y-10726960D02*
X17170063Y-10717436D01*
X17170063Y-10717436D02*
X17160539Y-10698389D01*
X17160539Y-10698389D02*
X17151015Y-10660293D01*
X17151015Y-10660293D02*
X17151015Y-10612674D01*
X17151015Y-10612674D02*
X17160539Y-10574579D01*
X17160539Y-10574579D02*
X17170063Y-10555531D01*
X17170063Y-10555531D02*
X17179587Y-10546008D01*
X17179587Y-10546008D02*
X17198634Y-10536484D01*
X17351015Y-10717436D02*
X17360539Y-10726960D01*
X17360539Y-10726960D02*
X17351015Y-10736484D01*
X17351015Y-10736484D02*
X17341491Y-10726960D01*
X17341491Y-10726960D02*
X17351015Y-10717436D01*
X17351015Y-10717436D02*
X17351015Y-10736484D01*
X17484348Y-10536484D02*
X17503396Y-10536484D01*
X17503396Y-10536484D02*
X17522444Y-10546008D01*
X17522444Y-10546008D02*
X17531968Y-10555531D01*
X17531968Y-10555531D02*
X17541491Y-10574579D01*
X17541491Y-10574579D02*
X17551015Y-10612674D01*
X17551015Y-10612674D02*
X17551015Y-10660293D01*
X17551015Y-10660293D02*
X17541491Y-10698389D01*
X17541491Y-10698389D02*
X17531968Y-10717436D01*
X17531968Y-10717436D02*
X17522444Y-10726960D01*
X17522444Y-10726960D02*
X17503396Y-10736484D01*
X17503396Y-10736484D02*
X17484348Y-10736484D01*
X17484348Y-10736484D02*
X17465301Y-10726960D01*
X17465301Y-10726960D02*
X17455777Y-10717436D01*
X17455777Y-10717436D02*
X17446253Y-10698389D01*
X17446253Y-10698389D02*
X17436729Y-10660293D01*
X17436729Y-10660293D02*
X17436729Y-10612674D01*
X17436729Y-10612674D02*
X17446253Y-10574579D01*
X17446253Y-10574579D02*
X17455777Y-10555531D01*
X17455777Y-10555531D02*
X17465301Y-10546008D01*
X17465301Y-10546008D02*
X17484348Y-10536484D01*
X17741491Y-10736484D02*
X17627206Y-10736484D01*
X17684348Y-10736484D02*
X17684348Y-10536484D01*
X17684348Y-10536484D02*
X17665301Y-10565055D01*
X17665301Y-10565055D02*
X17646253Y-10584103D01*
X17646253Y-10584103D02*
X17627206Y-10593627D01*
X17922444Y-10536484D02*
X17827206Y-10536484D01*
X17827206Y-10536484D02*
X17817682Y-10631722D01*
X17817682Y-10631722D02*
X17827206Y-10622198D01*
X17827206Y-10622198D02*
X17846253Y-10612674D01*
X17846253Y-10612674D02*
X17893872Y-10612674D01*
X17893872Y-10612674D02*
X17912920Y-10622198D01*
X17912920Y-10622198D02*
X17922444Y-10631722D01*
X17922444Y-10631722D02*
X17931968Y-10650770D01*
X17931968Y-10650770D02*
X17931968Y-10698389D01*
X17931968Y-10698389D02*
X17922444Y-10717436D01*
X17922444Y-10717436D02*
X17912920Y-10726960D01*
X17912920Y-10726960D02*
X17893872Y-10736484D01*
X17893872Y-10736484D02*
X17846253Y-10736484D01*
X17846253Y-10736484D02*
X17827206Y-10726960D01*
X17827206Y-10726960D02*
X17817682Y-10717436D01*
X17998634Y-10536484D02*
X18131968Y-10536484D01*
X18131968Y-10536484D02*
X18046253Y-10736484D01*
X18198634Y-10536484D02*
X18198634Y-10574579D01*
X18274825Y-10536484D02*
X18274825Y-10574579D01*
X18570063Y-10812674D02*
X18560539Y-10803150D01*
X18560539Y-10803150D02*
X18541491Y-10774579D01*
X18541491Y-10774579D02*
X18531968Y-10755531D01*
X18531968Y-10755531D02*
X18522444Y-10726960D01*
X18522444Y-10726960D02*
X18512920Y-10679341D01*
X18512920Y-10679341D02*
X18512920Y-10641246D01*
X18512920Y-10641246D02*
X18522444Y-10593627D01*
X18522444Y-10593627D02*
X18531968Y-10565055D01*
X18531968Y-10565055D02*
X18541491Y-10546008D01*
X18541491Y-10546008D02*
X18560539Y-10517436D01*
X18560539Y-10517436D02*
X18570063Y-10507912D01*
X18627206Y-10536484D02*
X18751015Y-10536484D01*
X18751015Y-10536484D02*
X18684349Y-10612674D01*
X18684349Y-10612674D02*
X18712920Y-10612674D01*
X18712920Y-10612674D02*
X18731968Y-10622198D01*
X18731968Y-10622198D02*
X18741491Y-10631722D01*
X18741491Y-10631722D02*
X18751015Y-10650770D01*
X18751015Y-10650770D02*
X18751015Y-10698389D01*
X18751015Y-10698389D02*
X18741491Y-10717436D01*
X18741491Y-10717436D02*
X18731968Y-10726960D01*
X18731968Y-10726960D02*
X18712920Y-10736484D01*
X18712920Y-10736484D02*
X18655777Y-10736484D01*
X18655777Y-10736484D02*
X18636730Y-10726960D01*
X18636730Y-10726960D02*
X18627206Y-10717436D01*
X18846253Y-10736484D02*
X18884349Y-10736484D01*
X18884349Y-10736484D02*
X18903396Y-10726960D01*
X18903396Y-10726960D02*
X18912920Y-10717436D01*
X18912920Y-10717436D02*
X18931968Y-10688865D01*
X18931968Y-10688865D02*
X18941491Y-10650770D01*
X18941491Y-10650770D02*
X18941491Y-10574579D01*
X18941491Y-10574579D02*
X18931968Y-10555531D01*
X18931968Y-10555531D02*
X18922444Y-10546008D01*
X18922444Y-10546008D02*
X18903396Y-10536484D01*
X18903396Y-10536484D02*
X18865301Y-10536484D01*
X18865301Y-10536484D02*
X18846253Y-10546008D01*
X18846253Y-10546008D02*
X18836730Y-10555531D01*
X18836730Y-10555531D02*
X18827206Y-10574579D01*
X18827206Y-10574579D02*
X18827206Y-10622198D01*
X18827206Y-10622198D02*
X18836730Y-10641246D01*
X18836730Y-10641246D02*
X18846253Y-10650770D01*
X18846253Y-10650770D02*
X18865301Y-10660293D01*
X18865301Y-10660293D02*
X18903396Y-10660293D01*
X18903396Y-10660293D02*
X18922444Y-10650770D01*
X18922444Y-10650770D02*
X18931968Y-10641246D01*
X18931968Y-10641246D02*
X18941491Y-10622198D01*
X19179587Y-10736484D02*
X19179587Y-10536484D01*
X19265301Y-10736484D02*
X19265301Y-10631722D01*
X19265301Y-10631722D02*
X19255777Y-10612674D01*
X19255777Y-10612674D02*
X19236730Y-10603150D01*
X19236730Y-10603150D02*
X19208158Y-10603150D01*
X19208158Y-10603150D02*
X19189111Y-10612674D01*
X19189111Y-10612674D02*
X19179587Y-10622198D01*
X19389111Y-10736484D02*
X19370063Y-10726960D01*
X19370063Y-10726960D02*
X19360539Y-10717436D01*
X19360539Y-10717436D02*
X19351015Y-10698389D01*
X19351015Y-10698389D02*
X19351015Y-10641246D01*
X19351015Y-10641246D02*
X19360539Y-10622198D01*
X19360539Y-10622198D02*
X19370063Y-10612674D01*
X19370063Y-10612674D02*
X19389111Y-10603150D01*
X19389111Y-10603150D02*
X19417682Y-10603150D01*
X19417682Y-10603150D02*
X19436730Y-10612674D01*
X19436730Y-10612674D02*
X19446253Y-10622198D01*
X19446253Y-10622198D02*
X19455777Y-10641246D01*
X19455777Y-10641246D02*
X19455777Y-10698389D01*
X19455777Y-10698389D02*
X19446253Y-10717436D01*
X19446253Y-10717436D02*
X19436730Y-10726960D01*
X19436730Y-10726960D02*
X19417682Y-10736484D01*
X19417682Y-10736484D02*
X19389111Y-10736484D01*
X19570063Y-10736484D02*
X19551015Y-10726960D01*
X19551015Y-10726960D02*
X19541492Y-10707912D01*
X19541492Y-10707912D02*
X19541492Y-10536484D01*
X19722444Y-10726960D02*
X19703396Y-10736484D01*
X19703396Y-10736484D02*
X19665301Y-10736484D01*
X19665301Y-10736484D02*
X19646253Y-10726960D01*
X19646253Y-10726960D02*
X19636730Y-10707912D01*
X19636730Y-10707912D02*
X19636730Y-10631722D01*
X19636730Y-10631722D02*
X19646253Y-10612674D01*
X19646253Y-10612674D02*
X19665301Y-10603150D01*
X19665301Y-10603150D02*
X19703396Y-10603150D01*
X19703396Y-10603150D02*
X19722444Y-10612674D01*
X19722444Y-10612674D02*
X19731968Y-10631722D01*
X19731968Y-10631722D02*
X19731968Y-10650770D01*
X19731968Y-10650770D02*
X19636730Y-10669817D01*
X19808158Y-10726960D02*
X19827206Y-10736484D01*
X19827206Y-10736484D02*
X19865301Y-10736484D01*
X19865301Y-10736484D02*
X19884349Y-10726960D01*
X19884349Y-10726960D02*
X19893873Y-10707912D01*
X19893873Y-10707912D02*
X19893873Y-10698389D01*
X19893873Y-10698389D02*
X19884349Y-10679341D01*
X19884349Y-10679341D02*
X19865301Y-10669817D01*
X19865301Y-10669817D02*
X19836730Y-10669817D01*
X19836730Y-10669817D02*
X19817682Y-10660293D01*
X19817682Y-10660293D02*
X19808158Y-10641246D01*
X19808158Y-10641246D02*
X19808158Y-10631722D01*
X19808158Y-10631722D02*
X19817682Y-10612674D01*
X19817682Y-10612674D02*
X19836730Y-10603150D01*
X19836730Y-10603150D02*
X19865301Y-10603150D01*
X19865301Y-10603150D02*
X19884349Y-10612674D01*
X19960539Y-10812674D02*
X19970063Y-10803150D01*
X19970063Y-10803150D02*
X19989111Y-10774579D01*
X19989111Y-10774579D02*
X19998634Y-10755531D01*
X19998634Y-10755531D02*
X20008158Y-10726960D01*
X20008158Y-10726960D02*
X20017682Y-10679341D01*
X20017682Y-10679341D02*
X20017682Y-10641246D01*
X20017682Y-10641246D02*
X20008158Y-10593627D01*
X20008158Y-10593627D02*
X19998634Y-10565055D01*
X19998634Y-10565055D02*
X19989111Y-10546008D01*
X19989111Y-10546008D02*
X19970063Y-10517436D01*
X19970063Y-10517436D02*
X19960539Y-10507912D01*
D10*
X14995000Y-10909000D02*
G75*
G02*
X14945000Y-10909000I-25000J0D01*
G01*
X14945000Y-10909000D02*
G75*
G02*
X14995000Y-10909000I25000J0D01*
G01*
D11*
X15293872Y-10800484D02*
X15312920Y-10800484D01*
X15312920Y-10800484D02*
X15331967Y-10810008D01*
X15331967Y-10810008D02*
X15341491Y-10819531D01*
X15341491Y-10819531D02*
X15351015Y-10838579D01*
X15351015Y-10838579D02*
X15360539Y-10876674D01*
X15360539Y-10876674D02*
X15360539Y-10924293D01*
X15360539Y-10924293D02*
X15351015Y-10962389D01*
X15351015Y-10962389D02*
X15341491Y-10981436D01*
X15341491Y-10981436D02*
X15331967Y-10990960D01*
X15331967Y-10990960D02*
X15312920Y-11000484D01*
X15312920Y-11000484D02*
X15293872Y-11000484D01*
X15293872Y-11000484D02*
X15274824Y-10990960D01*
X15274824Y-10990960D02*
X15265301Y-10981436D01*
X15265301Y-10981436D02*
X15255777Y-10962389D01*
X15255777Y-10962389D02*
X15246253Y-10924293D01*
X15246253Y-10924293D02*
X15246253Y-10876674D01*
X15246253Y-10876674D02*
X15255777Y-10838579D01*
X15255777Y-10838579D02*
X15265301Y-10819531D01*
X15265301Y-10819531D02*
X15274824Y-10810008D01*
X15274824Y-10810008D02*
X15293872Y-10800484D01*
X15446253Y-10981436D02*
X15455777Y-10990960D01*
X15455777Y-10990960D02*
X15446253Y-11000484D01*
X15446253Y-11000484D02*
X15436729Y-10990960D01*
X15436729Y-10990960D02*
X15446253Y-10981436D01*
X15446253Y-10981436D02*
X15446253Y-11000484D01*
X15636729Y-10800484D02*
X15541491Y-10800484D01*
X15541491Y-10800484D02*
X15531967Y-10895722D01*
X15531967Y-10895722D02*
X15541491Y-10886198D01*
X15541491Y-10886198D02*
X15560539Y-10876674D01*
X15560539Y-10876674D02*
X15608158Y-10876674D01*
X15608158Y-10876674D02*
X15627205Y-10886198D01*
X15627205Y-10886198D02*
X15636729Y-10895722D01*
X15636729Y-10895722D02*
X15646253Y-10914770D01*
X15646253Y-10914770D02*
X15646253Y-10962389D01*
X15646253Y-10962389D02*
X15636729Y-10981436D01*
X15636729Y-10981436D02*
X15627205Y-10990960D01*
X15627205Y-10990960D02*
X15608158Y-11000484D01*
X15608158Y-11000484D02*
X15560539Y-11000484D01*
X15560539Y-11000484D02*
X15541491Y-10990960D01*
X15541491Y-10990960D02*
X15531967Y-10981436D01*
X15770062Y-10800484D02*
X15789110Y-10800484D01*
X15789110Y-10800484D02*
X15808158Y-10810008D01*
X15808158Y-10810008D02*
X15817682Y-10819531D01*
X15817682Y-10819531D02*
X15827205Y-10838579D01*
X15827205Y-10838579D02*
X15836729Y-10876674D01*
X15836729Y-10876674D02*
X15836729Y-10924293D01*
X15836729Y-10924293D02*
X15827205Y-10962389D01*
X15827205Y-10962389D02*
X15817682Y-10981436D01*
X15817682Y-10981436D02*
X15808158Y-10990960D01*
X15808158Y-10990960D02*
X15789110Y-11000484D01*
X15789110Y-11000484D02*
X15770062Y-11000484D01*
X15770062Y-11000484D02*
X15751015Y-10990960D01*
X15751015Y-10990960D02*
X15741491Y-10981436D01*
X15741491Y-10981436D02*
X15731967Y-10962389D01*
X15731967Y-10962389D02*
X15722443Y-10924293D01*
X15722443Y-10924293D02*
X15722443Y-10876674D01*
X15722443Y-10876674D02*
X15731967Y-10838579D01*
X15731967Y-10838579D02*
X15741491Y-10819531D01*
X15741491Y-10819531D02*
X15751015Y-10810008D01*
X15751015Y-10810008D02*
X15770062Y-10800484D01*
X15960539Y-10800484D02*
X15979586Y-10800484D01*
X15979586Y-10800484D02*
X15998634Y-10810008D01*
X15998634Y-10810008D02*
X16008158Y-10819531D01*
X16008158Y-10819531D02*
X16017682Y-10838579D01*
X16017682Y-10838579D02*
X16027205Y-10876674D01*
X16027205Y-10876674D02*
X16027205Y-10924293D01*
X16027205Y-10924293D02*
X16017682Y-10962389D01*
X16017682Y-10962389D02*
X16008158Y-10981436D01*
X16008158Y-10981436D02*
X15998634Y-10990960D01*
X15998634Y-10990960D02*
X15979586Y-11000484D01*
X15979586Y-11000484D02*
X15960539Y-11000484D01*
X15960539Y-11000484D02*
X15941491Y-10990960D01*
X15941491Y-10990960D02*
X15931967Y-10981436D01*
X15931967Y-10981436D02*
X15922443Y-10962389D01*
X15922443Y-10962389D02*
X15912920Y-10924293D01*
X15912920Y-10924293D02*
X15912920Y-10876674D01*
X15912920Y-10876674D02*
X15922443Y-10838579D01*
X15922443Y-10838579D02*
X15931967Y-10819531D01*
X15931967Y-10819531D02*
X15941491Y-10810008D01*
X15941491Y-10810008D02*
X15960539Y-10800484D01*
X16112920Y-11000484D02*
X16112920Y-10867150D01*
X16112920Y-10886198D02*
X16122443Y-10876674D01*
X16122443Y-10876674D02*
X16141491Y-10867150D01*
X16141491Y-10867150D02*
X16170063Y-10867150D01*
X16170063Y-10867150D02*
X16189110Y-10876674D01*
X16189110Y-10876674D02*
X16198634Y-10895722D01*
X16198634Y-10895722D02*
X16198634Y-11000484D01*
X16198634Y-10895722D02*
X16208158Y-10876674D01*
X16208158Y-10876674D02*
X16227205Y-10867150D01*
X16227205Y-10867150D02*
X16255777Y-10867150D01*
X16255777Y-10867150D02*
X16274824Y-10876674D01*
X16274824Y-10876674D02*
X16284348Y-10895722D01*
X16284348Y-10895722D02*
X16284348Y-11000484D01*
X16379586Y-11000484D02*
X16379586Y-10867150D01*
X16379586Y-10886198D02*
X16389110Y-10876674D01*
X16389110Y-10876674D02*
X16408158Y-10867150D01*
X16408158Y-10867150D02*
X16436729Y-10867150D01*
X16436729Y-10867150D02*
X16455777Y-10876674D01*
X16455777Y-10876674D02*
X16465301Y-10895722D01*
X16465301Y-10895722D02*
X16465301Y-11000484D01*
X16465301Y-10895722D02*
X16474824Y-10876674D01*
X16474824Y-10876674D02*
X16493872Y-10867150D01*
X16493872Y-10867150D02*
X16522443Y-10867150D01*
X16522443Y-10867150D02*
X16541491Y-10876674D01*
X16541491Y-10876674D02*
X16551015Y-10895722D01*
X16551015Y-10895722D02*
X16551015Y-11000484D01*
X16941491Y-10790960D02*
X16770063Y-11048103D01*
X17198634Y-10800484D02*
X17217682Y-10800484D01*
X17217682Y-10800484D02*
X17236729Y-10810008D01*
X17236729Y-10810008D02*
X17246253Y-10819531D01*
X17246253Y-10819531D02*
X17255777Y-10838579D01*
X17255777Y-10838579D02*
X17265301Y-10876674D01*
X17265301Y-10876674D02*
X17265301Y-10924293D01*
X17265301Y-10924293D02*
X17255777Y-10962389D01*
X17255777Y-10962389D02*
X17246253Y-10981436D01*
X17246253Y-10981436D02*
X17236729Y-10990960D01*
X17236729Y-10990960D02*
X17217682Y-11000484D01*
X17217682Y-11000484D02*
X17198634Y-11000484D01*
X17198634Y-11000484D02*
X17179587Y-10990960D01*
X17179587Y-10990960D02*
X17170063Y-10981436D01*
X17170063Y-10981436D02*
X17160539Y-10962389D01*
X17160539Y-10962389D02*
X17151015Y-10924293D01*
X17151015Y-10924293D02*
X17151015Y-10876674D01*
X17151015Y-10876674D02*
X17160539Y-10838579D01*
X17160539Y-10838579D02*
X17170063Y-10819531D01*
X17170063Y-10819531D02*
X17179587Y-10810008D01*
X17179587Y-10810008D02*
X17198634Y-10800484D01*
X17351015Y-10981436D02*
X17360539Y-10990960D01*
X17360539Y-10990960D02*
X17351015Y-11000484D01*
X17351015Y-11000484D02*
X17341491Y-10990960D01*
X17341491Y-10990960D02*
X17351015Y-10981436D01*
X17351015Y-10981436D02*
X17351015Y-11000484D01*
X17484348Y-10800484D02*
X17503396Y-10800484D01*
X17503396Y-10800484D02*
X17522444Y-10810008D01*
X17522444Y-10810008D02*
X17531968Y-10819531D01*
X17531968Y-10819531D02*
X17541491Y-10838579D01*
X17541491Y-10838579D02*
X17551015Y-10876674D01*
X17551015Y-10876674D02*
X17551015Y-10924293D01*
X17551015Y-10924293D02*
X17541491Y-10962389D01*
X17541491Y-10962389D02*
X17531968Y-10981436D01*
X17531968Y-10981436D02*
X17522444Y-10990960D01*
X17522444Y-10990960D02*
X17503396Y-11000484D01*
X17503396Y-11000484D02*
X17484348Y-11000484D01*
X17484348Y-11000484D02*
X17465301Y-10990960D01*
X17465301Y-10990960D02*
X17455777Y-10981436D01*
X17455777Y-10981436D02*
X17446253Y-10962389D01*
X17446253Y-10962389D02*
X17436729Y-10924293D01*
X17436729Y-10924293D02*
X17436729Y-10876674D01*
X17436729Y-10876674D02*
X17446253Y-10838579D01*
X17446253Y-10838579D02*
X17455777Y-10819531D01*
X17455777Y-10819531D02*
X17465301Y-10810008D01*
X17465301Y-10810008D02*
X17484348Y-10800484D01*
X17741491Y-11000484D02*
X17627206Y-11000484D01*
X17684348Y-11000484D02*
X17684348Y-10800484D01*
X17684348Y-10800484D02*
X17665301Y-10829055D01*
X17665301Y-10829055D02*
X17646253Y-10848103D01*
X17646253Y-10848103D02*
X17627206Y-10857627D01*
X17836729Y-11000484D02*
X17874825Y-11000484D01*
X17874825Y-11000484D02*
X17893872Y-10990960D01*
X17893872Y-10990960D02*
X17903396Y-10981436D01*
X17903396Y-10981436D02*
X17922444Y-10952865D01*
X17922444Y-10952865D02*
X17931968Y-10914770D01*
X17931968Y-10914770D02*
X17931968Y-10838579D01*
X17931968Y-10838579D02*
X17922444Y-10819531D01*
X17922444Y-10819531D02*
X17912920Y-10810008D01*
X17912920Y-10810008D02*
X17893872Y-10800484D01*
X17893872Y-10800484D02*
X17855777Y-10800484D01*
X17855777Y-10800484D02*
X17836729Y-10810008D01*
X17836729Y-10810008D02*
X17827206Y-10819531D01*
X17827206Y-10819531D02*
X17817682Y-10838579D01*
X17817682Y-10838579D02*
X17817682Y-10886198D01*
X17817682Y-10886198D02*
X17827206Y-10905246D01*
X17827206Y-10905246D02*
X17836729Y-10914770D01*
X17836729Y-10914770D02*
X17855777Y-10924293D01*
X17855777Y-10924293D02*
X17893872Y-10924293D01*
X17893872Y-10924293D02*
X17912920Y-10914770D01*
X17912920Y-10914770D02*
X17922444Y-10905246D01*
X17922444Y-10905246D02*
X17931968Y-10886198D01*
X17998634Y-10800484D02*
X18131968Y-10800484D01*
X18131968Y-10800484D02*
X18046253Y-11000484D01*
X18198634Y-10800484D02*
X18198634Y-10838579D01*
X18274825Y-10800484D02*
X18274825Y-10838579D01*
X18570063Y-11076674D02*
X18560539Y-11067150D01*
X18560539Y-11067150D02*
X18541491Y-11038579D01*
X18541491Y-11038579D02*
X18531968Y-11019531D01*
X18531968Y-11019531D02*
X18522444Y-10990960D01*
X18522444Y-10990960D02*
X18512920Y-10943341D01*
X18512920Y-10943341D02*
X18512920Y-10905246D01*
X18512920Y-10905246D02*
X18522444Y-10857627D01*
X18522444Y-10857627D02*
X18531968Y-10829055D01*
X18531968Y-10829055D02*
X18541491Y-10810008D01*
X18541491Y-10810008D02*
X18560539Y-10781436D01*
X18560539Y-10781436D02*
X18570063Y-10771912D01*
X18627206Y-10800484D02*
X18751015Y-10800484D01*
X18751015Y-10800484D02*
X18684349Y-10876674D01*
X18684349Y-10876674D02*
X18712920Y-10876674D01*
X18712920Y-10876674D02*
X18731968Y-10886198D01*
X18731968Y-10886198D02*
X18741491Y-10895722D01*
X18741491Y-10895722D02*
X18751015Y-10914770D01*
X18751015Y-10914770D02*
X18751015Y-10962389D01*
X18751015Y-10962389D02*
X18741491Y-10981436D01*
X18741491Y-10981436D02*
X18731968Y-10990960D01*
X18731968Y-10990960D02*
X18712920Y-11000484D01*
X18712920Y-11000484D02*
X18655777Y-11000484D01*
X18655777Y-11000484D02*
X18636730Y-10990960D01*
X18636730Y-10990960D02*
X18627206Y-10981436D01*
X18874825Y-10800484D02*
X18893872Y-10800484D01*
X18893872Y-10800484D02*
X18912920Y-10810008D01*
X18912920Y-10810008D02*
X18922444Y-10819531D01*
X18922444Y-10819531D02*
X18931968Y-10838579D01*
X18931968Y-10838579D02*
X18941491Y-10876674D01*
X18941491Y-10876674D02*
X18941491Y-10924293D01*
X18941491Y-10924293D02*
X18931968Y-10962389D01*
X18931968Y-10962389D02*
X18922444Y-10981436D01*
X18922444Y-10981436D02*
X18912920Y-10990960D01*
X18912920Y-10990960D02*
X18893872Y-11000484D01*
X18893872Y-11000484D02*
X18874825Y-11000484D01*
X18874825Y-11000484D02*
X18855777Y-10990960D01*
X18855777Y-10990960D02*
X18846253Y-10981436D01*
X18846253Y-10981436D02*
X18836730Y-10962389D01*
X18836730Y-10962389D02*
X18827206Y-10924293D01*
X18827206Y-10924293D02*
X18827206Y-10876674D01*
X18827206Y-10876674D02*
X18836730Y-10838579D01*
X18836730Y-10838579D02*
X18846253Y-10819531D01*
X18846253Y-10819531D02*
X18855777Y-10810008D01*
X18855777Y-10810008D02*
X18874825Y-10800484D01*
X19179587Y-11000484D02*
X19179587Y-10800484D01*
X19265301Y-11000484D02*
X19265301Y-10895722D01*
X19265301Y-10895722D02*
X19255777Y-10876674D01*
X19255777Y-10876674D02*
X19236730Y-10867150D01*
X19236730Y-10867150D02*
X19208158Y-10867150D01*
X19208158Y-10867150D02*
X19189111Y-10876674D01*
X19189111Y-10876674D02*
X19179587Y-10886198D01*
X19389111Y-11000484D02*
X19370063Y-10990960D01*
X19370063Y-10990960D02*
X19360539Y-10981436D01*
X19360539Y-10981436D02*
X19351015Y-10962389D01*
X19351015Y-10962389D02*
X19351015Y-10905246D01*
X19351015Y-10905246D02*
X19360539Y-10886198D01*
X19360539Y-10886198D02*
X19370063Y-10876674D01*
X19370063Y-10876674D02*
X19389111Y-10867150D01*
X19389111Y-10867150D02*
X19417682Y-10867150D01*
X19417682Y-10867150D02*
X19436730Y-10876674D01*
X19436730Y-10876674D02*
X19446253Y-10886198D01*
X19446253Y-10886198D02*
X19455777Y-10905246D01*
X19455777Y-10905246D02*
X19455777Y-10962389D01*
X19455777Y-10962389D02*
X19446253Y-10981436D01*
X19446253Y-10981436D02*
X19436730Y-10990960D01*
X19436730Y-10990960D02*
X19417682Y-11000484D01*
X19417682Y-11000484D02*
X19389111Y-11000484D01*
X19570063Y-11000484D02*
X19551015Y-10990960D01*
X19551015Y-10990960D02*
X19541492Y-10971912D01*
X19541492Y-10971912D02*
X19541492Y-10800484D01*
X19722444Y-10990960D02*
X19703396Y-11000484D01*
X19703396Y-11000484D02*
X19665301Y-11000484D01*
X19665301Y-11000484D02*
X19646253Y-10990960D01*
X19646253Y-10990960D02*
X19636730Y-10971912D01*
X19636730Y-10971912D02*
X19636730Y-10895722D01*
X19636730Y-10895722D02*
X19646253Y-10876674D01*
X19646253Y-10876674D02*
X19665301Y-10867150D01*
X19665301Y-10867150D02*
X19703396Y-10867150D01*
X19703396Y-10867150D02*
X19722444Y-10876674D01*
X19722444Y-10876674D02*
X19731968Y-10895722D01*
X19731968Y-10895722D02*
X19731968Y-10914770D01*
X19731968Y-10914770D02*
X19636730Y-10933817D01*
X19808158Y-10990960D02*
X19827206Y-11000484D01*
X19827206Y-11000484D02*
X19865301Y-11000484D01*
X19865301Y-11000484D02*
X19884349Y-10990960D01*
X19884349Y-10990960D02*
X19893873Y-10971912D01*
X19893873Y-10971912D02*
X19893873Y-10962389D01*
X19893873Y-10962389D02*
X19884349Y-10943341D01*
X19884349Y-10943341D02*
X19865301Y-10933817D01*
X19865301Y-10933817D02*
X19836730Y-10933817D01*
X19836730Y-10933817D02*
X19817682Y-10924293D01*
X19817682Y-10924293D02*
X19808158Y-10905246D01*
X19808158Y-10905246D02*
X19808158Y-10895722D01*
X19808158Y-10895722D02*
X19817682Y-10876674D01*
X19817682Y-10876674D02*
X19836730Y-10867150D01*
X19836730Y-10867150D02*
X19865301Y-10867150D01*
X19865301Y-10867150D02*
X19884349Y-10876674D01*
X19960539Y-11076674D02*
X19970063Y-11067150D01*
X19970063Y-11067150D02*
X19989111Y-11038579D01*
X19989111Y-11038579D02*
X19998634Y-11019531D01*
X19998634Y-11019531D02*
X20008158Y-10990960D01*
X20008158Y-10990960D02*
X20017682Y-10943341D01*
X20017682Y-10943341D02*
X20017682Y-10905246D01*
X20017682Y-10905246D02*
X20008158Y-10857627D01*
X20008158Y-10857627D02*
X19998634Y-10829055D01*
X19998634Y-10829055D02*
X19989111Y-10810008D01*
X19989111Y-10810008D02*
X19970063Y-10781436D01*
X19970063Y-10781436D02*
X19960539Y-10771912D01*
M02*
