%TF.GenerationSoftware,KiCad,Pcbnew,8.0.1*%
%TF.CreationDate,2024-03-23T20:17:51-05:00*%
%TF.ProjectId,TTWR Keypad,54545752-204b-4657-9970-61642e6b6963,V01*%
%TF.SameCoordinates,Original*%
%TF.FileFunction,Paste,Top*%
%TF.FilePolarity,Positive*%
%FSLAX46Y46*%
G04 Gerber Fmt 4.6, Leading zero omitted, Abs format (unit mm)*
G04 Created by KiCad (PCBNEW 8.0.1) date 2024-03-23 20:17:51*
%MOMM*%
%LPD*%
G01*
G04 APERTURE LIST*
G04 Aperture macros list*
%AMRoundRect*
0 Rectangle with rounded corners*
0 $1 Rounding radius*
0 $2 $3 $4 $5 $6 $7 $8 $9 X,Y pos of 4 corners*
0 Add a 4 corners polygon primitive as box body*
4,1,4,$2,$3,$4,$5,$6,$7,$8,$9,$2,$3,0*
0 Add four circle primitives for the rounded corners*
1,1,$1+$1,$2,$3*
1,1,$1+$1,$4,$5*
1,1,$1+$1,$6,$7*
1,1,$1+$1,$8,$9*
0 Add four rect primitives between the rounded corners*
20,1,$1+$1,$2,$3,$4,$5,0*
20,1,$1+$1,$4,$5,$6,$7,0*
20,1,$1+$1,$6,$7,$8,$9,0*
20,1,$1+$1,$8,$9,$2,$3,0*%
G04 Aperture macros list end*
%ADD10C,0.000000*%
%ADD11R,0.558800X0.952500*%
%ADD12RoundRect,0.160000X-0.197500X-0.160000X0.197500X-0.160000X0.197500X0.160000X-0.197500X0.160000X0*%
G04 APERTURE END LIST*
D10*
%TO.C,U17*%
G36*
X179925108Y-59115110D02*
G01*
X179124893Y-59115110D01*
X179124893Y-58884892D01*
X179925108Y-58884892D01*
X179925108Y-59115110D01*
G37*
G36*
X179925108Y-59615109D02*
G01*
X179124893Y-59615109D01*
X179124893Y-59384894D01*
X179925108Y-59384894D01*
X179925108Y-59615109D01*
G37*
G36*
X179925108Y-60115108D02*
G01*
X179124893Y-60115108D01*
X179124893Y-59884893D01*
X179925108Y-59884893D01*
X179925108Y-60115108D01*
G37*
G36*
X179925108Y-60615110D02*
G01*
X179124893Y-60615110D01*
X179124893Y-60384892D01*
X179925108Y-60384892D01*
X179925108Y-60615110D01*
G37*
G36*
X180364919Y-58675109D02*
G01*
X180134703Y-58675109D01*
X180134703Y-57874894D01*
X180364919Y-57874894D01*
X180364919Y-58675109D01*
G37*
G36*
X180364919Y-61625108D02*
G01*
X180134703Y-61625108D01*
X180134703Y-60824893D01*
X180364919Y-60824893D01*
X180364919Y-61625108D01*
G37*
G36*
X180865045Y-58675109D02*
G01*
X180634829Y-58675109D01*
X180634829Y-57874894D01*
X180865045Y-57874894D01*
X180865045Y-58675109D01*
G37*
G36*
X180865045Y-61625108D02*
G01*
X180634829Y-61625108D01*
X180634829Y-60824893D01*
X180865045Y-60824893D01*
X180865045Y-61625108D01*
G37*
G36*
X181365171Y-58675109D02*
G01*
X181134955Y-58675109D01*
X181134955Y-57874894D01*
X181365171Y-57874894D01*
X181365171Y-58675109D01*
G37*
G36*
X181365171Y-61625108D02*
G01*
X181134955Y-61625108D01*
X181134955Y-60824893D01*
X181365171Y-60824893D01*
X181365171Y-61625108D01*
G37*
G36*
X181865297Y-58675109D02*
G01*
X181635081Y-58675109D01*
X181635081Y-57874894D01*
X181865297Y-57874894D01*
X181865297Y-58675109D01*
G37*
G36*
X181865297Y-61625108D02*
G01*
X181635081Y-61625108D01*
X181635081Y-60824893D01*
X181865297Y-60824893D01*
X181865297Y-61625108D01*
G37*
G36*
X182875107Y-59115110D02*
G01*
X182074892Y-59115110D01*
X182074892Y-58884892D01*
X182875107Y-58884892D01*
X182875107Y-59115110D01*
G37*
G36*
X182875107Y-59615109D02*
G01*
X182074892Y-59615109D01*
X182074892Y-59384894D01*
X182875107Y-59384894D01*
X182875107Y-59615109D01*
G37*
G36*
X182875107Y-60115108D02*
G01*
X182074892Y-60115108D01*
X182074892Y-59884893D01*
X182875107Y-59884893D01*
X182875107Y-60115108D01*
G37*
G36*
X182875107Y-60615110D02*
G01*
X182074892Y-60615110D01*
X182074892Y-60384892D01*
X182875107Y-60384892D01*
X182875107Y-60615110D01*
G37*
G36*
X180506300Y-59114880D02*
G01*
X180364879Y-59256301D01*
X180274930Y-59256301D01*
X180274930Y-59024931D01*
X180506300Y-59024931D01*
X180506300Y-59114880D01*
G37*
G36*
X180506300Y-60385122D02*
G01*
X180506300Y-60475071D01*
X180274930Y-60475071D01*
X180274930Y-60243701D01*
X180364879Y-60243701D01*
X180506300Y-60385122D01*
G37*
G36*
X181725070Y-59256301D02*
G01*
X181635121Y-59256301D01*
X181493700Y-59114880D01*
X181493700Y-59024931D01*
X181725070Y-59024931D01*
X181725070Y-59256301D01*
G37*
G36*
X181725070Y-60475071D02*
G01*
X181493700Y-60475071D01*
X181493700Y-60385122D01*
X181635121Y-60243701D01*
X181725070Y-60243701D01*
X181725070Y-60475071D01*
G37*
G36*
X180506300Y-59597722D02*
G01*
X180506300Y-59902280D01*
X180364879Y-60043701D01*
X180274930Y-60043701D01*
X180274930Y-59456301D01*
X180364879Y-59456301D01*
X180506300Y-59597722D01*
G37*
G36*
X181293700Y-59114880D02*
G01*
X181152279Y-59256301D01*
X180847721Y-59256301D01*
X180706300Y-59114880D01*
X180706300Y-59024931D01*
X181293700Y-59024931D01*
X181293700Y-59114880D01*
G37*
G36*
X181293700Y-60385122D02*
G01*
X181293700Y-60475071D01*
X180706300Y-60475071D01*
X180706300Y-60385122D01*
X180847721Y-60243701D01*
X181152279Y-60243701D01*
X181293700Y-60385122D01*
G37*
G36*
X181725070Y-60043701D02*
G01*
X181635121Y-60043701D01*
X181493700Y-59902280D01*
X181493700Y-59597722D01*
X181635121Y-59456301D01*
X181725070Y-59456301D01*
X181725070Y-60043701D01*
G37*
G36*
X181293700Y-59597722D02*
G01*
X181293700Y-59902280D01*
X181152279Y-60043701D01*
X180847721Y-60043701D01*
X180706300Y-59902280D01*
X180706300Y-59597722D01*
X180847721Y-59456301D01*
X181152279Y-59456301D01*
X181293700Y-59597722D01*
G37*
%TD*%
D11*
%TO.C,U3*%
X163354200Y-66818650D03*
X163354200Y-73181350D03*
X159645800Y-66818650D03*
X159645800Y-73181350D03*
%TD*%
%TO.C,U12*%
X169604200Y-86818650D03*
X169604200Y-93181350D03*
X165895800Y-86818650D03*
X165895800Y-93181350D03*
%TD*%
D12*
%TO.C,R1*%
X178305000Y-72500000D03*
X179500000Y-72500000D03*
%TD*%
D11*
%TO.C,U8*%
X163354200Y-86818650D03*
X163354200Y-93181350D03*
X159645800Y-86818650D03*
X159645800Y-93181350D03*
%TD*%
%TO.C,U1*%
X156854200Y-43167300D03*
X156854200Y-49530000D03*
X153145800Y-43167300D03*
X153145800Y-49530000D03*
%TD*%
%TO.C,U14*%
X175854200Y-66818650D03*
X175854200Y-73181350D03*
X172145800Y-66818650D03*
X172145800Y-73181350D03*
%TD*%
%TO.C,U13*%
X182354200Y-43167300D03*
X182354200Y-49530000D03*
X178645800Y-43167300D03*
X178645800Y-49530000D03*
%TD*%
%TO.C,U6*%
X169604200Y-56818650D03*
X169604200Y-63181350D03*
X165895800Y-56818650D03*
X165895800Y-63181350D03*
%TD*%
%TO.C,U4*%
X163354200Y-76818650D03*
X163354200Y-83181350D03*
X159645800Y-76818650D03*
X159645800Y-83181350D03*
%TD*%
%TO.C,U15*%
X175854200Y-76818650D03*
X175854200Y-83181350D03*
X172145800Y-76818650D03*
X172145800Y-83181350D03*
%TD*%
%TO.C,U7*%
X169604200Y-66818650D03*
X169604200Y-73181350D03*
X165895800Y-66818650D03*
X165895800Y-73181350D03*
%TD*%
D12*
%TO.C,R2*%
X178305000Y-70200000D03*
X179500000Y-70200000D03*
%TD*%
D11*
%TO.C,U5*%
X165354200Y-43167300D03*
X165354200Y-49530000D03*
X161645800Y-43167300D03*
X161645800Y-49530000D03*
%TD*%
%TO.C,U9*%
X173854200Y-43167300D03*
X173854200Y-49530000D03*
X170145800Y-43167300D03*
X170145800Y-49530000D03*
%TD*%
%TO.C,U2*%
X163354200Y-56818650D03*
X163354200Y-63181350D03*
X159645800Y-56818650D03*
X159645800Y-63181350D03*
%TD*%
%TO.C,U16*%
X175854200Y-86818650D03*
X175854200Y-93181350D03*
X172145800Y-86818650D03*
X172145800Y-93181350D03*
%TD*%
%TO.C,U10*%
X175854200Y-56818650D03*
X175854200Y-63181350D03*
X172145800Y-56818650D03*
X172145800Y-63181350D03*
%TD*%
%TO.C,U11*%
X169604200Y-76818650D03*
X169604200Y-83181350D03*
X165895800Y-76818650D03*
X165895800Y-83181350D03*
%TD*%
M02*
