%TF.GenerationSoftware,KiCad,Pcbnew,8.0.1*%
%TF.CreationDate,2024-03-29T18:46:23-05:00*%
%TF.ProjectId,TTWR Keypad,54545752-204b-4657-9970-61642e6b6963,V01*%
%TF.SameCoordinates,Original*%
%TF.FileFunction,Soldermask,Top*%
%TF.FilePolarity,Negative*%
%FSLAX46Y46*%
G04 Gerber Fmt 4.6, Leading zero omitted, Abs format (unit mm)*
G04 Created by KiCad (PCBNEW 8.0.1) date 2024-03-29 18:46:23*
%MOMM*%
%LPD*%
G01*
G04 APERTURE LIST*
%ADD10C,2.575000*%
%ADD11R,0.558800X0.952500*%
%ADD12R,0.850000X0.850000*%
%ADD13O,0.850000X0.850000*%
G04 APERTURE END LIST*
D10*
X153787500Y-97500000D02*
G75*
G02*
X151212500Y-97500000I-1287500J0D01*
G01*
X151212500Y-97500000D02*
G75*
G02*
X153787500Y-97500000I1287500J0D01*
G01*
X184287500Y-97500000D02*
G75*
G02*
X181712500Y-97500000I-1287500J0D01*
G01*
X181712500Y-97500000D02*
G75*
G02*
X184287500Y-97500000I1287500J0D01*
G01*
D11*
%TO.C,U3*%
X159663200Y-63318650D03*
X159663200Y-69681350D03*
X155954800Y-63318650D03*
X155954800Y-69681350D03*
%TD*%
%TO.C,U12*%
X169679200Y-83318650D03*
X169679200Y-89681350D03*
X165970800Y-83318650D03*
X165970800Y-89681350D03*
%TD*%
%TO.C,U8*%
X159663200Y-83318650D03*
X159663200Y-89681350D03*
X155954800Y-83318650D03*
X155954800Y-89681350D03*
%TD*%
%TO.C,U1*%
X156854200Y-43167300D03*
X156854200Y-49530000D03*
X153145800Y-43167300D03*
X153145800Y-49530000D03*
%TD*%
%TO.C,U14*%
X179704200Y-63313450D03*
X179704200Y-69676150D03*
X175995800Y-63313450D03*
X175995800Y-69676150D03*
%TD*%
%TO.C,U13*%
X182354200Y-43167300D03*
X182354200Y-49530000D03*
X178645800Y-43167300D03*
X178645800Y-49530000D03*
%TD*%
%TO.C,U6*%
X169679200Y-53318650D03*
X169679200Y-59681350D03*
X165970800Y-53318650D03*
X165970800Y-59681350D03*
%TD*%
%TO.C,U4*%
X159663200Y-73318650D03*
X159663200Y-79681350D03*
X155954800Y-73318650D03*
X155954800Y-79681350D03*
%TD*%
%TO.C,U15*%
X179704200Y-73313450D03*
X179704200Y-79676150D03*
X175995800Y-73313450D03*
X175995800Y-79676150D03*
%TD*%
%TO.C,U7*%
X169679200Y-63318650D03*
X169679200Y-69681350D03*
X165970800Y-63318650D03*
X165970800Y-69681350D03*
%TD*%
%TO.C,U5*%
X165354200Y-43167300D03*
X165354200Y-49530000D03*
X161645800Y-43167300D03*
X161645800Y-49530000D03*
%TD*%
%TO.C,U9*%
X173854200Y-43167300D03*
X173854200Y-49530000D03*
X170145800Y-43167300D03*
X170145800Y-49530000D03*
%TD*%
%TO.C,U2*%
X159663200Y-53318650D03*
X159663200Y-59681350D03*
X155954800Y-53318650D03*
X155954800Y-59681350D03*
%TD*%
%TO.C,U16*%
X179704200Y-83313450D03*
X179704200Y-89676150D03*
X175995800Y-83313450D03*
X175995800Y-89676150D03*
%TD*%
%TO.C,U10*%
X175995800Y-59676150D03*
X175995800Y-53313450D03*
X179704200Y-59676150D03*
X179704200Y-53313450D03*
%TD*%
%TO.C,U11*%
X169679200Y-73318650D03*
X169679200Y-79681350D03*
X165970800Y-73318650D03*
X165970800Y-79681350D03*
%TD*%
D12*
%TO.C,J2*%
X151000000Y-93000000D03*
D13*
X151000000Y-92000000D03*
X151000000Y-91000000D03*
X151000000Y-90000000D03*
X151000000Y-89000000D03*
X151000000Y-88000000D03*
X151000000Y-87000000D03*
X151000000Y-86000000D03*
X151000000Y-85000000D03*
X151000000Y-84000000D03*
X151000000Y-83000000D03*
X151000000Y-82000000D03*
X151000000Y-81000000D03*
X151000000Y-80000000D03*
X151000000Y-79000000D03*
%TD*%
D12*
%TO.C,J1*%
X184500000Y-93000000D03*
D13*
X184500000Y-92000000D03*
X184500000Y-91000000D03*
X184500000Y-90000000D03*
X184500000Y-89000000D03*
X184500000Y-88000000D03*
X184500000Y-87000000D03*
X184500000Y-86000000D03*
X184500000Y-85000000D03*
X184500000Y-84000000D03*
X184500000Y-83000000D03*
X184500000Y-82000000D03*
X184500000Y-81000000D03*
X184500000Y-80000000D03*
X184500000Y-79000000D03*
%TD*%
M02*
