%TF.GenerationSoftware,KiCad,Pcbnew,8.0.1*%
%TF.CreationDate,2024-03-27T15:42:31-05:00*%
%TF.ProjectId,TTWR Keypad,54545752-204b-4657-9970-61642e6b6963,V01*%
%TF.SameCoordinates,Original*%
%TF.FileFunction,Copper,L4,Bot*%
%TF.FilePolarity,Positive*%
%FSLAX46Y46*%
G04 Gerber Fmt 4.6, Leading zero omitted, Abs format (unit mm)*
G04 Created by KiCad (PCBNEW 8.0.1) date 2024-03-27 15:42:31*
%MOMM*%
%LPD*%
G01*
G04 APERTURE LIST*
G04 Aperture macros list*
%AMRoundRect*
0 Rectangle with rounded corners*
0 $1 Rounding radius*
0 $2 $3 $4 $5 $6 $7 $8 $9 X,Y pos of 4 corners*
0 Add a 4 corners polygon primitive as box body*
4,1,4,$2,$3,$4,$5,$6,$7,$8,$9,$2,$3,0*
0 Add four circle primitives for the rounded corners*
1,1,$1+$1,$2,$3*
1,1,$1+$1,$4,$5*
1,1,$1+$1,$6,$7*
1,1,$1+$1,$8,$9*
0 Add four rect primitives between the rounded corners*
20,1,$1+$1,$2,$3,$4,$5,0*
20,1,$1+$1,$4,$5,$6,$7,0*
20,1,$1+$1,$6,$7,$8,$9,0*
20,1,$1+$1,$8,$9,$2,$3,0*%
%AMFreePoly0*
4,1,19,0.500000,-0.750000,0.000000,-0.750000,0.000000,-0.744911,-0.071157,-0.744911,-0.207708,-0.704816,-0.327430,-0.627875,-0.420627,-0.520320,-0.479746,-0.390866,-0.500000,-0.250000,-0.500000,0.250000,-0.479746,0.390866,-0.420627,0.520320,-0.327430,0.627875,-0.207708,0.704816,-0.071157,0.744911,0.000000,0.744911,0.000000,0.750000,0.500000,0.750000,0.500000,-0.750000,0.500000,-0.750000,
$1*%
%AMFreePoly1*
4,1,19,0.000000,0.744911,0.071157,0.744911,0.207708,0.704816,0.327430,0.627875,0.420627,0.520320,0.479746,0.390866,0.500000,0.250000,0.500000,-0.250000,0.479746,-0.390866,0.420627,-0.520320,0.327430,-0.627875,0.207708,-0.704816,0.071157,-0.744911,0.000000,-0.744911,0.000000,-0.750000,-0.500000,-0.750000,-0.500000,0.750000,0.000000,0.750000,0.000000,0.744911,0.000000,0.744911,
$1*%
G04 Aperture macros list end*
%TA.AperFunction,SMDPad,CuDef*%
%ADD10FreePoly0,270.000000*%
%TD*%
%TA.AperFunction,SMDPad,CuDef*%
%ADD11FreePoly1,270.000000*%
%TD*%
%TA.AperFunction,SMDPad,CuDef*%
%ADD12RoundRect,0.237500X-0.300000X-0.237500X0.300000X-0.237500X0.300000X0.237500X-0.300000X0.237500X0*%
%TD*%
%TA.AperFunction,SMDPad,CuDef*%
%ADD13RoundRect,0.225000X0.375000X-0.225000X0.375000X0.225000X-0.375000X0.225000X-0.375000X-0.225000X0*%
%TD*%
%TA.AperFunction,SMDPad,CuDef*%
%ADD14FreePoly0,0.000000*%
%TD*%
%TA.AperFunction,SMDPad,CuDef*%
%ADD15FreePoly1,0.000000*%
%TD*%
%TA.AperFunction,SMDPad,CuDef*%
%ADD16RoundRect,0.225000X-0.375000X0.225000X-0.375000X-0.225000X0.375000X-0.225000X0.375000X0.225000X0*%
%TD*%
%TA.AperFunction,SMDPad,CuDef*%
%ADD17RoundRect,0.237500X-0.237500X0.250000X-0.237500X-0.250000X0.237500X-0.250000X0.237500X0.250000X0*%
%TD*%
%TA.AperFunction,SMDPad,CuDef*%
%ADD18RoundRect,0.237500X-0.250000X-0.237500X0.250000X-0.237500X0.250000X0.237500X-0.250000X0.237500X0*%
%TD*%
%TA.AperFunction,ComponentPad*%
%ADD19R,0.850000X0.850000*%
%TD*%
%TA.AperFunction,ComponentPad*%
%ADD20O,0.850000X0.850000*%
%TD*%
%TA.AperFunction,SMDPad,CuDef*%
%ADD21R,2.082800X0.533400*%
%TD*%
%TA.AperFunction,ViaPad*%
%ADD22C,0.800000*%
%TD*%
%TA.AperFunction,Conductor*%
%ADD23C,0.250000*%
%TD*%
G04 APERTURE END LIST*
D10*
%TO.P,JP4,1,A*%
%TO.N,/IO Expander/INT*%
X155000000Y-91675000D03*
D11*
%TO.P,JP4,2,B*%
%TO.N,Net-(J2-Pin_1)*%
X155000000Y-92975000D03*
%TD*%
D12*
%TO.P,C1,1*%
%TO.N,+3.3V*%
X169400000Y-94400000D03*
%TO.P,C1,2*%
%TO.N,GND*%
X171125000Y-94400000D03*
%TD*%
D13*
%TO.P,D2,1,K*%
%TO.N,ROW_1*%
X157809000Y-58150000D03*
%TO.P,D2,2,A*%
%TO.N,Net-(D2-A)*%
X157809000Y-54850000D03*
%TD*%
%TO.P,D7,1,K*%
%TO.N,ROW_2*%
X167825000Y-68150000D03*
%TO.P,D7,2,A*%
%TO.N,Net-(D7-A)*%
X167825000Y-64850000D03*
%TD*%
D14*
%TO.P,JP3,1,A*%
%TO.N,+3.3V*%
X177550000Y-88225000D03*
D15*
%TO.P,JP3,2,B*%
%TO.N,/IO Expander/A2*%
X178850000Y-88225000D03*
%TD*%
D16*
%TO.P,D15,1,K*%
%TO.N,ROW_2*%
X177850000Y-74844800D03*
%TO.P,D15,2,A*%
%TO.N,Net-(D15-A)*%
X177850000Y-78144800D03*
%TD*%
D13*
%TO.P,D6,1,K*%
%TO.N,ROW_1*%
X167825000Y-58150000D03*
%TO.P,D6,2,A*%
%TO.N,Net-(D6-A)*%
X167825000Y-54850000D03*
%TD*%
D14*
%TO.P,JP1,1,A*%
%TO.N,+3.3V*%
X177550000Y-81500000D03*
D15*
%TO.P,JP1,2,B*%
%TO.N,/IO Expander/A0*%
X178850000Y-81500000D03*
%TD*%
D12*
%TO.P,C2,1*%
%TO.N,+3.3V*%
X169387500Y-96450000D03*
%TO.P,C2,2*%
%TO.N,GND*%
X171112500Y-96450000D03*
%TD*%
D17*
%TO.P,R1,1*%
%TO.N,+3.3V*%
X158250000Y-81500000D03*
%TO.P,R1,2*%
%TO.N,/IO Expander/SDA*%
X158250000Y-83325000D03*
%TD*%
D13*
%TO.P,D16,1,K*%
%TO.N,ROW_3*%
X177750000Y-97200000D03*
%TO.P,D16,2,A*%
%TO.N,Net-(D16-A)*%
X177750000Y-93900000D03*
%TD*%
D18*
%TO.P,R4,1*%
%TO.N,/IO Expander/A1*%
X180687500Y-84862500D03*
%TO.P,R4,2*%
%TO.N,GND*%
X182512500Y-84862500D03*
%TD*%
%TO.P,R5,1*%
%TO.N,/IO Expander/A2*%
X180687500Y-88225000D03*
%TO.P,R5,2*%
%TO.N,GND*%
X182512500Y-88225000D03*
%TD*%
D13*
%TO.P,D10,1,K*%
%TO.N,ROW_1*%
X177850000Y-58144800D03*
%TO.P,D10,2,A*%
%TO.N,Net-(D10-A)*%
X177850000Y-54844800D03*
%TD*%
%TO.P,D9,1,K*%
%TO.N,ROW_0*%
X172000000Y-48000000D03*
%TO.P,D9,2,A*%
%TO.N,Net-(D9-A)*%
X172000000Y-44700000D03*
%TD*%
%TO.P,D13,1,K*%
%TO.N,ROW_0*%
X180500000Y-48000000D03*
%TO.P,D13,2,A*%
%TO.N,Net-(D13-A)*%
X180500000Y-44700000D03*
%TD*%
%TO.P,D1,1,K*%
%TO.N,ROW_0*%
X155000000Y-48000000D03*
%TO.P,D1,2,A*%
%TO.N,Net-(D1-A)*%
X155000000Y-44700000D03*
%TD*%
%TO.P,D4,1,K*%
%TO.N,ROW_3*%
X157800000Y-78150000D03*
%TO.P,D4,2,A*%
%TO.N,Net-(D4-A)*%
X157800000Y-74850000D03*
%TD*%
%TO.P,D3,1,K*%
%TO.N,ROW_2*%
X157809000Y-68150000D03*
%TO.P,D3,2,A*%
%TO.N,Net-(D3-A)*%
X157809000Y-64850000D03*
%TD*%
D19*
%TO.P,J2,1,Pin_1*%
%TO.N,Net-(J2-Pin_1)*%
X151000000Y-93000000D03*
D20*
%TO.P,J2,2,Pin_2*%
%TO.N,unconnected-(J2-Pin_2-Pad2)*%
X151000000Y-92000000D03*
%TO.P,J2,3,Pin_3*%
%TO.N,unconnected-(J2-Pin_3-Pad3)*%
X151000000Y-91000000D03*
%TO.P,J2,4,Pin_4*%
%TO.N,unconnected-(J2-Pin_4-Pad4)*%
X151000000Y-90000000D03*
%TO.P,J2,5,Pin_5*%
%TO.N,unconnected-(J2-Pin_5-Pad5)*%
X151000000Y-89000000D03*
%TO.P,J2,6,Pin_6*%
%TO.N,unconnected-(J2-Pin_6-Pad6)*%
X151000000Y-88000000D03*
%TO.P,J2,7,Pin_7*%
%TO.N,unconnected-(J2-Pin_7-Pad7)*%
X151000000Y-87000000D03*
%TO.P,J2,8,Pin_8*%
%TO.N,unconnected-(J2-Pin_8-Pad8)*%
X151000000Y-86000000D03*
%TO.P,J2,9,Pin_9*%
%TO.N,unconnected-(J2-Pin_9-Pad9)*%
X151000000Y-85000000D03*
%TO.P,J2,10,Pin_10*%
%TO.N,unconnected-(J2-Pin_10-Pad10)*%
X151000000Y-84000000D03*
%TO.P,J2,11,Pin_11*%
%TO.N,unconnected-(J2-Pin_11-Pad11)*%
X151000000Y-83000000D03*
%TO.P,J2,12,Pin_12*%
%TO.N,unconnected-(J2-Pin_12-Pad12)*%
X151000000Y-82000000D03*
%TO.P,J2,13,Pin_13*%
%TO.N,GND*%
X151000000Y-81000000D03*
%TO.P,J2,14,Pin_14*%
%TO.N,unconnected-(J2-Pin_14-Pad14)*%
X151000000Y-80000000D03*
%TO.P,J2,15,Pin_15*%
%TO.N,GND*%
X151000000Y-79000000D03*
%TD*%
D19*
%TO.P,J1,1,Pin_1*%
%TO.N,GND*%
X184500000Y-93000000D03*
D20*
%TO.P,J1,2,Pin_2*%
%TO.N,unconnected-(J1-Pin_2-Pad2)*%
X184500000Y-92000000D03*
%TO.P,J1,3,Pin_3*%
%TO.N,unconnected-(J1-Pin_3-Pad3)*%
X184500000Y-91000000D03*
%TO.P,J1,4,Pin_4*%
%TO.N,unconnected-(J1-Pin_4-Pad4)*%
X184500000Y-90000000D03*
%TO.P,J1,5,Pin_5*%
%TO.N,/IO Expander/SDA*%
X184500000Y-89000000D03*
%TO.P,J1,6,Pin_6*%
%TO.N,/IO Expander/SCL*%
X184500000Y-88000000D03*
%TO.P,J1,7,Pin_7*%
%TO.N,GND*%
X184500000Y-87000000D03*
%TO.P,J1,8,Pin_8*%
%TO.N,+3.3V*%
X184500000Y-86000000D03*
%TO.P,J1,9,Pin_9*%
%TO.N,unconnected-(J1-Pin_9-Pad9)*%
X184500000Y-85000000D03*
%TO.P,J1,10,Pin_10*%
%TO.N,unconnected-(J1-Pin_10-Pad10)*%
X184500000Y-84000000D03*
%TO.P,J1,11,Pin_11*%
%TO.N,unconnected-(J1-Pin_11-Pad11)*%
X184500000Y-83000000D03*
%TO.P,J1,12,Pin_12*%
%TO.N,unconnected-(J1-Pin_12-Pad12)*%
X184500000Y-82000000D03*
%TO.P,J1,13,Pin_13*%
%TO.N,unconnected-(J1-Pin_13-Pad13)*%
X184500000Y-81000000D03*
%TO.P,J1,14,Pin_14*%
%TO.N,unconnected-(J1-Pin_14-Pad14)*%
X184500000Y-80000000D03*
%TO.P,J1,15,Pin_15*%
%TO.N,unconnected-(J1-Pin_15-Pad15)*%
X184500000Y-79000000D03*
%TD*%
D18*
%TO.P,R3,1*%
%TO.N,/IO Expander/A0*%
X180687500Y-81500000D03*
%TO.P,R3,2*%
%TO.N,GND*%
X182512500Y-81500000D03*
%TD*%
D17*
%TO.P,R2,1*%
%TO.N,+3.3V*%
X155775000Y-81500000D03*
%TO.P,R2,2*%
%TO.N,/IO Expander/SCL*%
X155775000Y-83325000D03*
%TD*%
D13*
%TO.P,D12,1,K*%
%TO.N,ROW_3*%
X164850000Y-97200000D03*
%TO.P,D12,2,A*%
%TO.N,Net-(D12-A)*%
X164850000Y-93900000D03*
%TD*%
D14*
%TO.P,JP2,1,A*%
%TO.N,+3.3V*%
X177575000Y-84862500D03*
D15*
%TO.P,JP2,2,B*%
%TO.N,/IO Expander/A1*%
X178875000Y-84862500D03*
%TD*%
D13*
%TO.P,D5,1,K*%
%TO.N,ROW_0*%
X163500000Y-48000000D03*
%TO.P,D5,2,A*%
%TO.N,Net-(D5-A)*%
X163500000Y-44700000D03*
%TD*%
D16*
%TO.P,D11,1,K*%
%TO.N,ROW_2*%
X167825000Y-74850000D03*
%TO.P,D11,2,A*%
%TO.N,Net-(D11-A)*%
X167825000Y-78150000D03*
%TD*%
%TO.P,D8,1,K*%
%TO.N,ROW_3*%
X157775000Y-86375000D03*
%TO.P,D8,2,A*%
%TO.N,Net-(D8-A)*%
X157775000Y-89675000D03*
%TD*%
D21*
%TO.P,U17,1,A0*%
%TO.N,/IO Expander/A0*%
X172663700Y-82055000D03*
%TO.P,U17,2,A1*%
%TO.N,/IO Expander/A1*%
X172663700Y-83325000D03*
%TO.P,U17,3,A2*%
%TO.N,/IO Expander/A2*%
X172663700Y-84595000D03*
%TO.P,U17,4,P0*%
%TO.N,COL_0*%
X172663700Y-85865000D03*
%TO.P,U17,5,P1*%
%TO.N,COL_1*%
X172663700Y-87135000D03*
%TO.P,U17,6,P2*%
%TO.N,COL_2*%
X172663700Y-88405000D03*
%TO.P,U17,7,P3*%
%TO.N,COL_3*%
X172663700Y-89675000D03*
%TO.P,U17,8,GND*%
%TO.N,GND*%
X172663700Y-90945000D03*
%TO.P,U17,9,P4*%
%TO.N,ROW_0*%
X162986300Y-90945000D03*
%TO.P,U17,10,P5*%
%TO.N,ROW_1*%
X162986300Y-89675000D03*
%TO.P,U17,11,P6*%
%TO.N,ROW_2*%
X162986300Y-88405000D03*
%TO.P,U17,12,P7*%
%TO.N,ROW_3*%
X162986300Y-87135000D03*
%TO.P,U17,13,\u002AINT*%
%TO.N,/IO Expander/INT*%
X162986300Y-85865000D03*
%TO.P,U17,14,SCL*%
%TO.N,/IO Expander/SCL*%
X162986300Y-84595000D03*
%TO.P,U17,15,SDA*%
%TO.N,/IO Expander/SDA*%
X162986300Y-83325000D03*
%TO.P,U17,16,VCC*%
%TO.N,+3.3V*%
X162986300Y-82055000D03*
%TD*%
D16*
%TO.P,D14,1,K*%
%TO.N,ROW_1*%
X177850000Y-64844800D03*
%TO.P,D14,2,A*%
%TO.N,Net-(D14-A)*%
X177850000Y-68144800D03*
%TD*%
D22*
%TO.N,Net-(D1-A)*%
X155000000Y-43000000D03*
%TO.N,Net-(D2-A)*%
X157800000Y-53325000D03*
%TO.N,Net-(D3-A)*%
X157800000Y-63325000D03*
%TO.N,Net-(D4-A)*%
X157800000Y-73300000D03*
%TO.N,Net-(D8-A)*%
X157775000Y-90650000D03*
%TO.N,Net-(D9-A)*%
X172000000Y-43000000D03*
%TO.N,Net-(D10-A)*%
X177850000Y-53300000D03*
%TO.N,Net-(D11-A)*%
X167825000Y-79675000D03*
%TO.N,Net-(D12-A)*%
X165975000Y-91975000D03*
%TO.N,Net-(D13-A)*%
X180500000Y-43000000D03*
%TO.N,Net-(D14-A)*%
X177850000Y-69675000D03*
%TO.N,Net-(D15-A)*%
X176950000Y-79675000D03*
%TO.N,Net-(D16-A)*%
X177750000Y-89675000D03*
%TO.N,Net-(D5-A)*%
X163500000Y-43000000D03*
%TO.N,Net-(D6-A)*%
X167825000Y-53325000D03*
%TO.N,Net-(D7-A)*%
X167825000Y-63325000D03*
%TO.N,+3.3V*%
X177575000Y-86000000D03*
X165000000Y-82050000D03*
X169400000Y-93000000D03*
%TO.N,GND*%
X182525000Y-80325000D03*
X175000000Y-90950000D03*
%TO.N,ROW_3*%
X157775000Y-87150000D03*
X157800000Y-79500000D03*
%TO.N,/IO Expander/SDA*%
X160500000Y-83325000D03*
%TO.N,/IO Expander/SCL*%
X164995000Y-84595000D03*
%TO.N,/IO Expander/A0*%
X174975000Y-82050000D03*
X180700000Y-80300000D03*
%TO.N,/IO Expander/A1*%
X175000000Y-83325000D03*
X180700000Y-83325000D03*
%TO.N,/IO Expander/A2*%
X175000000Y-84600000D03*
X180650000Y-87175000D03*
%TO.N,/IO Expander/INT*%
X160500000Y-85875000D03*
X154975000Y-90000000D03*
%TO.N,COL_0*%
X160975000Y-79675000D03*
X175000000Y-85875000D03*
%TO.N,COL_1*%
X159650000Y-81125000D03*
X175000000Y-87150000D03*
%TO.N,COL_2*%
X175000000Y-88375000D03*
%TO.N,COL_3*%
X175000000Y-89700000D03*
%TD*%
D23*
%TO.N,Net-(D1-A)*%
X155000000Y-44700000D02*
X155000000Y-43000000D01*
%TO.N,Net-(D2-A)*%
X157809000Y-53334000D02*
X157800000Y-53325000D01*
X157809000Y-54850000D02*
X157809000Y-53334000D01*
%TO.N,Net-(D3-A)*%
X157809000Y-63334000D02*
X157800000Y-63325000D01*
X157809000Y-64850000D02*
X157809000Y-63334000D01*
%TO.N,Net-(D4-A)*%
X157800000Y-74850000D02*
X157800000Y-73300000D01*
%TO.N,Net-(D8-A)*%
X157775000Y-90650000D02*
X157775000Y-89675000D01*
%TO.N,Net-(D9-A)*%
X172000000Y-44700000D02*
X172000000Y-43000000D01*
%TO.N,Net-(D10-A)*%
X177850000Y-54844800D02*
X177850000Y-53300000D01*
%TO.N,Net-(D11-A)*%
X167825000Y-78150000D02*
X167825000Y-79675000D01*
%TO.N,Net-(D12-A)*%
X164850000Y-93900000D02*
X164850000Y-93100000D01*
X164850000Y-93100000D02*
X165975000Y-91975000D01*
%TO.N,Net-(D13-A)*%
X180500000Y-44700000D02*
X180500000Y-43000000D01*
%TO.N,Net-(D14-A)*%
X177850000Y-68144800D02*
X177850000Y-69675000D01*
%TO.N,Net-(D15-A)*%
X177850000Y-78144800D02*
X177850000Y-78775000D01*
X177850000Y-78775000D02*
X176950000Y-79675000D01*
%TO.N,Net-(D16-A)*%
X177750000Y-93900000D02*
X177750000Y-89675000D01*
%TO.N,Net-(D5-A)*%
X163500000Y-44700000D02*
X163500000Y-43000000D01*
%TO.N,Net-(D6-A)*%
X167825000Y-54850000D02*
X167825000Y-53325000D01*
%TO.N,Net-(D7-A)*%
X167825000Y-64850000D02*
X167825000Y-63325000D01*
%TO.N,+3.3V*%
X169387500Y-94412500D02*
X169400000Y-94400000D01*
X177575000Y-86000000D02*
X177575000Y-88200000D01*
X158805000Y-82055000D02*
X158250000Y-81500000D01*
X169387500Y-96450000D02*
X169387500Y-94412500D01*
X169407500Y-93007500D02*
X169400000Y-93000000D01*
X162986300Y-82055000D02*
X164995000Y-82055000D01*
X177550000Y-84837500D02*
X177575000Y-84862500D01*
X177550000Y-81500000D02*
X177550000Y-84837500D01*
X162986300Y-82055000D02*
X158805000Y-82055000D01*
X164995000Y-82055000D02*
X165000000Y-82050000D01*
X169400000Y-94400000D02*
X169400000Y-93000000D01*
X158250000Y-81500000D02*
X155775000Y-81500000D01*
X177575000Y-84862500D02*
X177575000Y-86000000D01*
X177575000Y-88200000D02*
X177550000Y-88225000D01*
%TO.N,GND*%
X171125000Y-92483700D02*
X172663700Y-90945000D01*
X171112500Y-94412500D02*
X171125000Y-94400000D01*
X171125000Y-94400000D02*
X171125000Y-92483700D01*
X182512500Y-81500000D02*
X182512500Y-80337500D01*
X182512500Y-84862500D02*
X182512500Y-81500000D01*
X172663700Y-90945000D02*
X174995000Y-90945000D01*
X182512500Y-88225000D02*
X182512500Y-84862500D01*
X174995000Y-90945000D02*
X175000000Y-90950000D01*
X182512500Y-80337500D02*
X182525000Y-80325000D01*
X171112500Y-96450000D02*
X171112500Y-94412500D01*
%TO.N,ROW_1*%
X169025000Y-80175000D02*
X173450000Y-75750000D01*
X169025000Y-84411000D02*
X169025000Y-80175000D01*
X163761000Y-89675000D02*
X169025000Y-84411000D01*
X167825000Y-58150000D02*
X157809000Y-58150000D01*
X162986300Y-89675000D02*
X163761000Y-89675000D01*
X178258142Y-75750000D02*
X179700000Y-74308142D01*
X167830200Y-58144800D02*
X167825000Y-58150000D01*
X179700000Y-66694800D02*
X177850000Y-64844800D01*
X177850000Y-58144800D02*
X167830200Y-58144800D01*
X177850000Y-58144800D02*
X177850000Y-64844800D01*
X173450000Y-75750000D02*
X178258142Y-75750000D01*
X179700000Y-74308142D02*
X179700000Y-66694800D01*
%TO.N,ROW_2*%
X177844800Y-74850000D02*
X177850000Y-74844800D01*
X165900000Y-86266000D02*
X163761000Y-88405000D01*
X165900000Y-76775000D02*
X165900000Y-86266000D01*
X167825000Y-68150000D02*
X157809000Y-68150000D01*
X167825000Y-74850000D02*
X167825000Y-68150000D01*
X163761000Y-88405000D02*
X162986300Y-88405000D01*
X167825000Y-74850000D02*
X165900000Y-76775000D01*
X167825000Y-74850000D02*
X177844800Y-74850000D01*
%TO.N,ROW_3*%
X164850000Y-97200000D02*
X160025000Y-92375000D01*
X157800000Y-78150000D02*
X157800000Y-79500000D01*
X157775000Y-86375000D02*
X157775000Y-87150000D01*
X162986300Y-87135000D02*
X160025000Y-87135000D01*
X157790000Y-87135000D02*
X157775000Y-87150000D01*
X160025000Y-87135000D02*
X157790000Y-87135000D01*
X177750000Y-97200000D02*
X164850000Y-97200000D01*
X160025000Y-92375000D02*
X160025000Y-87135000D01*
%TO.N,unconnected-(J1-Pin_2-Pad2)*%
X184500000Y-92000000D02*
X184439339Y-92000000D01*
%TO.N,/IO Expander/SDA*%
X162986300Y-83325000D02*
X160500000Y-83325000D01*
X160497500Y-83322500D02*
X160500000Y-83325000D01*
X158250000Y-83325000D02*
X160500000Y-83325000D01*
%TO.N,/IO Expander/SCL*%
X165000000Y-84600000D02*
X164995000Y-84595000D01*
X162986300Y-84595000D02*
X157045000Y-84595000D01*
X162986300Y-84595000D02*
X164995000Y-84595000D01*
X157045000Y-84595000D02*
X155775000Y-83325000D01*
%TO.N,Net-(J2-Pin_1)*%
X155000000Y-92975000D02*
X151025000Y-92975000D01*
X151025000Y-92975000D02*
X151000000Y-93000000D01*
%TO.N,/IO Expander/A0*%
X180687500Y-81500000D02*
X180687500Y-80312500D01*
X180687500Y-80312500D02*
X180700000Y-80300000D01*
X174970000Y-82055000D02*
X174975000Y-82050000D01*
X172663700Y-82055000D02*
X174970000Y-82055000D01*
X180687500Y-81500000D02*
X178850000Y-81500000D01*
%TO.N,/IO Expander/A1*%
X180687500Y-83337500D02*
X180700000Y-83325000D01*
X180687500Y-84862500D02*
X178875000Y-84862500D01*
X180687500Y-84862500D02*
X180687500Y-83337500D01*
X172663700Y-83325000D02*
X175000000Y-83325000D01*
%TO.N,/IO Expander/A2*%
X172663700Y-84595000D02*
X174995000Y-84595000D01*
X180687500Y-88225000D02*
X180687500Y-87212500D01*
X180687500Y-88225000D02*
X178850000Y-88225000D01*
X180687500Y-87212500D02*
X180650000Y-87175000D01*
X174995000Y-84595000D02*
X175000000Y-84600000D01*
%TO.N,/IO Expander/INT*%
X155000000Y-91675000D02*
X155000000Y-90025000D01*
X160510000Y-85865000D02*
X160500000Y-85875000D01*
X155000000Y-90025000D02*
X154975000Y-90000000D01*
X162986300Y-85865000D02*
X160510000Y-85865000D01*
%TO.N,COL_0*%
X172663700Y-85865000D02*
X175000000Y-85875000D01*
X175000000Y-85875000D02*
X174990000Y-85865000D01*
%TO.N,COL_1*%
X174985000Y-87135000D02*
X175000000Y-87150000D01*
X172663700Y-87135000D02*
X174985000Y-87135000D01*
%TO.N,COL_2*%
X174995000Y-88405000D02*
X175000000Y-88400000D01*
X175000000Y-88375000D02*
X175025000Y-88375000D01*
X172663700Y-88405000D02*
X174995000Y-88405000D01*
X175000000Y-88400000D02*
X175000000Y-88375000D01*
X175025000Y-88375000D02*
X175000000Y-88400000D01*
%TO.N,COL_3*%
X172663700Y-89675000D02*
X175000000Y-89700000D01*
X175000000Y-89700000D02*
X175000000Y-89675000D01*
%TO.N,ROW_0*%
X169675000Y-80225000D02*
X173650000Y-76250000D01*
X178323827Y-76250000D02*
X180500000Y-74073827D01*
X162986300Y-90945000D02*
X163574400Y-90945000D01*
X180500000Y-48000000D02*
X172000000Y-48000000D01*
X180500000Y-74073827D02*
X180500000Y-48000000D01*
X169675000Y-84844400D02*
X169675000Y-80225000D01*
X163500000Y-48000000D02*
X155000000Y-48000000D01*
X172000000Y-48000000D02*
X163500000Y-48000000D01*
X173650000Y-76250000D02*
X178323827Y-76250000D01*
X163574400Y-90945000D02*
X169675000Y-84844400D01*
%TD*%
M02*
